<svg xmlns="http://www.w3.org/2000/svg" width="40" height="39.999" viewBox="0 0 40 39.999">
  <path id="빼기_2" data-name="빼기 2" d="M7124,1404a20,20,0,1,1,14.143-5.858A19.868,19.868,0,0,1,7124,1404Zm-8.04-26.281v16.869h3.865v-21h-3.865l-4.274,3.716v4.129l4.272-3.714Zm14.364,8.2v0l-4.342,8.668h4.149l4.444-9.083c.475-.97.886-1.913,1.223-2.8a7.846,7.846,0,0,0,.515-2.8,7.243,7.243,0,0,0-.5-2.771,5.831,5.831,0,0,0-1.387-2.036,5.989,5.989,0,0,0-2.08-1.254,7.649,7.649,0,0,0-2.579-.428,7.415,7.415,0,0,0-2.582.443,6.091,6.091,0,0,0-2.08,1.284,5.892,5.892,0,0,0-1.385,2.063,7.254,7.254,0,0,0-.5,2.759,6.926,6.926,0,0,0,.47,2.626,6.14,6.14,0,0,0,1.24,1.947,5.345,5.345,0,0,0,1.772,1.222,5.222,5.222,0,0,0,2.063.428,5.472,5.472,0,0,0,.78-.057,3.626,3.626,0,0,0,.778-.208Zm-.558-2.919a2.492,2.492,0,0,1-1.956-.826,3.288,3.288,0,0,1-.731-2.24,3.187,3.187,0,0,1,.761-2.274,2.73,2.73,0,0,1,3.851,0,3.781,3.781,0,0,1,0,4.544A2.56,2.56,0,0,1,7129.767,1383Z" transform="translate(-7104 -1364.001)" fill="#f53008"/>
</svg>
