<svg xmlns="http://www.w3.org/2000/svg" width="44" height="44" viewBox="0 0 44 44">
    <g id="사각형_28559" data-name="사각형 28559" fill="none" stroke="#3a3c43" stroke-width="1">
        <rect width="44" height="44" rx="22" stroke="none"/>
        <rect x="0.5" y="0.5" width="43" height="43" rx="21.5" fill="none"/>
    </g>
    <path id="패스_47775" data-name="패스 47775" d="M42.625,9.375V.023C42.832.008,43.039,0,43.25,0A8.751,8.751,0,0,1,52,8.75c0,.211-.008.418-.023.625ZM32,10.625A9.377,9.377,0,0,1,40.75,1.27v9.98l6.6,6.6A9.378,9.378,0,0,1,32,10.625Zm11.25.625h9.98a9.374,9.374,0,0,1-3.379,6.6Z" transform="translate(-20.615 12)" fill="#fff" opacity="0.8"/>
</svg>
