<svg id="그룹_22036" data-name="그룹 22036" xmlns="http://www.w3.org/2000/svg" xmlns:xlink="http://www.w3.org/1999/xlink" width="92.316" height="80" viewBox="0 0 92.316 80">
    <defs>
        <clipPath id="clip-path">
            <rect id="사각형_27623" data-name="사각형 27623" width="92.316" height="80" fill="#fff"/>
        </clipPath>
    </defs>
    <g id="그룹_22035" data-name="그룹 22035" clip-path="url(#clip-path)">
        <path id="패스_46246" data-name="패스 46246" d="M29.737,30.737a9.21,9.21,0,1,0-9.21-9.211,9.221,9.221,0,0,0,9.21,9.211m0-16.421a7.21,7.21,0,1,1-7.21,7.21,7.218,7.218,0,0,1,7.21-7.21" fill="#fff"/>
        <path id="패스_46247" data-name="패스 46247" d="M11.387,42.4a7.22,7.22,0,0,1,10.2,0l1.68,1.681a9.219,9.219,0,0,0,13.025,0L56.8,23.567a7.22,7.22,0,0,1,10.2,0l11,11V46.158a1,1,0,0,0,2,0V9.21A9.221,9.221,0,0,0,70.789,0H9.21A9.22,9.22,0,0,0,0,9.21V58.474a9.221,9.221,0,0,0,9.21,9.211H58.473a1,1,0,0,0,0-2H9.21A7.219,7.219,0,0,1,2,58.474v-6.69ZM9.21,2H70.789A7.218,7.218,0,0,1,78,9.21V31.743l-9.589-9.59a9.211,9.211,0,0,0-13.025,0l-20.51,20.51a7.219,7.219,0,0,1-10.2,0L23,40.982a9.221,9.221,0,0,0-13.025,0L2,48.956V9.21A7.218,7.218,0,0,1,9.21,2" fill="#fff"/>
        <path id="패스_46248" data-name="패스 46248" d="M91.316,65.685H79.842V54.369a1,1,0,0,0-2,0V65.685H66.684a1,1,0,0,0,0,2H77.842V79a1,1,0,0,0,2,0V67.685H91.316a1,1,0,0,0,0-2" fill="#fff"/>
    </g>
</svg>
