<svg xmlns="http://www.w3.org/2000/svg" xmlns:xlink="http://www.w3.org/1999/xlink" width="18" height="18" viewBox="0 0 18 18">
    <defs>
        <clipPath id="clip-path">
            <rect id="사각형_27617" data-name="사각형 27617" width="18" height="18" fill="#fff"/>
        </clipPath>
    </defs>
    <g id="그룹_24262" data-name="그룹 24262" transform="translate(0 0)">
        <g id="그룹_22030" data-name="그룹 22030" transform="translate(0 0)" clip-path="url(#clip-path)">
            <path id="패스_46239" data-name="패스 46239" d="M9,0a9,9,0,1,0,9,9A9,9,0,0,0,9,0m8.255,9H15.792a6.78,6.78,0,0,0-.232-1.758l1.412-.379A8.223,8.223,0,0,1,17.255,9M14.834,3.165a8.288,8.288,0,0,1,1.311,1.709l-1.266.731A6.808,6.808,0,0,0,13.8,4.2Zm-3.7-2.139a8.192,8.192,0,0,1,1.989.828L12.394,3.12a6.751,6.751,0,0,0-1.637-.681ZM9,.745V2.208a6.78,6.78,0,0,0-1.758.231L6.864,1.027A8.217,8.217,0,0,1,9,.745M1.854,4.874l1.266.731a6.777,6.777,0,0,0-.681,1.637L1.027,6.863a8.216,8.216,0,0,1,.827-1.989M.745,9H2.208a6.779,6.779,0,0,0,.231,1.758l-1.412.378A8.244,8.244,0,0,1,.745,9m2.42,5.834a8.325,8.325,0,0,1-1.311-1.709l1.266-.732A6.827,6.827,0,0,0,4.2,13.8Zm0-11.668A8.285,8.285,0,0,1,4.874,1.855L5.605,3.12A6.806,6.806,0,0,0,4.2,4.2Zm3.7,13.807a8.216,8.216,0,0,1-1.989-.827l.731-1.266a6.751,6.751,0,0,0,1.637.681ZM9,17.255V15.792a6.775,6.775,0,0,0,1.758-.232l.379,1.412A8.221,8.221,0,0,1,9,17.255M9,9.337,5.721,11.523a.28.28,0,0,1-.39-.077.283.283,0,0,1-.048-.157V6.709a.281.281,0,0,1,.437-.234L9,8.661l3.279-2.186a.281.281,0,0,1,.437.234v4.58a.281.281,0,0,1-.437.234Zm4.125,6.808-.73-1.266A6.865,6.865,0,0,0,13.8,13.8l1.034,1.034a8.309,8.309,0,0,1-1.709,1.311m3.02-3.02-1.266-.731a6.749,6.749,0,0,0,.681-1.637l1.412.379a8.2,8.2,0,0,1-.827,1.989" transform="translate(0 0)" fill="#fff"/>
        </g>
    </g>
</svg>
