<svg xmlns="http://www.w3.org/2000/svg" xmlns:xlink="http://www.w3.org/1999/xlink" width="258" height="200" viewBox="0 0 258 200">
    <defs>
        <linearGradient id="linear-gradient" x1="0.5" x2="0.5" y2="1" gradientUnits="objectBoundingBox">
            <stop offset="0" stop-color="#344e78"/>
            <stop offset="1" stop-color="#172235"/>
        </linearGradient>
    </defs>
    <g id="합치기_6" data-name="합치기 6" stroke-miterlimit="10" fill="url(#linear-gradient)">
        <path d="M3.192,200A3.1,3.1,0,0,1,0,197V3A3.1,3.1,0,0,1,3.192,0H258V15c-52.38,0-92,42.62-92,95v90Z" stroke="none"/>
        <path d="M 164.8005065917969 198.7997894287109 L 164.8005065917969 109.9997940063477 C 164.8005065917969 56.47100067138672 205.1152038574219 14.45087242126465 256.80029296875 13.80773258209229 L 256.80029296875 1.200007915496826 L 3.192295551300049 1.200007915496826 C 2.093759775161743 1.200007915496826 1.200009703636169 2.007364988327026 1.200009703636169 2.999722242355347 L 1.200009703636169 197.0001220703125 C 1.200009703636169 197.9924774169922 2.093759775161743 198.7997894287109 3.192295551300049 198.7997894287109 L 164.8005065917969 198.7997894287109 M 166.0005035400391 199.9997863769531 L 3.192295551300049 199.9997863769531 C 1.429188251495361 199.9997863769531 9.730747478897683e-06 198.6570129394531 9.730747478897683e-06 197.0001220703125 L 9.730747478897683e-06 2.999722242355347 C 9.730747478897683e-06 1.342793703079224 1.429188251495361 7.960727998579387e-06 3.192295551300049 7.960727998579387e-06 L 258.0003051757812 7.960727998579387e-06 L 258.0003051757812 15.00029373168945 C 205.6203002929688 15.00029373168945 166.0005035400391 57.61979293823242 166.0005035400391 109.9997940063477 L 166.0005035400391 199.9997863769531 Z" stroke="none" fill="rgba(44,102,194,0.8)"/>
    </g>
</svg>
