<svg xmlns="http://www.w3.org/2000/svg" xmlns:xlink="http://www.w3.org/1999/xlink" width="18" height="18" viewBox="0 0 18 18">
    <defs>
        <clipPath id="clip-path">
            <rect id="사각형_26313" data-name="사각형 26313" width="18" height="18" fill="#fff"/>
        </clipPath>
    </defs>
    <g id="그룹_21851" data-name="그룹 21851" clip-path="url(#clip-path)">
        <path id="패스_46095" data-name="패스 46095" d="M9,0a9,9,0,1,0,9,9A9,9,0,0,0,9,0m3.736,8.1H10.4V7.3c0-1.107-.543-1.316-1.4-1.316S7.6,6.194,7.6,7.3v3.4c0,1.106.55,1.309,1.407,1.309s1.4-.2,1.4-1.309V9.9h2.333v.8c0,2.311-1.26,3.3-3.732,3.3s-3.74-.989-3.74-3.3V7.3C5.264,4.989,6.532,4,9,4s3.732.989,3.732,3.3Z" fill="#fff"/>
    </g>
</svg>
