 <svg xmlns="http://www.w3.org/2000/svg" xmlns:xlink="http://www.w3.org/1999/xlink" width="22"
                height="22" viewBox="0 0 22 22">
                <defs>
                    <clipPath id="clip-path">
                        <rect id="사각형_25293" data-name="사각형 25293" width="22" height="22" fill="#fff" />
                    </clipPath>
                </defs>
                <g id="그룹_20974" data-name="그룹 20974" clip-path="url(#clip-path)">
                    <path id="패스_45249" data-name="패스 45249"
                        d="M16.185,0H5.815A5.814,5.814,0,0,0,0,5.815v10.37A5.815,5.815,0,0,0,5.815,22h10.37A5.816,5.816,0,0,0,22,16.185V5.815A5.815,5.815,0,0,0,16.185,0M10.151,11.558a2.824,2.824,0,0,1-3.093,3.05c-2.083,0-3.359-1.363-3.359-3.63,0-2.233,1.276-3.586,3.325-3.586a2.889,2.889,0,0,1,3.065,2.373H8.624A1.574,1.574,0,0,0,7.029,8.6c-1.15,0-1.842.875-1.842,2.359,0,1.513.735,2.436,1.895,2.436a1.507,1.507,0,0,0,1.644-1.45l0-.111H7.213V10.77h2.938Zm2.422,2.929h-1.46V7.512h1.46ZM18.3,8.716H15.193v1.871H18.03v1.155H15.193v2.745h-1.46V7.512H18.3Z"
                        fill="#fff" />
                </g>
            </svg>