<svg xmlns="http://www.w3.org/2000/svg" width="22" height="22" viewBox="0 0 22 22">
                <path id="패스_41038" data-name="패스 41038"
                    d="M11,22A11,11,0,1,0,0,11,11,11,0,0,0,11,22Zm2.582-5.04a3.48,3.48,0,0,0-5.165,0,.688.688,0,0,1-1.023-.92,4.856,4.856,0,0,1,7.21,0,.688.688,0,1,1-1.023.92ZM4.813,8.25h2.75A1.375,1.375,0,1,1,6.188,9.625H4.813a.688.688,0,0,1,0-1.375Zm7.563.688a.69.69,0,0,1,.688-.687h2.75a1.375,1.375,0,1,1-1.375,1.375H13.063A.69.69,0,0,1,12.375,8.938Z"
                    fill="#fff" opacity="0.6" />
            </svg>