<svg id="그룹_24203" data-name="그룹 24203" xmlns="http://www.w3.org/2000/svg" xmlns:xlink="http://www.w3.org/1999/xlink" width="18" height="18" viewBox="0 0 18 18">
  <defs>
    <clipPath id="clip-path">
      <rect id="사각형_28813" data-name="사각형 28813" width="18" height="18" fill="#ffbf00"/>
    </clipPath>
  </defs>
  <g id="그룹_24201" data-name="그룹 24201" clip-path="url(#clip-path)">
    <path id="패스_48134" data-name="패스 48134" d="M9,0a9,9,0,1,0,9,9A9,9,0,0,0,9,0m8.255,9H15.792a6.784,6.784,0,0,0-.232-1.759l1.412-.379A8.239,8.239,0,0,1,17.255,9M14.834,3.164a8.314,8.314,0,0,1,1.311,1.709L14.879,5.6A6.818,6.818,0,0,0,13.8,4.2Zm-3.7-2.138a8.177,8.177,0,0,1,1.989.828l-.729,1.265a6.74,6.74,0,0,0-1.637-.68ZM9,.744V2.208a6.781,6.781,0,0,0-1.758.231L6.864,1.027A8.231,8.231,0,0,1,9,.744M1.854,4.873,3.12,5.6a6.809,6.809,0,0,0-.681,1.637L1.027,6.862a8.21,8.21,0,0,1,.827-1.989M.745,9H2.208a6.781,6.781,0,0,0,.231,1.758l-1.412.378A8.23,8.23,0,0,1,.745,9m2.42,5.834a8.314,8.314,0,0,1-1.311-1.709l1.266-.732A6.8,6.8,0,0,0,4.2,13.8Zm0-11.669A8.281,8.281,0,0,1,4.874,1.855l.731,1.265A6.829,6.829,0,0,0,4.2,4.2Zm3.7,13.807a8.208,8.208,0,0,1-1.989-.826l.731-1.266a6.794,6.794,0,0,0,1.637.681ZM9,17.255V15.791a6.776,6.776,0,0,0,1.758-.231l.38,1.411A8.207,8.207,0,0,1,9,17.255M9,9.337,5.721,11.523a.28.28,0,0,1-.389-.076l0,0a.284.284,0,0,1-.048-.157V6.709a.281.281,0,0,1,.281-.281.285.285,0,0,1,.157.047L9,8.661l3.279-2.186a.281.281,0,0,1,.437.234v4.58a.282.282,0,0,1-.281.282.286.286,0,0,1-.157-.048Zm4.125,6.809-.73-1.266A6.881,6.881,0,0,0,13.8,13.8l1.034,1.034a8.321,8.321,0,0,1-1.709,1.311m3.02-3.02-1.266-.731a6.758,6.758,0,0,0,.681-1.637l1.412.379a8.21,8.21,0,0,1-.827,1.989" fill="#ffbf00"/>
  </g>
</svg>
