<svg id="그룹_22135" data-name="그룹 22135" xmlns="http://www.w3.org/2000/svg" xmlns:xlink="http://www.w3.org/1999/xlink" width="142.937" height="10" viewBox="0 0 142.937 10">
  <defs>
    <clipPath id="clip-path">
      <rect id="사각형_27700" data-name="사각형 27700" width="142.937" height="10" fill="none"/>
    </clipPath>
  </defs>
  <g id="그룹_22134" data-name="그룹 22134" clip-path="url(#clip-path)">
    <path id="패스_46315" data-name="패스 46315" d="M9.948,4.55V5.556a7.587,7.587,0,0,1-.342,2.45,2.793,2.793,0,0,1-1.1,1.477,3.643,3.643,0,0,1-2.014.493H3.455a3.649,3.649,0,0,1-2-.493A2.768,2.768,0,0,1,.347,8,7.548,7.548,0,0,1,0,5.556V4.55A7.762,7.762,0,0,1,.347,2.067,2.932,2.932,0,0,1,1.453.539a3.472,3.472,0,0,1,2-.525H6.494A3.472,3.472,0,0,1,8.508.539a2.962,2.962,0,0,1,1.1,1.528A7.791,7.791,0,0,1,9.948,4.55M3.582,8.894H6.367a2.194,2.194,0,0,0,1.385-.4,2.108,2.108,0,0,0,.716-1.13,6.458,6.458,0,0,0,.207-1.734V4.47A6.887,6.887,0,0,0,8.468,2.7a2.3,2.3,0,0,0-.716-1.2,2.082,2.082,0,0,0-1.385-.43H3.582a2.051,2.051,0,0,0-1.368.43A2.34,2.34,0,0,0,1.49,2.7,6.6,6.6,0,0,0,1.275,4.47V5.632A6.191,6.191,0,0,0,1.49,7.366,2.147,2.147,0,0,0,2.214,8.5a2.163,2.163,0,0,0,1.368.4m2.18-2.8V5.679H7.036V6.3a1.285,1.285,0,0,1-.324.949A1.379,1.379,0,0,1,5.7,7.573H4.267a1.376,1.376,0,0,1-1.019-.326A1.3,1.3,0,0,1,2.93,6.3V3.531a1.327,1.327,0,0,1,.318-.963,1.376,1.376,0,0,1,1.019-.326H5.7a1.378,1.378,0,0,1,1.013.326,1.311,1.311,0,0,1,.324.963v.605H5.762v-.4a.553.553,0,0,0-.079-.366.561.561,0,0,0-.366-.08H4.633a.562.562,0,0,0-.358.08.518.518,0,0,0-.089.366V6.093a.491.491,0,0,0,.089.342.521.521,0,0,0,.358.089h.684a.523.523,0,0,0,.366-.089.521.521,0,0,0,.079-.342m8.1-4.456v1.62H12.43V1.415A1.433,1.433,0,0,1,12.784.372a1.532,1.532,0,0,1,1.13-.358h1.365a1.564,1.564,0,0,1,1.138.358,1.419,1.419,0,0,1,.358,1.043v1a4.463,4.463,0,0,1-.128,1.122A5.008,5.008,0,0,1,16.218,4.6L14.069,8.817h2.769V9.976H12.446V8.862l2.435-4.583a3.588,3.588,0,0,0,.358-.934,4.862,4.862,0,0,0,.088-.978V1.635a.554.554,0,0,0-.088-.374.59.59,0,0,0-.39-.089H14.34a.59.59,0,0,0-.382.089.52.52,0,0,0-.1.376m10.443-.222V8.576a1.416,1.416,0,0,1-.353,1.042,1.534,1.534,0,0,1-1.13.358H21.087a1.558,1.558,0,0,1-1.138-.358A1.416,1.416,0,0,1,19.6,8.576V1.415A1.418,1.418,0,0,1,19.949.372,1.562,1.562,0,0,1,21.087.014h1.735a1.534,1.534,0,0,1,1.122.358,1.416,1.416,0,0,1,.361,1.043M22.854,8.353V1.634a.556.556,0,0,0-.089-.374.589.589,0,0,0-.39-.089h-.859a.562.562,0,0,0-.366.089.521.521,0,0,0-.1.374V8.353a.521.521,0,0,0,.1.366.524.524,0,0,0,.366.1h.859a.545.545,0,0,0,.39-.1.564.564,0,0,0,.089-.366m5.617-6.719V3.257H27.039V1.415A1.432,1.432,0,0,1,27.392.372a1.533,1.533,0,0,1,1.13-.358h1.369a1.562,1.562,0,0,1,1.138.358,1.419,1.419,0,0,1,.358,1.043v1a4.463,4.463,0,0,1-.128,1.122A5.008,5.008,0,0,1,30.83,4.6L28.681,8.817H31.45V9.976h-4.4V8.862l2.434-4.583a3.571,3.571,0,0,0,.354-.931,4.794,4.794,0,0,0,.088-.979V1.637a.551.551,0,0,0-.088-.374.589.589,0,0,0-.39-.088h-.509a.591.591,0,0,0-.382.088.52.52,0,0,0-.091.374Zm5.647,6.353V6.825l5.109.016V8Zm-.572,0V6.809L36.41.014h1.432L34.407,8Zm3.4-3.056,1.385-.015v5.06H36.969Zm9.964-3.325V8.4a.525.525,0,0,0,.095.366.556.556,0,0,0,.382.1h.442v1.13h-.888a1.53,1.53,0,0,1-1.121-.358,1.431,1.431,0,0,1-.354-1.061V1.412A1.411,1.411,0,0,1,45.825.37,1.53,1.53,0,0,1,46.946.012h.987V1.144h-.541a.591.591,0,0,0-.382.088.52.52,0,0,0-.095.374m3.214,4.356H47.885V4.848h2.244ZM48.681,2.926V1.606a.522.522,0,0,0-.1-.374.587.587,0,0,0-.382-.089h-.526V.013h.973a1.531,1.531,0,0,1,1.122.358,1.414,1.414,0,0,1,.353,1.043V2.925Zm0,5.475V5.616h1.448v2.96a1.432,1.432,0,0,1-.354,1.061,1.534,1.534,0,0,1-1.121.358H47.7V8.862h.509a.556.556,0,0,0,.382-.1.524.524,0,0,0,.091-.366m7.845-4.058V1.637a.557.557,0,0,0-.088-.374.589.589,0,0,0-.39-.088H53.407V.013h3.072a1.56,1.56,0,0,1,1.137.358,1.415,1.415,0,0,1,.354,1.043V4.533a1.436,1.436,0,0,1-.354,1.061,1.553,1.553,0,0,1-1.137.353H53.915V4.8h2.132a.552.552,0,0,0,.39-.1.55.55,0,0,0,.089-.359M53.215.014h1.432V9.976H53.215Zm2.006,5.365h1.464l1.8,4.6H56.928Zm9.739,2.29H61.7V6.507H64.96Zm1.258,2.307H64.769L63.274,1.255,61.921,9.976H60.473L62.241.014h2.085ZM71.6,6.984H70.244L68.067.014h1.464L70.916,5.5,72.221.014h1.46Zm-1.4-.8h1.448V9.976H70.2Zm7.338-4.583V8.4a.525.525,0,0,0,.1.366.558.558,0,0,0,.382.1h.442v1.13h-.889a1.531,1.531,0,0,1-1.122-.358,1.435,1.435,0,0,1-.354-1.061V1.412A1.415,1.415,0,0,1,76.442.37,1.531,1.531,0,0,1,77.564.012h.987V1.144h-.542a.588.588,0,0,0-.381.088.521.521,0,0,0-.1.374Zm1.75,1.527V1.606a.554.554,0,0,0-.088-.374.55.55,0,0,0-.374-.089H78.3V.013h.955a1.564,1.564,0,0,1,1.138.358,1.418,1.418,0,0,1,.353,1.043V3.133Zm0,5.268V6.889h1.464V8.576a1.435,1.435,0,0,1-.353,1.061,1.558,1.558,0,0,1-1.144.355H78.3V8.862h.525a.525.525,0,0,0,.374-.1.559.559,0,0,0,.088-.366Zm7.7-1.449V1.637a.557.557,0,0,0-.088-.374.589.589,0,0,0-.39-.088h-.525V.013h.955a1.562,1.562,0,0,1,1.138.358,1.418,1.418,0,0,1,.353,1.043V6.952Zm0,1.4V6.284h1.449V8.576a1.417,1.417,0,0,1-.354,1.042,1.558,1.558,0,0,1-1.144.358h-1.05V8.814H86.5a.545.545,0,0,0,.39-.1.552.552,0,0,0,.091-.366M85.125,1.634V6.97h-1.45V1.415A1.418,1.418,0,0,1,84.028.372,1.562,1.562,0,0,1,85.166.014h.955V1.176H85.6a.589.589,0,0,0-.382.088.516.516,0,0,0-.091.373Zm0,4.535v2.18a.524.524,0,0,0,.1.366.551.551,0,0,0,.382.1H86.1V9.976h-.924a1.556,1.556,0,0,1-1.138-.358,1.412,1.412,0,0,1-.354-1.042v-2.4ZM95.134,3.734V1.606a.523.523,0,0,0-.1-.374.587.587,0,0,0-.382-.089h-2.34V.013H95.1a1.531,1.531,0,0,1,1.122.358,1.419,1.419,0,0,1,.354,1.043V3.737Zm0,4.647V3.372h1.448v5.2a1.416,1.416,0,0,1-.353,1.042,1.531,1.531,0,0,1-1.129.358H92.316V8.846h2.339a.556.556,0,0,0,.382-.095.525.525,0,0,0,.1-.366Zm-3.5-8.37h1.448V9.976H91.633Zm8.116,0H101.2V9.976H99.749Zm3.74,4.249V5.409l-2.944-.016V4.244ZM103.95.011l.016,1.161L100.5,1.156l.016-1.149Zm.126,8.816V9.976H100.5l.016-1.162ZM112.064,1.6V8.4a.52.52,0,0,0,.1.366.551.551,0,0,0,.382.1h.442V9.992h-.89a1.534,1.534,0,0,1-1.122-.358,1.434,1.434,0,0,1-.353-1.061V1.412A1.414,1.414,0,0,1,110.972.37a1.534,1.534,0,0,1,1.122-.358h.987V1.144h-.541a.589.589,0,0,0-.382.088.524.524,0,0,0-.094.374Zm1.751,1.528V1.606a.555.555,0,0,0-.089-.374.549.549,0,0,0-.374-.089h-.525V.013h.955a1.562,1.562,0,0,1,1.138.358,1.414,1.414,0,0,1,.353,1.043V3.133Zm0,5.267V6.885h1.462V8.572a1.435,1.435,0,0,1-.354,1.061,1.556,1.556,0,0,1-1.138.358h-.954V8.862h.525a.525.525,0,0,0,.374-.1.557.557,0,0,0,.085-.366Zm7.7-1.448V1.637a.557.557,0,0,0-.089-.374.585.585,0,0,0-.389-.088h-.526V.013h.955a1.562,1.562,0,0,1,1.138.358,1.419,1.419,0,0,1,.354,1.043V6.952Zm0,1.4V6.281h1.451V8.572a1.41,1.41,0,0,1-.353,1.042,1.554,1.554,0,0,1-1.149.362h-1.051V8.814h.619a.546.546,0,0,0,.39-.1.565.565,0,0,0,.093-.366ZM119.655,1.63V6.97h-1.448V1.415a1.411,1.411,0,0,1,.358-1.043A1.562,1.562,0,0,1,119.7.014h.954V1.176h-.525a.592.592,0,0,0-.382.088.522.522,0,0,0-.1.373Zm0,4.536v2.18a.525.525,0,0,0,.1.366.558.558,0,0,0,.382.1h.494V9.976H119.7a1.558,1.558,0,0,1-1.138-.358,1.41,1.41,0,0,1-.358-1.042v-2.4Zm9.787-1.83V1.63a.556.556,0,0,0-.089-.374.587.587,0,0,0-.39-.088h-2.641V.006h3.071a1.562,1.562,0,0,1,1.138.358,1.414,1.414,0,0,1,.353,1.043V4.526a1.435,1.435,0,0,1-.353,1.061,1.557,1.557,0,0,1-1.138.353h-2.564V4.791h2.133a.549.549,0,0,0,.389-.1.556.556,0,0,0,.091-.352ZM126.132,0h1.432V9.976h-1.432Zm2,5.375H129.6l1.8,4.6h-1.56Zm9.194-.875V1.639a.555.555,0,0,0-.088-.374.589.589,0,0,0-.39-.088h-2.642V.015h3.08a1.555,1.555,0,0,1,1.137.358,1.414,1.414,0,0,1,.354,1.042v3.31a1.412,1.412,0,0,1-.354,1.042,1.555,1.555,0,0,1-1.137.358h-2.564V4.976h2.132a.552.552,0,0,0,.39-.1.591.591,0,0,0,.086-.378ZM134.021.016h1.432v9.96h-1.432Zm7.308,9.96V8.019l1.607.016V9.976Z" fill="#76777d"/>
  </g>
</svg>
