<svg id="그룹_22016" data-name="그룹 22016" xmlns="http://www.w3.org/2000/svg" xmlns:xlink="http://www.w3.org/1999/xlink" width="16" height="16" viewBox="0 0 16 16">
    <defs>
        <clipPath id="clip-path">
            <rect id="사각형_27586" data-name="사각형 27586" width="16" height="16" fill="#fff"/>
        </clipPath>
    </defs>
    <g id="그룹_22016-2" data-name="그룹 22016" clip-path="url(#clip-path)">
        <path id="패스_46173" data-name="패스 46173" d="M15,8A6.992,6.992,0,0,0,6.1,1.27L14.73,9.9A6.611,6.611,0,0,0,15,8" fill="#fff"/>
        <path id="패스_46174" data-name="패스 46174" d="M15.791,14.783l-2.362-2.362h0L3.59,2.58h0L1.217.209A.713.713,0,0,0,.209,1.217L2.581,3.589h0a7.122,7.122,0,0,0-1.3,2.52A7,7,0,0,0,2.6,12.43l.13.16L1.14,14.18a.5.5,0,0,0-.11.52c0,.01.01.02.02.04a.486.486,0,0,0,.44.26H8.01a6.975,6.975,0,0,0,1.9-.26,6.856,6.856,0,0,0,2.51-1.31h0l2.362,2.362a.713.713,0,0,0,1.008-1.008" fill="#fff"/>
    </g>
</svg>
