<svg xmlns="http://www.w3.org/2000/svg" width="1040" height="918" viewBox="0 0 1040 918">
    <g id="사각형_23725" data-name="사각형 23725" fill="#2c2e33" stroke="#35373d" stroke-width="1">
        <rect width="1040" height="918" rx="5" stroke="none"/>
        <rect x="0.5" y="0.5" width="1039" height="917" rx="4.5" fill="none"/>
    </g>
    <path id="합치기_11" data-name="합치기 11" d="M-1777.323,1374.323c-2.236-2.236-2.236-10.412,0-12.647,1.117-1.118,3.721-1.677,6.323-1.677s5.2.558,6.323,1.677c1.1,1.1,1.659,3.638,1.677,6.2v.254c-.018,2.56-.576,5.1-1.676,6.195-1.119,1.117-3.722,1.677-6.324,1.677S-1776.206,1375.44-1777.323,1374.323Zm.91-11.736c-.765.764-1.3,2.99-1.3,5.412s.535,4.648,1.3,5.413,2.991,1.3,5.412,1.3,4.648-.535,5.413-1.3,1.3-2.991,1.3-5.413-.535-4.648-1.3-5.413-2.99-1.3-5.411-1.3S-1775.648,1361.823-1776.413,1362.587ZM-1772,1372v-4.668h2V1372Zm0-6v-2h2v2Z" transform="translate(1819 -498)" fill="#fff" stroke="rgba(0,0,0,0)" stroke-miterlimit="10" stroke-width="1" opacity="0.4"/>
</svg>
