<svg id="그룹_22026" data-name="그룹 22026" xmlns="http://www.w3.org/2000/svg" xmlns:xlink="http://www.w3.org/1999/xlink" width="20" height="20" viewBox="0 0 20 20">
  <defs>
    <clipPath id="clip-path">
      <rect id="사각형_27609" data-name="사각형 27609" width="20" height="20" fill="none"/>
    </clipPath>
  </defs>
  <g id="그룹_22025" data-name="그룹 22025" clip-path="url(#clip-path)">
    <path id="패스_46234" data-name="패스 46234" d="M20,10A10,10,0,1,1,10,0,10,10,0,0,1,20,10" fill="#fff"/>
    <path id="패스_46235" data-name="패스 46235" d="M7.342,10.381A1.9,1.9,0,0,0,10,10a1.9,1.9,0,0,1,3.042,2.279A3.8,3.8,0,0,0,6.96,7.721a1.9,1.9,0,0,0,.382,2.66" fill="#e60012"/>
    <path id="패스_46236" data-name="패스 46236" d="M12.661,9.618A1.9,1.9,0,0,0,10,10,1.9,1.9,0,1,1,6.96,7.721a3.8,3.8,0,1,0,6.083,4.557,1.9,1.9,0,0,0-.382-2.66" fill="#0b318f"/>
    <rect id="사각형_27591" data-name="사각형 27591" width="0.633" height="3.8" transform="translate(3.676 11.928) rotate(-33.657)" fill="#231815"/>
    <rect id="사각형_27592" data-name="사각형 27592" width="0.634" height="3.8" transform="translate(2.095 12.981) rotate(-33.657)" fill="#231815"/>
    <rect id="사각형_27593" data-name="사각형 27593" width="0.633" height="1.742" transform="translate(2.885 12.455) rotate(-33.665)"/>
    <rect id="사각형_27594" data-name="사각형 27594" width="0.633" height="1.742" transform="matrix(0.832, -0.554, 0.554, 0.832, 4.027, 14.168)"/>
    <rect id="사각형_27595" data-name="사각형 27595" width="0.633" height="3.8" transform="translate(14.483 4.733) rotate(-33.657)" fill="#231815"/>
    <rect id="사각형_27596" data-name="사각형 27596" width="0.634" height="1.742" transform="matrix(0.833, -0.554, 0.554, 0.833, 15.274, 4.206)"/>
    <rect id="사각형_27597" data-name="사각형 27597" width="0.633" height="1.742" transform="translate(16.415 5.92) rotate(-33.665)"/>
    <rect id="사각형_27598" data-name="사각형 27598" width="0.633" height="1.742" transform="translate(13.693 5.259) rotate(-33.665)"/>
    <rect id="사각형_27599" data-name="사각형 27599" width="0.633" height="1.742" transform="matrix(0.833, -0.554, 0.554, 0.833, 14.834, 6.972)"/>
    <rect id="사각형_27600" data-name="사각형 27600" width="3.8" height="0.633" transform="translate(2.092 7.028) rotate(-56.41)" fill="#231815"/>
    <rect id="사각형_27601" data-name="사각형 27601" width="3.8" height="0.634" transform="translate(2.883 7.553) rotate(-56.41)" fill="#231815"/>
    <rect id="사각형_27602" data-name="사각형 27602" width="3.8" height="0.633" transform="matrix(0.553, -0.833, 0.833, 0.553, 3.674, 8.079)" fill="#231815"/>
    <rect id="사각형_27603" data-name="사각형 27603" width="1.741" height="0.633" transform="matrix(0.553, -0.834, 0.834, 0.553, 14.493, 15.258)"/>
    <rect id="사각형_27604" data-name="사각형 27604" width="1.742" height="0.633" transform="matrix(0.553, -0.833, 0.833, 0.553, 15.631, 13.543)"/>
    <rect id="사각형_27605" data-name="사각형 27605" width="1.741" height="0.634" transform="matrix(0.553, -0.834, 0.834, 0.553, 13.696, 14.74)"/>
    <rect id="사각형_27606" data-name="사각형 27606" width="1.742" height="0.633" transform="matrix(0.553, -0.833, 0.833, 0.553, 14.835, 13.025)"/>
    <rect id="사각형_27607" data-name="사각형 27607" width="1.741" height="0.633" transform="matrix(0.553, -0.833, 0.833, 0.553, 15.278, 15.791)"/>
    <rect id="사각형_27608" data-name="사각형 27608" width="1.741" height="0.633" transform="matrix(0.553, -0.834, 0.834, 0.553, 16.418, 14.077)"/>
  </g>
</svg>
