<svg id="그룹_22022" data-name="그룹 22022" xmlns="http://www.w3.org/2000/svg" xmlns:xlink="http://www.w3.org/1999/xlink" width="20" height="20" viewBox="0 0 20 20">
  <defs>
    <clipPath id="clip-path">
      <rect id="사각형_27589" data-name="사각형 27589" width="20" height="20" fill="none"/>
    </clipPath>
  </defs>
  <g id="그룹_22021" data-name="그룹 22021" clip-path="url(#clip-path)">
    <path id="패스_46226" data-name="패스 46226" d="M20,10A10,10,0,1,1,10,0,10,10,0,0,1,20,10" fill="#de2910"/>
    <path id="패스_46227" data-name="패스 46227" d="M4.857,4.633l.682,2.052H7.7L5.954,7.962l.666,2.092L4.857,8.777,3.094,10.054,3.76,7.97,2,6.685H4.175Z" fill="#ffde00"/>
    <path id="패스_46228" data-name="패스 46228" d="M10.266,3.681,10.2,4.4l.665.288-.707.16-.074.733-.372-.628L9,5.115l.483-.553-.371-.63.67.291Z" fill="#ffde00"/>
    <path id="패스_46229" data-name="패스 46229" d="M12.619,5.923l-.342.639.5.526-.713-.13-.355.645-.1-.724-.717-.133.66-.319L11.46,5.7l.5.53Z" fill="#ffde00"/>
    <path id="패스_46230" data-name="패스 46230" d="M10.921,9.361l.724-.03.2-.7.25.681.736-.021-.575.449.249.687-.61-.408-.577.449.2-.7Z" fill="#ffde00"/>
    <path id="패스_46231" data-name="패스 46231" d="M10.886,11.689l-.7.193-.036.724L9.753,12l-.712.187L9.5,11.62l-.4-.612.686.258.46-.568-.037.729Z" fill="#ffde00"/>
  </g>
</svg>
