<svg id="그룹_22020" data-name="그룹 22020" xmlns="http://www.w3.org/2000/svg" xmlns:xlink="http://www.w3.org/1999/xlink" width="20" height="20" viewBox="0 0 20 20">
  <defs>
    <clipPath id="clip-path">
      <rect id="사각형_27588" data-name="사각형 27588" width="20" height="20" fill="none"/>
    </clipPath>
  </defs>
  <path id="패스_46177" data-name="패스 46177" d="M8.48,6.147h0Z" transform="translate(2.12 1.537)" fill="#fff"/>
  <g id="그룹_22019" data-name="그룹 22019">
    <g id="그룹_22018" data-name="그룹 22018" clip-path="url(#clip-path)">
      <path id="패스_46178" data-name="패스 46178" d="M8.48,8.927h9.371q.028-.383.029-.773t-.029-.773H8.48V8.927Z" transform="translate(2.12 1.845)" fill="#bf0a30"/>
      <path id="패스_46179" data-name="패스 46179" d="M8.48,7.691h9.371a9.825,9.825,0,0,0-.241-1.545H8.48Z" transform="translate(2.12 1.536)" fill="#fff"/>
      <path id="패스_46180" data-name="패스 46180" d="M8.48,4.911V6.456h9.13a9.961,9.961,0,0,0-.5-1.545Z" transform="translate(2.12 1.228)" fill="#bf0a30"/>
      <path id="패스_46181" data-name="패스 46181" d="M8.48,5.22h8.628A9.989,9.989,0,0,0,16.3,3.675H8.48Z" transform="translate(2.12 0.919)" fill="#fff"/>
      <path id="패스_46182" data-name="패스 46182" d="M8.48,3.984H16.3A10.1,10.1,0,0,0,15.07,2.439H8.48Z" transform="translate(2.12 0.61)" fill="#bf0a30"/>
      <path id="패스_46183" data-name="패스 46183" d="M8.48,2.748h6.59A10.079,10.079,0,0,0,13.159,1.2H8.48Z" transform="translate(2.12 0.301)" fill="#fff"/>
      <path id="패스_46184" data-name="패스 46184" d="M13.158,1.5A9.937,9.937,0,0,0,8.479.015V1.5Z" transform="translate(2.12 0.004)" fill="#bf0a30"/>
      <path id="패스_46185" data-name="패스 46185" d="M9.056,16.3A9.95,9.95,0,0,0,14.333,14.8H3.778A9.95,9.95,0,0,0,9.056,16.3" transform="translate(0.944 3.699)" fill="#bf0a30"/>
      <path id="패스_46186" data-name="패스 46186" d="M4.16,15.1H14.715a9.992,9.992,0,0,0,1.911-1.545H2.249A9.992,9.992,0,0,0,4.16,15.1" transform="translate(0.562 3.39)" fill="#fff"/>
      <path id="패스_46187" data-name="패스 46187" d="M2.494,13.87H16.873A10.1,10.1,0,0,0,18.1,12.325H1.269A10.1,10.1,0,0,0,2.494,13.87" transform="translate(0.317 3.081)" fill="#bf0a30"/>
      <path id="패스_46188" data-name="패스 46188" d="M1.432,12.634H18.259a9.833,9.833,0,0,0,.814-1.545H.619a9.932,9.932,0,0,0,.813,1.545" transform="translate(0.155 2.772)" fill="#fff"/>
      <path id="패스_46189" data-name="패스 46189" d="M.718,11.4H19.172a9.964,9.964,0,0,0,.5-1.545H.216a9.961,9.961,0,0,0,.5,1.545" transform="translate(0.054 2.463)" fill="#bf0a30"/>
      <path id="패스_46190" data-name="패스 46190" d="M10.594,8.618H.024a9.971,9.971,0,0,0,.24,1.545h19.46a9.824,9.824,0,0,0,.241-1.545Z" transform="translate(0.006 2.155)" fill="#fff"/>
      <path id="패스_46191" data-name="패스 46191" d="M6.813.52,6.92.836h.433l-.345.271.129.42-.36-.251-.37.251.144-.42L6.182.836h.456l.094-.29A10,10,0,0,0,3.325,2.555l.016.053L3.3,2.578a10.078,10.078,0,0,0-2.059,2.6h.339l.138-.421.145.421h.431l-.345.271.13.42-.361-.251-.37.251.144-.42-.284-.21a10.27,10.27,0,0,0-.481,1.02h.3L.68,6.526l.129.42L.538,6.758A9.962,9.962,0,0,0,.124,8.424H.311L.449,8l.144.422h.432L.68,8.695l.129.42-.36-.251-.37.251.144-.42L.1,8.6A10.1,10.1,0,0,0,0,10q0,.381.029.754H10.6V.019Q10.3,0,10,0A9.964,9.964,0,0,0,6.813.52M2.077,10.2,1.716,9.95l-.37.251.144-.42-.368-.273h.456l.138-.421.145.421h.431l-.345.273Zm-.13-2.586.13.42-.361-.251-.37.251.144-.42-.368-.271h.456l.138-.422.145.422h.431Zm1.394,1.5L2.98,8.864l-.37.251.144-.42-.368-.271h.456L2.98,8l.145.422h.431l-.345.271Zm-.13-2.589.13.42L2.98,6.695l-.37.251.144-.42-.368-.271h.456l.138-.421.145.421h.431Zm0-2.16.13.42L2.98,4.535l-.37.251.144-.42L2.386,4.1h.456l.138-.423.145.423h.431ZM4.606,10.2,4.245,9.95l-.37.251.144-.42-.367-.273h.456l.137-.421.145.421h.432l-.346.273Zm-.13-2.586.13.42-.361-.251-.37.251.144-.42-.367-.271h.456l.137-.422.145.422h.432Zm0-2.17.13.42-.361-.251-.37.251.144-.42-.367-.271h.456l.137-.421.145.421h.432Zm0-2.166.13.42-.361-.251-.37.251.144-.42-.367-.273h.456l.137-.421.145.421h.432ZM5.87,9.115l-.36-.251-.37.251.144-.42-.368-.271h.456L5.51,8l.145.422h.431l-.345.271ZM5.741,6.526l.129.42-.36-.251-.37.251.144-.42-.368-.271h.456l.138-.421.145.421h.431Zm0-2.16.129.42-.36-.251-.37.251.144-.42L4.916,4.1h.456l.138-.423.145.423h.431Zm0-2.179.129.42-.36-.251-.37.251.144-.42-.368-.271h.456l.138-.422.145.422h.431ZM7.136,10.2l-.36-.251-.37.251.144-.42-.367-.273h.456l.137-.421.144.421h.433l-.345.273ZM7.007,7.615l.129.42-.36-.251-.37.251.144-.42-.367-.271h.456l.137-.422.144.422h.433Zm0-2.17.129.42-.36-.251-.37.251.144-.42-.367-.271h.456l.137-.421.144.421h.433Zm0-2.166.129.42-.36-.251-.37.251.144-.42-.367-.273h.456l.137-.421.144.421h.433ZM8.4,9.115l-.36-.251-.37.251.144-.42-.367-.271H7.9L8.041,8l.144.422h.433l-.345.271ZM8.273,6.526l.129.42-.36-.251-.37.251.144-.42-.367-.271H7.9l.138-.421.144.421h.433Zm0-2.16.129.42-.36-.251-.37.251.144-.42L7.448,4.1H7.9l.138-.423.144.423h.433Zm0-2.179.129.42-.36-.251-.37.251.144-.42-.367-.271H7.9l.138-.422.144.422h.433ZM9.666,10.2l-.36-.251-.37.251.144-.42-.368-.273h.456l.138-.421.144.421h.432l-.345.273ZM9.538,7.615l.129.42-.36-.251-.37.251.144-.42-.368-.271h.456l.138-.422.144.422h.432Zm0-2.17.129.42-.36-.251-.37.251.144-.42-.368-.271h.456l.138-.421.144.421h.432Zm0-2.166.129.42-.36-.251-.37.251.144-.42-.368-.273h.456l.138-.421.144.421h.432Zm0-2.171.129.42-.36-.251-.37.251.144-.42L8.712.836h.456L9.306.414,9.45.836h.432Z" fill="#002868"/>
      <path id="패스_46192" data-name="패스 46192" d="M10.594,8.6H.023v.02h10.57Z" transform="translate(0.006 2.151)" fill="#002868"/>
      <path id="패스_46193" data-name="패스 46193" d="M10.594,8.618h0Z" transform="translate(0.006 2.155)" fill="#002868"/>
      <path id="패스_46194" data-name="패스 46194" d="M5.43.331,5.386.463l.08-.027Z" transform="translate(1.347 0.083)" fill="#fff"/>
      <path id="패스_46195" data-name="패스 46195" d="M4.946.731,5.313,1l-.144.42.37-.251.36.251L5.771,1,6.116.731H5.683L5.576.415,5.5.442,5.4.731Z" transform="translate(1.237 0.104)" fill="#fff"/>
      <path id="패스_46196" data-name="패스 46196" d="M7.564.331,7.426.752H6.97l.368.272-.144.42.37-.251.36.251-.129-.42L8.14.752H7.707Z" transform="translate(1.742 0.083)" fill="#fff"/>
      <path id="패스_46197" data-name="패스 46197" d="M6.551,1.195l-.138.421H5.958l.368.272-.144.42.37-.251.36.251-.129-.42.345-.272H6.7Z" transform="translate(1.489 0.299)" fill="#fff"/>
      <path id="패스_46198" data-name="패스 46198" d="M4.527,1.195l-.138.421H3.933l.367.272-.144.42.37-.251.36.251-.129-.42L5.1,1.616H4.67Z" transform="translate(0.983 0.299)" fill="#fff"/>
      <path id="패스_46199" data-name="패스 46199" d="M2.664,2.044l-.026.023.043.03Z" transform="translate(0.66 0.511)" fill="#fff"/>
      <path id="패스_46200" data-name="패스 46200" d="M3.515,2.068l-.138.421H2.921l.368.272-.144.42.37-.251.36.251-.129-.42.345-.272H3.658Z" transform="translate(0.73 0.517)" fill="#fff"/>
      <path id="패스_46201" data-name="패스 46201" d="M5.539,2.068,5.4,2.489H4.946l.368.272-.144.42.37-.251.36.251-.129-.42.345-.272H5.683Z" transform="translate(1.236 0.517)" fill="#fff"/>
      <path id="패스_46202" data-name="패스 46202" d="M7.564,2.068l-.137.421H6.97l.368.272-.144.42.37-.251.36.251-.129-.42.345-.272H7.707Z" transform="translate(1.742 0.517)" fill="#fff"/>
      <path id="패스_46203" data-name="패스 46203" d="M6.551,2.938l-.138.421H5.958l.368.272-.144.42.37-.251.36.251-.129-.42.345-.272H6.7Z" transform="translate(1.489 0.734)" fill="#fff"/>
      <path id="패스_46204" data-name="패스 46204" d="M4.527,2.938l-.138.421H3.933l.367.272-.144.42.37-.251.36.251-.129-.42L5.1,3.359H4.67Z" transform="translate(0.983 0.734)" fill="#fff"/>
      <path id="패스_46205" data-name="패스 46205" d="M2.5,2.938l-.138.421H1.909l.367.272-.144.42L2.5,3.8l.36.251-.129-.42.345-.272H2.646Z" transform="translate(0.477 0.734)" fill="#fff"/>
      <path id="패스_46206" data-name="패스 46206" d="M1.105,4.915l.37-.251.36.251-.129-.42.345-.271H1.619L1.475,3.8l-.138.422H1l-.034.061.284.21Z" transform="translate(0.241 0.95)" fill="#fff"/>
      <path id="패스_46207" data-name="패스 46207" d="M3.515,3.8l-.137.421H2.921l.368.272-.144.42.37-.251.36.251L3.746,4.5l.345-.272H3.659Z" transform="translate(0.73 0.95)" fill="#fff"/>
      <path id="패스_46208" data-name="패스 46208" d="M5.539,3.8,5.4,4.223H4.946l.368.272-.144.42.37-.251.36.251L5.771,4.5l.345-.272H5.683Z" transform="translate(1.236 0.95)" fill="#fff"/>
      <path id="패스_46209" data-name="패스 46209" d="M7.564,3.8l-.137.421H6.97l.368.272-.144.42.37-.251.36.251L7.795,4.5l.345-.272H7.707Z" transform="translate(1.742 0.95)" fill="#fff"/>
      <path id="패스_46210" data-name="패스 46210" d="M6.551,4.666l-.138.421H5.958l.368.272-.144.42.37-.251.36.251-.129-.42.345-.272H6.7Z" transform="translate(1.489 1.167)" fill="#fff"/>
      <path id="패스_46211" data-name="패스 46211" d="M4.527,4.666l-.138.421H3.933L4.3,5.36l-.144.42.37-.251.36.251-.129-.42L5.1,5.087H4.67Z" transform="translate(0.983 1.167)" fill="#fff"/>
      <path id="패스_46212" data-name="패스 46212" d="M2.5,4.666l-.138.421H1.909l.367.272-.144.42.37-.251.36.251-.129-.42.345-.272H2.646Z" transform="translate(0.477 1.167)" fill="#fff"/>
      <path id="패스_46213" data-name="패스 46213" d="M.572,5.275.916,5h-.3c-.069.165-.13.332-.187.5L.7,5.7Z" transform="translate(0.108 1.251)" fill="#fff"/>
      <path id="패스_46214" data-name="패스 46214" d="M1.492,5.537l-.138.421H.9l.368.272-.144.42.37-.251.36.251-.129-.42.345-.272H1.635Z" transform="translate(0.225 1.384)" fill="#fff"/>
      <path id="패스_46215" data-name="패스 46215" d="M3.515,5.537l-.138.421H2.921l.368.272-.144.42.37-.251.36.251-.129-.42.345-.272H3.658Z" transform="translate(0.73 1.384)" fill="#fff"/>
      <path id="패스_46216" data-name="패스 46216" d="M5.539,5.537,5.4,5.958H4.946l.368.272-.144.42.37-.251.36.251-.129-.42.345-.272H5.683Z" transform="translate(1.236 1.384)" fill="#fff"/>
      <path id="패스_46217" data-name="패스 46217" d="M7.564,5.537l-.137.421H6.97l.368.272-.144.42.37-.251.36.251-.129-.42.345-.272H7.707Z" transform="translate(1.742 1.384)" fill="#fff"/>
      <path id="패스_46218" data-name="패스 46218" d="M6.7,6.823,6.552,6.4l-.139.421H5.958l.368.271-.144.42.37-.251.36.251-.129-.42.345-.271Z" transform="translate(1.489 1.6)" fill="#fff"/>
      <path id="패스_46219" data-name="패스 46219" d="M4.671,6.823,4.527,6.4l-.139.421H3.933l.368.271-.144.42.37-.251.36.251-.129-.42L5.1,6.823Z" transform="translate(0.983 1.6)" fill="#fff"/>
      <path id="패스_46220" data-name="패스 46220" d="M2.647,6.823,2.5,6.4l-.139.421H1.909l.368.271-.144.42.37-.251.36.251-.129-.42.345-.271Z" transform="translate(0.477 1.6)" fill="#fff"/>
      <path id="패스_46221" data-name="패스 46221" d="M.063,7.514l.37-.251.359.251-.127-.42.345-.271H.577L.433,6.4.3,6.822H.109C.1,6.881.089,6.941.08,7l.125.093Z" transform="translate(0.016 1.6)" fill="#fff"/>
      <path id="패스_46222" data-name="패스 46222" d="M1.636,7.691,1.492,7.27l-.139.421H.9l.367.271-.144.42.37-.251.36.251-.129-.42.345-.271Z" transform="translate(0.225 1.818)" fill="#fff"/>
      <path id="패스_46223" data-name="패스 46223" d="M3.659,7.691,3.515,7.27l-.139.421H2.921l.368.271-.144.42.37-.251.36.251-.129-.42.345-.271Z" transform="translate(0.73 1.818)" fill="#fff"/>
      <path id="패스_46224" data-name="패스 46224" d="M5.683,7.691,5.54,7.27,5.4,7.691H4.946l.368.271-.144.42.37-.251.36.251-.129-.42.345-.271Z" transform="translate(1.236 1.818)" fill="#fff"/>
      <path id="패스_46225" data-name="패스 46225" d="M7.708,7.691,7.564,7.27l-.139.421H6.97l.368.271-.144.42.37-.251.36.251L7.8,7.963l.345-.271Z" transform="translate(1.743 1.818)" fill="#fff"/>
    </g>
  </g>
</svg>
