<svg xmlns="http://www.w3.org/2000/svg" xmlns:xlink="http://www.w3.org/1999/xlink" width="18" height="18" viewBox="0 0 18 18">
  <defs>
    <clipPath id="clip-path">
      <rect id="사각형_26314" data-name="사각형 26314" width="18" height="18" fill="#ffbf00"/>
    </clipPath>
  </defs>
  <g id="그룹_21853" data-name="그룹 21853" clip-path="url(#clip-path)">
    <path id="패스_46096" data-name="패스 46096" d="M9,0a9,9,0,1,0,9,9A9,9,0,0,0,9,0m3.785,7.559H10.417V7.343C10.417,6.222,9.86,6.02,9,6.02s-1.414.2-1.414,1.323v3.315c0,1.121.55,1.323,1.414,1.323s1.42-.2,1.42-1.323v-.7H9V8.047h3.788v2.611C12.785,13,11.5,14,9,14s-3.782-1-3.782-3.342V7.343C5.215,5,6.5,4,9,4s3.788,1,3.788,3.343Z" fill="#ffbf00"/>
  </g>
</svg>
