<svg xmlns="http://www.w3.org/2000/svg" xmlns:xlink="http://www.w3.org/1999/xlink" width="36" height="36" viewBox="0 0 36 36">
  <defs>
    <linearGradient id="linear-gradient" x1="0.5" x2="0.5" y2="1" gradientUnits="objectBoundingBox">
      <stop offset="0" stop-color="#fadb4f"/>
      <stop offset="1" stop-color="#d19a12"/>
    </linearGradient>
    <linearGradient id="linear-gradient-2" x1="0.5" x2="0.5" y2="1" gradientUnits="objectBoundingBox">
      <stop offset="0" stop-color="#fff"/>
      <stop offset="1" stop-color="#f9da4e"/>
    </linearGradient>
    <filter id="패스_46158" x="10.353" y="5" width="13.294" height="26" filterUnits="userSpaceOnUse">
      <feOffset input="SourceAlpha"/>
      <feGaussianBlur stdDeviation="1" result="blur"/>
      <feFlood flood-color="#d19a12"/>
      <feComposite operator="in" in2="blur"/>
      <feComposite in="SourceGraphic"/>
    </filter>
  </defs>
  <g id="그룹_21973" data-name="그룹 21973" transform="translate(-282 -251)">
    <g id="타원_2191" data-name="타원 2191" transform="translate(282 251)" stroke="rgba(255,255,255,0.2)" stroke-width="2" fill="url(#linear-gradient)">
      <circle cx="18" cy="18" r="18" stroke="none"/>
      <circle cx="18" cy="18" r="17" fill="none"/>
    </g>
    <g transform="matrix(1, 0, 0, 1, 282, 251)" filter="url(#패스_46158)">
      <path id="패스_46158-2" data-name="패스 46158" d="M2.852,4.942H2.8L.323,6.677C.177,6.794,0,6.736,0,6.471V2.53a.524.524,0,0,1,.235-.441L2.823.178A.674.674,0,0,1,3.3,0H7a.278.278,0,0,1,.294.295V19.706A.277.277,0,0,1,7,20H3.147a.279.279,0,0,1-.3-.294Z" transform="translate(13.35 8)" fill="url(#linear-gradient-2)"/>
    </g>
  </g>
</svg>
