<svg id="그룹_22126" data-name="그룹 22126" xmlns="http://www.w3.org/2000/svg" xmlns:xlink="http://www.w3.org/1999/xlink" width="124.313" height="22" viewBox="0 0 124.313 22">
  <defs>
    <clipPath id="clip-path">
      <rect id="사각형_27696" data-name="사각형 27696" width="124.313" height="22" fill="#76777d"/>
    </clipPath>
  </defs>
  <g id="그룹_22125" data-name="그룹 22125" clip-path="url(#clip-path)">
    <path id="패스_46303" data-name="패스 46303" d="M3.193,3.509V18.491A1.148,1.148,0,0,0,3.4,19.3a1.215,1.215,0,0,0,.842.211h.982V22H3.263A3.372,3.372,0,0,1,.79,21.21,3.159,3.159,0,0,1,0,18.877V3.088A3.111,3.111,0,0,1,.79.79,3.372,3.372,0,0,1,3.263,0H5.439V2.491H4.246a1.3,1.3,0,0,0-.842.193,1.145,1.145,0,0,0-.211.825M7.088,6.421V3.509a1.145,1.145,0,0,0-.211-.825,1.3,1.3,0,0,0-.842-.193H4.877V0H7.018A3.374,3.374,0,0,1,9.491.79a3.111,3.111,0,0,1,.79,2.3V6.421Zm0,12.07v-6.14h3.193v6.526a3.159,3.159,0,0,1-.79,2.333A3.374,3.374,0,0,1,7.018,22H4.912V19.509H6.035a1.215,1.215,0,0,0,.842-.211,1.148,1.148,0,0,0,.211-.807m3.193-5.368H5.334V10.667h4.947Z" fill="#76777d"/>
    <path id="패스_46304" data-name="패스 46304" d="M16.385,0h3.158V21.965H16.385Zm7.3,9.544V3.58a1.22,1.22,0,0,0-.193-.825,1.291,1.291,0,0,0-.859-.193H16.806V0h6.772a3.432,3.432,0,0,1,2.509.79,3.115,3.115,0,0,1,.789,2.3V9.965a3.167,3.167,0,0,1-.789,2.334,3.436,3.436,0,0,1-2.509.789H17.929V10.561h4.7a1.209,1.209,0,0,0,.859-.21,1.226,1.226,0,0,0,.193-.807m-2.877,2.281h3.228L28,21.965H24.56Z" fill="#76777d"/>
    <path id="패스_46305" data-name="패스 46305" d="M44.35,21.965H41.157l-3.3-19.228L34.876,21.965H31.683L35.578,0h4.6Zm-2.772-5.088H34.385V14.316h7.193Z" fill="#76777d"/>
    <path id="패스_46306" data-name="패스 46306" d="M55.508,15.368H52.525L47.718,0h3.228L54,12.1,56.876,0H60.1ZM52.42,13.614h3.193v8.351H52.42Z" fill="#76777d"/>
    <path id="패스_46307" data-name="패스 46307" d="M67.893,3.509V18.491a1.153,1.153,0,0,0,.211.807,1.215,1.215,0,0,0,.842.21h.982V22H67.964a3.375,3.375,0,0,1-2.474-.79,3.165,3.165,0,0,1-.79-2.333V3.087a3.117,3.117,0,0,1,.79-2.3A3.379,3.379,0,0,1,67.964,0h2.175V2.491H68.946a1.3,1.3,0,0,0-.842.193,1.148,1.148,0,0,0-.211.825m3.86,3.368V3.509a1.226,1.226,0,0,0-.193-.825,1.226,1.226,0,0,0-.824-.193H69.578V0h2.1a3.436,3.436,0,0,1,2.509.789,3.116,3.116,0,0,1,.789,2.3v3.79Zm0,11.614V15.158h3.228v3.719a3.165,3.165,0,0,1-.789,2.333,3.432,3.432,0,0,1-2.509.79h-2.1V19.508h1.158a1.144,1.144,0,0,0,.824-.21,1.232,1.232,0,0,0,.193-.807" fill="#76777d"/>
    <path id="패스_46308" data-name="패스 46308" d="M83.928,3.579V15.333H80.735V3.087a3.116,3.116,0,0,1,.789-2.3A3.436,3.436,0,0,1,84.033,0h2.105V2.561H84.981a1.308,1.308,0,0,0-.843.193,1.15,1.15,0,0,0-.21.825m0,10v4.807a1.151,1.151,0,0,0,.21.806,1.218,1.218,0,0,0,.843.211h1.087v2.561H84.033a3.436,3.436,0,0,1-2.509-.789,3.113,3.113,0,0,1-.789-2.3v-5.3Zm4.1,4.807V13.824h3.193v5.053a3.113,3.113,0,0,1-.789,2.3,3.436,3.436,0,0,1-2.509.789H85.612V19.4h1.369a1.208,1.208,0,0,0,.859-.211,1.228,1.228,0,0,0,.193-.806m0-3.088V3.579a1.228,1.228,0,0,0-.193-.825,1.3,1.3,0,0,0-.859-.193H85.823V0h2.105a3.436,3.436,0,0,1,2.509.789,3.116,3.116,0,0,1,.789,2.3V15.3Z" fill="#76777d"/>
    <path id="패스_46309" data-name="패스 46309" d="M97.577,0h3.193V21.965H97.577ZM105.3,8.211v-4.7a1.145,1.145,0,0,0-.211-.825,1.3,1.3,0,0,0-.842-.193H99.085V0h6.141A3.376,3.376,0,0,1,107.7.79a3.115,3.115,0,0,1,.789,2.3V8.211Zm0,10.245V7.4h3.193V18.877a3.113,3.113,0,0,1-.789,2.3,3.376,3.376,0,0,1-2.474.79H99.085V19.473h5.158a1.215,1.215,0,0,0,.842-.21,1.148,1.148,0,0,0,.211-.807" fill="#76777d"/>
    <path id="패스_46310" data-name="패스 46310" d="M114.769,0h3.193V21.965h-3.193Zm9.3,2.561h-7.614V0h7.614Zm.246,19.4h-7.86V19.4h7.86Zm-1.3-10.07h-6.491V9.334h6.491Z" fill="#76777d"/>
  </g>
</svg>
