<svg xmlns="http://www.w3.org/2000/svg" width="20" height="20"
                    viewBox="0 0 20 20">
                    <path id="패스_45169" data-name="패스 45169"
                        d="M8.4,18.605A12.353,12.353,0,0,1,5.555,13.75H2.094A8.768,8.768,0,0,0,8.4,18.605ZM8.5,16.789A10.816,10.816,0,0,0,10,18.414a11.229,11.229,0,0,0,1.5-1.625,11,11,0,0,0,1.629-3.035H6.867A11,11,0,0,0,8.5,16.789ZM6.25,10a11.6,11.6,0,0,0,.266,2.5h6.969a11.9,11.9,0,0,0,0-5H6.516A11.6,11.6,0,0,0,6.25,10ZM5.238,7.5H1.613A8.813,8.813,0,0,0,1.25,10a8.676,8.676,0,0,0,.363,2.5H5.238a13.234,13.234,0,0,1,0-5ZM6.867,6.25h6.266A11,11,0,0,0,11.5,3.215,10.816,10.816,0,0,0,10,1.59,11.229,11.229,0,0,0,8.5,3.215,11,11,0,0,0,6.867,6.25ZM14.762,7.5a13.234,13.234,0,0,1,0,5h3.625A8.813,8.813,0,0,0,18.75,10a8.676,8.676,0,0,0-.363-2.5H14.762ZM17.91,6.25A8.768,8.768,0,0,0,11.6,1.395,12.353,12.353,0,0,1,14.449,6.25Zm-12.355,0A12.429,12.429,0,0,1,8.4,1.395,8.761,8.761,0,0,0,2.094,6.25H5.555ZM11.6,18.605a8.752,8.752,0,0,0,6.309-4.855H14.445A12.429,12.429,0,0,1,11.6,18.605ZM10,20A10,10,0,1,1,20,10,10,10,0,0,1,10,20Z"
                        fill="#fff" opacity="0.6" />
                </svg>