<svg id="그룹_24268" data-name="그룹 24268" xmlns="http://www.w3.org/2000/svg"
                    xmlns:xlink="http://www.w3.org/1999/xlink" width="24" height="24" viewBox="0 0 24 24">
                    <defs>
                        <clipPath id="clip-path">
                            <rect id="사각형_28865" data-name="사각형 28865" width="24" height="24" fill="#fff" />
                        </clipPath>
                    </defs>
                    <g id="그룹_24267" data-name="그룹 24267" clip-path="url(#clip-path)">
                        <path id="패스_48160" data-name="패스 48160"
                            d="M13.394.385,4.566,9.213a.653.653,0,0,0-.193.464v1.2h-1.2a.666.666,0,0,0-.465.193L.384,13.394a1.317,1.317,0,0,0,0,1.859l8.364,8.363a1.315,1.315,0,0,0,1.858,0l2.323-2.323a.657.657,0,0,0,.193-.465v-1.2h1.2a.658.658,0,0,0,.466-.193l8.828-8.828a1.316,1.316,0,0,0,0-1.858L15.252.385a1.315,1.315,0,0,0-1.858,0m-.929,17.656-.93.929-.929-.929.929-.93Zm-1.859-1.859-.929.929-.929-.929.929-.929ZM8.748,14.323l-.93.93-.929-.93.929-.929ZM6.889,12.465l-.929.929-.929-.929.929-.929Z"
                            fill="#fff" />
                    </g>
                </svg>