<svg xmlns="http://www.w3.org/2000/svg" width="20" height="20"
                    viewBox="0 0 20 20">
                    <path id="패스_45934" data-name="패스 45934"
                        d="M1.875,4.168V2.188A.938.938,0,0,0,0,2.188V6.563A.935.935,0,0,0,.938,7.5H5.313a.938.938,0,0,0,0-1.875H3.152A8.126,8.126,0,1,1,5.52,16.777.938.938,0,0,0,4.48,18.34,10,10,0,1,0,1.875,4.168ZM10,5a.935.935,0,0,0-.937.938V10a.937.937,0,0,0,.273.664l2.813,2.813a.936.936,0,0,0,1.324-1.324L10.934,9.613V5.938A.935.935,0,0,0,10,5Z"
                        fill="#fff" opacity="0.6" />
                </svg>