<svg id="그룹_21303" data-name="그룹 21303"
                    xmlns="http://www.w3.org/2000/svg" xmlns:xlink="http://www.w3.org/1999/xlink" width="20.013"
                    height="20" viewBox="0 0 20.013 20">
                    <defs>
                        <clipPath id="clip-path">
                            <rect id="사각형_25263" data-name="사각형 25263" width="20.013" height="20" fill="#fff" />
                        </clipPath>
                    </defs>
                    <g id="그룹_20955" data-name="그룹 20955" clip-path="url(#clip-path)">
                        <path id="패스_45217" data-name="패스 45217"
                            d="M19.823,18.814l-.01-.011L1.219.209A.715.715,0,0,0,.207,1.219l0,0,3,2.961-.182.227a8.971,8.971,0,0,0,0,11.211l.183.229-1.97,1.923-.013.014a.71.71,0,0,0-.139.761l0,0a.712.712,0,0,0,.654.441h8.265a9.008,9.008,0,0,0,5.6-2l.226-.183,2.965,2.976a.711.711,0,0,0,1,.008l.014-.014a.714.714,0,0,0,0-.97M4.668,16.371l0,0,0,0a.713.713,0,0,0-.005-1,7.593,7.593,0,0,1-.7-9.877l.223-.3L14.835,15.836l-.3.224a7.6,7.6,0,0,1-4.523,1.511H3.449Z"
                            fill="#fff" />
                        <path id="패스_45218" data-name="패스 45218"
                            d="M7.906,2.723a.7.7,0,0,0,.149-.015l.018,0A7.662,7.662,0,0,1,10,2.458h.016a7.564,7.564,0,0,1,7.556,7.555,7.711,7.711,0,0,1-.247,1.95l0,.007a.709.709,0,0,0,.355.818.449.449,0,0,0,.209.052h.021l.059,0,.024,0h.024a.709.709,0,0,0,.707-.517v0l0-.006v0a8.927,8.927,0,0,0,.267-2.283v-.007a8.978,8.978,0,0,0-8.976-8.976h-.04a8.861,8.861,0,0,0-2.268.294l-.032.009a.71.71,0,0,0,.232,1.382"
                            fill="#fff" />
                    </g>
                </svg>