  <svg xmlns="http://www.w3.org/2000/svg" width="17.5" height="20"
                    viewBox="0 0 17.5 20">
                    <path id="패스_47783" data-name="패스 47783"
                        d="M8.125,0h1.25V1.281A6.247,6.247,0,0,1,15,7.5v3.8l2.316,2.316.184.184V16.25H0V13.8l.184-.184L2.5,11.3V7.5A6.247,6.247,0,0,1,8.125,1.281ZM8.75,2.5a5,5,0,0,0-5,5v4.32L3.566,12,1.25,14.32V15h15v-.68L13.934,12l-.184-.184V7.5A5,5,0,0,0,8.75,2.5Zm-2.5,15H7.5a1.25,1.25,0,0,0,2.5,0h1.25a2.5,2.5,0,0,1-5,0Z"
                        fill="#fff" opacity="0.6" />
                </svg>