<svg xmlns="http://www.w3.org/2000/svg"
                    xmlns:xlink="http://www.w3.org/1999/xlink" width="20" height="20" viewBox="0 0 20 20">
                    <defs>
                        <clipPath id="clip-path">
                            <rect id="사각형_25766" data-name="사각형 25766" width="20" height="20" fill="#fff" />
                        </clipPath>
                    </defs>
                    <g id="그룹_21310" data-name="그룹 21310" opacity="0.6">
                        <g id="그룹_21309" data-name="그룹 21309" clip-path="url(#clip-path)">
                            <path id="패스_45698" data-name="패스 45698"
                                d="M17.966,4.9H17.1A3.26,3.26,0,0,0,14.289,0h-.111A3.36,3.36,0,0,0,11.32,1.586L10,3.695,8.681,1.586A3.344,3.344,0,0,0,5.822,0H5.711A3.26,3.26,0,0,0,2.895,4.9h-.86A2.037,2.037,0,0,0,0,6.936V9.387a2.04,2.04,0,0,0,1.226,1.868v6.1A2.649,2.649,0,0,0,3.873,20H16.127a2.65,2.65,0,0,0,2.648-2.647v-6.1A2.041,2.041,0,0,0,20,9.387V6.936A2.036,2.036,0,0,0,17.966,4.9M4.069,3.26A1.643,1.643,0,0,1,5.711,1.618h.111a1.741,1.741,0,0,1,1.488.823L8.847,4.9H5.711A1.643,1.643,0,0,1,4.069,3.26M9.191,6.52V9.8H2.035a.417.417,0,0,1-.417-.416V6.936a.417.417,0,0,1,.417-.416Zm0,4.9v6.96H3.873a1.03,1.03,0,0,1-1.029-1.029V11.422Zm7.966,0v5.931a1.031,1.031,0,0,1-1.03,1.029H10.809v-6.96Zm-6-6.52L12.69,2.441a1.742,1.742,0,0,1,1.488-.823h.111a1.642,1.642,0,1,1,0,3.284Zm7.228,2.034V9.387a.416.416,0,0,1-.416.416H10.809V6.52h7.157a.416.416,0,0,1,.416.416"
                                fill="#fff" />
                        </g>
                    </g>
                </svg>