<svg id="그룹_21992" data-name="그룹 21992" xmlns="http://www.w3.org/2000/svg" xmlns:xlink="http://www.w3.org/1999/xlink" width="28" height="24" viewBox="0 0 28 24">
    <defs>
        <clipPath id="clip-path">
            <rect id="사각형_23861" data-name="사각형 23861" width="28" height="24" fill="#fff"/>
        </clipPath>
    </defs>
    <g id="그룹_20644" data-name="그룹 20644" clip-path="url(#clip-path)">
        <path id="패스_41168" data-name="패스 41168" d="M14,5.855,12.764,4.644l-1.329-1.3a5.762,5.762,0,0,0-8.026,0,5.479,5.479,0,0,0,0,7.863l1.323,1.3L14,21.579,23.265,12.5l1.323-1.3a5.482,5.482,0,0,0-.12-7.865,5.765,5.765,0,0,0-7.909,0l-1.323,1.3Zm1.236,16.936L14,24l-1.236-1.211L3.5,13.713l-1.323-1.3a7.17,7.17,0,0,1,0-10.287,7.537,7.537,0,0,1,10.5,0l.088.087L14,3.427l1.236-1.211.088-.085a7.537,7.537,0,0,1,10.5,0,7.17,7.17,0,0,1,0,10.287l-1.324,1.3Z" transform="translate(0 0)" fill="#fff"/>
    </g>
</svg>
