<svg id="그룹_24174" data-name="그룹 24174" xmlns="http://www.w3.org/2000/svg" xmlns:xlink="http://www.w3.org/1999/xlink" width="194.701" height="200" viewBox="0 0 194.701 200">
  <defs>
    <clipPath id="clip-path">
      <rect id="사각형_28759" data-name="사각형 28759" width="194.701" height="200" fill="none"/>
    </clipPath>
    <clipPath id="clip-path-3">
      <rect id="사각형_28717" data-name="사각형 28717" width="130.165" height="27.863" transform="translate(24.878 166.453)" fill="none"/>
    </clipPath>
    <clipPath id="clip-path-4">
      <rect id="사각형_28720" data-name="사각형 28720" width="112.821" height="137.265" transform="translate(37.051 29.444)" fill="none"/>
    </clipPath>
    <clipPath id="clip-path-5">
      <rect id="사각형_28721" data-name="사각형 28721" width="35.842" height="133.449" transform="translate(1.423 45.342)" fill="none"/>
    </clipPath>
    <clipPath id="clip-path-6">
      <rect id="사각형_28722" data-name="사각형 28722" width="124.701" height="27.692" transform="translate(25.214 1.453)" fill="none"/>
    </clipPath>
    <clipPath id="clip-path-7">
      <rect id="사각형_28723" data-name="사각형 28723" width="34.914" height="156.239" transform="translate(149.915 17.094)" fill="none"/>
    </clipPath>
    <clipPath id="clip-path-8">
      <rect id="사각형_28724" data-name="사각형 28724" width="126.053" height="26.581" transform="translate(35.103 166.453)" fill="none"/>
    </clipPath>
    <clipPath id="clip-path-9">
      <rect id="사각형_28725" data-name="사각형 28725" width="33.709" height="149.597" transform="translate(149.667 29.188)" fill="none"/>
    </clipPath>
    <clipPath id="clip-path-10">
      <rect id="사각형_28726" data-name="사각형 28726" width="35.641" height="150.463" transform="translate(1.453 17.58)" fill="none"/>
    </clipPath>
    <clipPath id="clip-path-11">
      <rect id="사각형_28727" data-name="사각형 28727" width="130.612" height="27.991" transform="translate(31.453 1.453)" fill="none"/>
    </clipPath>
    <clipPath id="clip-path-12">
      <rect id="사각형_28728" data-name="사각형 28728" width="28.669" height="21.586" transform="translate(8.425 166.41)" fill="none"/>
    </clipPath>
    <clipPath id="clip-path-13">
      <rect id="사각형_28729" data-name="사각형 28729" width="164.283" height="180.493" transform="translate(30.418 19.507)" fill="none"/>
    </clipPath>
    <clipPath id="clip-path-14">
      <rect id="사각형_28730" data-name="사각형 28730" width="23.344" height="24.188" transform="translate(149.915 4.957)" fill="none"/>
    </clipPath>
    <clipPath id="clip-path-15">
      <rect id="사각형_28731" data-name="사각형 28731" width="39.729" height="15.28" transform="translate(84.291 132.861)" fill="none"/>
    </clipPath>
    <clipPath id="clip-path-16">
      <rect id="사각형_28732" data-name="사각형 28732" width="0.84" height="1.306" transform="translate(110.985 128.589)" fill="none"/>
    </clipPath>
    <clipPath id="clip-path-17">
      <rect id="사각형_28733" data-name="사각형 28733" width="0.525" height="0.817" transform="translate(109.882 126.733)" fill="none"/>
    </clipPath>
    <clipPath id="clip-path-18">
      <rect id="사각형_28734" data-name="사각형 28734" width="0.833" height="1.75" transform="translate(40.164 119.519)" fill="none"/>
    </clipPath>
    <clipPath id="clip-path-19">
      <rect id="사각형_28735" data-name="사각형 28735" width="33.932" height="8.933" transform="translate(53.116 112.025)" fill="none"/>
    </clipPath>
    <clipPath id="clip-path-20">
      <rect id="사각형_28736" data-name="사각형 28736" width="42.759" height="23.074" transform="translate(39.244 106.049)" fill="none"/>
    </clipPath>
    <clipPath id="clip-path-21">
      <rect id="사각형_28737" data-name="사각형 28737" width="0.993" height="1.664" transform="translate(152.072 115.91)" fill="none"/>
    </clipPath>
    <clipPath id="clip-path-22">
      <rect id="사각형_28738" data-name="사각형 28738" width="33.281" height="11.409" transform="translate(99.644 110.048)" fill="none"/>
    </clipPath>
    <clipPath id="clip-path-23">
      <rect id="사각형_28739" data-name="사각형 28739" width="42.234" height="23.869" transform="translate(105.14 103.282)" fill="none"/>
    </clipPath>
    <clipPath id="clip-path-24">
      <rect id="사각형_28740" data-name="사각형 28740" width="11.896" height="3.088" transform="translate(87.28 95.413)" fill="none"/>
    </clipPath>
    <clipPath id="clip-path-25">
      <rect id="사각형_28741" data-name="사각형 28741" width="39.363" height="44.283" transform="translate(48.971 118.58)" fill="none"/>
    </clipPath>
    <clipPath id="clip-path-26">
      <rect id="사각형_28742" data-name="사각형 28742" width="36.686" height="42.382" transform="translate(98.809 120.034)" fill="none"/>
    </clipPath>
    <clipPath id="clip-path-27">
      <rect id="사각형_28743" data-name="사각형 28743" width="25.95" height="11.355" transform="translate(61.499 138.903)" fill="none"/>
    </clipPath>
    <clipPath id="clip-path-28">
      <rect id="사각형_28744" data-name="사각형 28744" width="25.829" height="15.902" transform="translate(61.524 150.289)" fill="none"/>
    </clipPath>
    <clipPath id="clip-path-29">
      <rect id="사각형_28745" data-name="사각형 28745" width="25.95" height="11.355" transform="translate(97.6 138.737)" fill="none"/>
    </clipPath>
    <clipPath id="clip-path-30">
      <rect id="사각형_28746" data-name="사각형 28746" width="25.83" height="15.902" transform="translate(97.625 150.123)" fill="none"/>
    </clipPath>
    <clipPath id="clip-path-31">
      <rect id="사각형_28747" data-name="사각형 28747" width="66.71" height="32.651" transform="translate(69.056 30.734)" fill="none"/>
    </clipPath>
    <clipPath id="clip-path-32">
      <rect id="사각형_28748" data-name="사각형 28748" width="13.859" height="16.532" transform="translate(131.824 78.593)" fill="none"/>
    </clipPath>
    <clipPath id="clip-path-33">
      <rect id="사각형_28749" data-name="사각형 28749" width="15.98" height="18.593" transform="translate(65.21 39.969)" fill="none"/>
    </clipPath>
    <clipPath id="clip-path-34">
      <rect id="사각형_28750" data-name="사각형 28750" width="24.706" height="20.738" transform="translate(59.371 53.747)" fill="none"/>
    </clipPath>
    <clipPath id="clip-path-35">
      <rect id="사각형_28751" data-name="사각형 28751" width="13.392" height="12.735" transform="translate(101.801 49.652)" fill="none"/>
    </clipPath>
    <clipPath id="clip-path-36">
      <rect id="사각형_28752" data-name="사각형 28752" width="22.738" height="32.447" transform="translate(111.878 47.733)" fill="none"/>
    </clipPath>
    <clipPath id="clip-path-37">
      <rect id="사각형_28753" data-name="사각형 28753" width="12.819" height="9.225" transform="translate(99.941 46.785)" fill="none"/>
    </clipPath>
    <clipPath id="clip-path-38">
      <rect id="사각형_28754" data-name="사각형 28754" width="19.913" height="19.235" transform="translate(82.142 143.583)" fill="none"/>
    </clipPath>
    <clipPath id="clip-path-39">
      <rect id="사각형_28755" data-name="사각형 28755" width="12.282" height="13.069" transform="translate(108.568 127.151)" fill="none"/>
    </clipPath>
    <clipPath id="clip-path-40">
      <rect id="사각형_28756" data-name="사각형 28756" width="8.583" height="10.351" transform="translate(66.428 133.673)" fill="none"/>
    </clipPath>
    <clipPath id="clip-path-41">
      <rect id="사각형_28757" data-name="사각형 28757" width="72.668" height="25.339" transform="translate(57.76 60.347)" fill="none"/>
    </clipPath>
  </defs>
  <g id="그룹_24173" data-name="그룹 24173" clip-path="url(#clip-path)">
    <g id="그룹_24172" data-name="그룹 24172">
      <g id="그룹_24171" data-name="그룹 24171" clip-path="url(#clip-path)">
        <path id="패스_48027" data-name="패스 48027" d="M37.137,166.453l-11.572,22.06a3.963,3.963,0,0,0,3.509,5.8H157.206a3.963,3.963,0,0,0,3.562-5.7l-10.81-22.164Z" fill="#cd9f61"/>
        <path id="패스_48028" data-name="패스 48028" d="M157.206,195.812H29.074a5.458,5.458,0,0,1-4.834-7.993l11.992-22.861h114.66l11.219,23a5.457,5.457,0,0,1-4.9,7.85M38.041,167.949,26.89,189.208a2.467,2.467,0,0,0,2.184,3.613H157.206a2.467,2.467,0,0,0,2.217-3.548l-10.4-21.324Z"/>
        <g id="그룹_24056" data-name="그룹 24056" opacity="0.5">
          <g id="그룹_24055" data-name="그룹 24055">
            <g id="그룹_24054" data-name="그룹 24054" clip-path="url(#clip-path-3)">
              <path id="패스_48029" data-name="패스 48029" d="M155.043,194.316,31.774,190.125a1.553,1.553,0,0,1-1.336-2.245l10.417-20.872-3.718-.555L25.086,188.5s-1.881,5.812,5.683,5.812Z" fill="#fff"/>
            </g>
          </g>
        </g>
        <path id="패스_48030" data-name="패스 48030" d="M157.206,195.812H29.074a5.458,5.458,0,0,1-4.834-7.993l11.992-22.861h114.66l11.219,23a5.457,5.457,0,0,1-4.9,7.85M38.041,167.949,26.89,189.208a2.467,2.467,0,0,0,2.184,3.613H157.206a2.467,2.467,0,0,0,2.217-3.548l-10.4-21.324Z"/>
        <rect id="사각형_28718" data-name="사각형 28718" width="112.821" height="137.265" transform="translate(37.137 29.188)" fill="#cd9f61"/>
        <path id="패스_48031" data-name="패스 48031" d="M151.453,167.949H35.641V27.693H151.453ZM38.632,164.957H148.461V30.684H38.632Z"/>
        <g id="그룹_24059" data-name="그룹 24059" opacity="0.25">
          <g id="그룹_24058" data-name="그룹 24058">
            <g id="그룹_24057" data-name="그룹 24057" clip-path="url(#clip-path-4)">
              <rect id="사각형_28719" data-name="사각형 28719" width="112.821" height="137.265" transform="translate(37.051 29.444)"/>
            </g>
          </g>
        </g>
        <path id="패스_48032" data-name="패스 48032" d="M37.137,29.188,7.268,17.369A4.22,4.22,0,0,0,1.5,21.293V174.92a4.22,4.22,0,0,0,5.837,3.9l29.8-12.365V29.188Z" fill="#cd9f61"/>
        <path id="패스_48033" data-name="패스 48033" d="M5.714,180.637A5.718,5.718,0,0,1,0,174.921V21.294a5.716,5.716,0,0,1,7.819-5.315L38.633,28.172v139.28L7.906,180.2a5.719,5.719,0,0,1-2.192.437M5.707,18.565a2.733,2.733,0,0,0-2.715,2.729V174.921a2.724,2.724,0,0,0,3.768,2.516l28.881-11.982V30.2L6.718,18.761a2.741,2.741,0,0,0-1.011-.2"/>
        <g id="그룹_24062" data-name="그룹 24062" opacity="0.5">
          <g id="그룹_24061" data-name="그룹 24061">
            <g id="그룹_24060" data-name="그룹 24060" clip-path="url(#clip-path-5)">
              <path id="패스_48034" data-name="패스 48034" d="M37.265,162.222,8,173.937a1.666,1.666,0,0,1-2.285-1.507L2.692,45.342,1.453,157.094v15.9s-.726,6.282,5,5.769,30.769-12.307,30.769-12.307Z" fill="#fff"/>
            </g>
          </g>
        </g>
        <path id="패스_48035" data-name="패스 48035" d="M5.714,180.637A5.718,5.718,0,0,1,0,174.921V21.294a5.716,5.716,0,0,1,7.819-5.315L38.633,28.172v139.28L7.906,180.2a5.719,5.719,0,0,1-2.192.437M5.707,18.565a2.733,2.733,0,0,0-2.715,2.729V174.921a2.724,2.724,0,0,0,3.768,2.516l28.881-11.982V30.2L6.718,18.761a2.741,2.741,0,0,0-1.011-.2"/>
        <path id="패스_48036" data-name="패스 48036" d="M37.137,29.188,25.545,6.426A3.391,3.391,0,0,1,28.567,1.5H158.528a3.391,3.391,0,0,1,3.021,4.93L149.958,29.188Z" fill="#cd9f61"/>
        <path id="패스_48037" data-name="패스 48037" d="M150.875,30.683H36.22L24.212,7.1A4.887,4.887,0,0,1,28.567,0H158.528a4.886,4.886,0,0,1,4.354,7.1ZM38.054,27.692H149.041L160.217,5.747a1.9,1.9,0,0,0-1.689-2.756H28.567a1.9,1.9,0,0,0-1.689,2.756Z"/>
        <g id="그룹_24065" data-name="그룹 24065" opacity="0.5">
          <g id="그룹_24064" data-name="그룹 24064">
            <g id="그룹_24063" data-name="그룹 24063" clip-path="url(#clip-path-6)">
              <path id="패스_48038" data-name="패스 48038" d="M28.547,1.453,40,26.154l109.915,1.709L37.094,29.145,25.214,3.761Z" fill="#fff"/>
            </g>
          </g>
        </g>
        <path id="패스_48039" data-name="패스 48039" d="M150.875,30.683H36.22L24.212,7.1A4.887,4.887,0,0,1,28.567,0H158.528a4.886,4.886,0,0,1,4.354,7.1ZM38.054,27.692H149.041L160.217,5.747a1.9,1.9,0,0,0-1.689-2.756H28.567a1.9,1.9,0,0,0-1.689,2.756Z"/>
        <path id="패스_48040" data-name="패스 48040" d="M149.957,166.453l29.055,11.608a4.243,4.243,0,0,0,5.817-3.94V21.592a4.243,4.243,0,0,0-5.809-3.944l-29.063,11.54Z" fill="#cd9f61"/>
        <path id="패스_48041" data-name="패스 48041" d="M180.587,179.86a5.736,5.736,0,0,1-2.13-.41l-29.995-11.984V28.173l30.006-11.915a5.74,5.74,0,0,1,7.857,5.334V174.121a5.741,5.741,0,0,1-5.738,5.739m-29.134-14.42,28.114,11.232a2.747,2.747,0,0,0,3.766-2.551V21.592a2.747,2.747,0,0,0-3.761-2.553L151.453,30.2Z"/>
        <g id="그룹_24068" data-name="그룹 24068" opacity="0.5">
          <g id="그룹_24067" data-name="그룹 24067">
            <g id="그룹_24066" data-name="그룹 24066" clip-path="url(#clip-path-7)">
              <path id="패스_48042" data-name="패스 48042" d="M149.957,33.66l28.2-11.437a1.894,1.894,0,0,1,2.6,1.7l4.071,149.406-.043-154.017-4.615-2.222L149.914,29.145Z" fill="#fff"/>
            </g>
          </g>
        </g>
        <path id="패스_48043" data-name="패스 48043" d="M180.587,179.86a5.736,5.736,0,0,1-2.13-.41l-29.995-11.984V28.173l30.006-11.915a5.74,5.74,0,0,1,7.857,5.334V174.121a5.741,5.741,0,0,1-5.738,5.739m-29.134-14.42,28.114,11.232a2.747,2.747,0,0,0,3.766-2.551V21.592a2.747,2.747,0,0,0-3.761-2.553L151.453,30.2Z"/>
        <g id="그룹_24071" data-name="그룹 24071" opacity="0.25">
          <g id="그룹_24070" data-name="그룹 24070">
            <g id="그룹_24069" data-name="그룹 24069" clip-path="url(#clip-path-8)">
              <path id="패스_48044" data-name="패스 48044" d="M158.419,193.034S117.6,167.541,35.1,170.33l2.632-3.877h52.8s10.274,3.419,14.89,0h44.529l11.2,22.137s.171,4.188-2.735,4.444"/>
            </g>
          </g>
        </g>
        <g id="그룹_24074" data-name="그룹 24074" opacity="0.25">
          <g id="그룹_24073" data-name="그룹 24073">
            <g id="그룹_24072" data-name="그룹 24072" clip-path="url(#clip-path-9)">
              <path id="패스_48045" data-name="패스 48045" d="M183.376,177.308s-37.35-46.752-33.419-148.12V166.453l27.131,10.839s3.3,3.349,6.288.016"/>
            </g>
          </g>
        </g>
        <g id="그룹_24077" data-name="그룹 24077" opacity="0.25">
          <g id="그룹_24076" data-name="그룹 24076">
            <g id="그룹_24075" data-name="그룹 24075" clip-path="url(#clip-path-10)">
              <path id="패스_48046" data-name="패스 48046" d="M33.419,168.043S40.855,35.385,1.453,21.282c0,0,2.553-5.231,7.473-3.256s28.168,11.12,28.168,11.12V166.41Z"/>
            </g>
          </g>
        </g>
        <g id="그룹_24080" data-name="그룹 24080" opacity="0.25">
          <g id="그룹_24079" data-name="그룹 24079">
            <g id="그룹_24078" data-name="그룹 24078" clip-path="url(#clip-path-11)">
              <path id="패스_48047" data-name="패스 48047" d="M31.453,1.5s75.256,6.026,96.859,27.949l21.6-.3L161.88,6.411s1.368-4.958-3.333-4.958S31.453,1.5,31.453,1.5"/>
            </g>
          </g>
        </g>
        <g id="그룹_24083" data-name="그룹 24083" opacity="0.25">
          <g id="그룹_24082" data-name="그룹 24082">
            <g id="그룹_24081" data-name="그룹 24081" clip-path="url(#clip-path-12)">
              <path id="패스_48048" data-name="패스 48048" d="M8.425,178.368l.025,7.465a2.17,2.17,0,0,0,3,2l18.077-7.446,7.571-13.974Z"/>
            </g>
          </g>
        </g>
        <g id="그룹_24086" data-name="그룹 24086" opacity="0.25">
          <g id="그룹_24085" data-name="그룹 24085">
            <g id="그룹_24084" data-name="그룹 24084" clip-path="url(#clip-path-13)">
              <path id="패스_48049" data-name="패스 48049" d="M31.966,194.316l-1.346,2.8A2.014,2.014,0,0,0,32.434,200H166.1a4.788,4.788,0,0,0,4.24-7.012L161.2,175.555l28.443,11.32a3.7,3.7,0,0,0,5.061-3.433V22.7a3.193,3.193,0,0,0-4.587-2.874l-5.285,2.562v99.593l-.042,52.116s-1.026,4.872-6.5,3.163-28.376-10.855-28.376-10.855L161.2,188.034s1.709,6.239-4.958,6.282-124.273,0-124.273,0"/>
            </g>
          </g>
        </g>
        <g id="그룹_24089" data-name="그룹 24089" opacity="0.25">
          <g id="그룹_24088" data-name="그룹 24088">
            <g id="그룹_24087" data-name="그룹 24087" clip-path="url(#clip-path-14)">
              <path id="패스_48050" data-name="패스 48050" d="M166.5,23.248l6.3-12.256a4.142,4.142,0,0,0-3.683-6.035h-7.191L149.915,29.145Z"/>
            </g>
          </g>
        </g>
        <path id="패스_48051" data-name="패스 48051" d="M136.523,124.3C139.1,52.217,93.3,53.758,93.3,53.758s-45.1-.943-44.758,71.95c0,0-.945,38.18,42.75,37.178.817-.018,1.635-.014,2.452.018,4.814.187,22.663-.143,34.233-14.455a39.834,39.834,0,0,0,8.547-24.153" fill="#313333"/>
        <path id="패스_48052" data-name="패스 48052" d="M95.267,163.9c-.6,0-1.125-.012-1.561-.029-.773-.03-1.578-.036-2.392-.017q-.858.02-1.7.019c-13.37,0-23.851-3.713-31.174-11.05a34.931,34.931,0,0,1-6.459-9.013,41.242,41.242,0,0,1-3.2-8.777,39.322,39.322,0,0,1-1.206-9.333c-.07-15.111,1.823-28.217,5.624-38.954,3.155-8.912,7.648-16.277,13.353-21.891a43.683,43.683,0,0,1,9.461-7.093A41.6,41.6,0,0,1,84.6,54.193a32.315,32.315,0,0,1,8.694-1.4,33.128,33.128,0,0,1,8.957,1.32,40.889,40.889,0,0,1,8.755,3.542,41.676,41.676,0,0,1,9.5,7.148c5.5,5.516,9.746,12.746,12.605,21.488,3.43,10.49,4.9,23.286,4.376,38.034a42.508,42.508,0,0,1-1.419,10.147,38.935,38.935,0,0,1-7.343,14.588C117.943,162.4,101.9,163.9,95.267,163.9m-3.026-1.992c.522,0,1.037.01,1.54.029,5.014.2,22.245-.244,33.443-14.1a38.9,38.9,0,0,0,8.332-23.562v-.017C136.51,97.61,131,78.075,119.173,66.2A39.429,39.429,0,0,0,101.826,56a31.69,31.69,0,0,0-8.495-1.275h-.052a30.866,30.866,0,0,0-8.235,1.354A40.814,40.814,0,0,0,67.872,66.271C55.561,78.413,49.382,98.409,49.51,125.7v.028a38.051,38.051,0,0,0,1.169,8.91,35.967,35.967,0,0,0,9.147,16.83c7.241,7.245,17.821,10.76,31.444,10.447q.489-.011.972-.011"/>
        <path id="패스_48053" data-name="패스 48053" d="M95.266,163.844c-.6,0-1.125-.012-1.561-.029-.773-.03-1.578-.036-2.392-.017q-.858.02-1.7.019c-13.37,0-23.851-3.713-31.174-11.05a34.931,34.931,0,0,1-6.459-9.013,41.242,41.242,0,0,1-3.2-8.777,39.306,39.306,0,0,1-1.206-9.334C47.5,110.533,49.4,97.427,53.2,86.69c3.155-8.912,7.648-16.277,13.353-21.891a43.683,43.683,0,0,1,9.461-7.093A41.6,41.6,0,0,1,84.6,54.137a32.3,32.3,0,0,1,8.694-1.4,33.128,33.128,0,0,1,8.957,1.32A40.889,40.889,0,0,1,111,57.6a41.676,41.676,0,0,1,9.5,7.148c5.5,5.516,9.746,12.746,12.6,21.488,3.43,10.49,4.9,23.286,4.376,38.034a42.507,42.507,0,0,1-1.419,10.147A38.935,38.935,0,0,1,128.728,149c-10.786,13.342-26.828,14.843-33.462,14.843m-3.026-1.992c.522,0,1.037.01,1.54.029,5.014.2,22.245-.244,33.443-14.1a38.9,38.9,0,0,0,8.332-23.562v-.017c.953-26.652-4.559-46.187-16.384-58.063a39.429,39.429,0,0,0-17.347-10.2,31.69,31.69,0,0,0-8.495-1.275h-.052a30.866,30.866,0,0,0-8.235,1.354A40.815,40.815,0,0,0,67.871,66.215C55.56,78.357,49.382,98.353,49.509,125.648v.028a38.051,38.051,0,0,0,1.169,8.91,35.967,35.967,0,0,0,9.147,16.83c7.241,7.245,17.82,10.759,31.444,10.447q.489-.011.972-.011"/>
        <path id="패스_48054" data-name="패스 48054" d="M91.984,157.041c.576,0,1.151.012,1.726.038,5.1.23,33.445.243,36.389-27.5,2.989-28.17-4.983-43.976-6.218-46.227q-.144-.261-.278-.529c-.8-1.606-5.625-10.351-15.071-8.071a8.775,8.775,0,0,0-5.473,4.057A11.505,11.505,0,0,1,91.5,84.548a11.208,11.208,0,0,1-7.856-5.792,9.962,9.962,0,0,0-7.808-5.217,9.266,9.266,0,0,0-2.006.041c-4.084.532-8.948,3.813-13.13,13.987-8.132,19.786-5.643,38.915-4.9,43.367q.141.841.254,1.688c.559,4.119,4.894,24.525,35.932,24.419" fill="#fff"/>
        <g id="그룹_24092" data-name="그룹 24092" opacity="0.5">
          <g id="그룹_24091" data-name="그룹 24091">
            <g id="그룹_24090" data-name="그룹 24090" clip-path="url(#clip-path-15)">
              <path id="패스_48055" data-name="패스 48055" d="M122.872,132.861a4.762,4.762,0,0,1-1.795,5.8,52.857,52.857,0,0,1-36.786,8.5s13.525,3.827,30.837-3.668c0,0,9.338-3.875,8.875-7.748Z" fill="#fff"/>
            </g>
          </g>
        </g>
        <path id="패스_48056" data-name="패스 48056" d="M120.413,124.414s-2.773,1-3.844,2.962a5.976,5.976,0,0,1,4.7-5.351Z"/>
        <path id="패스_48057" data-name="패스 48057" d="M69.739,151.845s-13.962.713-3.181-8.07c0,0-.565-9.215,4.157-14.878a9.25,9.25,0,0,0,2.115-5.616,35.368,35.368,0,0,1,.316-3.653A35.821,35.821,0,0,1,77,107.779c-1.767-3.227-.633-6.542,1-7.257s4.835.7,6.012,4.177c0,0,14.671-6.24,29.489.151,0,0,13.8-8.235,7.569,4.038,0,0,4.182,18.42-6.651,32.315,0,0,13.683,9.748-5.876,9.188a41.174,41.174,0,0,1-38.8,1.454" fill="#fff"/>
        <path id="패스_48058" data-name="패스 48058" d="M87.787,156.976a42.481,42.481,0,0,1-18.253-4.155,21.093,21.093,0,0,1-3.151-.158c-2.6-.343-4.179-1.2-4.7-2.557a3.571,3.571,0,0,1,.549-3.2,15.763,15.763,0,0,1,3.342-3.573,30.65,30.65,0,0,1,.335-5.015,20.707,20.707,0,0,1,4.063-10.04,8.323,8.323,0,0,0,1.891-5.03,36.208,36.208,0,0,1,.325-3.753,36.629,36.629,0,0,1,3.721-11.721,7.452,7.452,0,0,1-.421-5.551,3.686,3.686,0,0,1,5.459-2.394,7.361,7.361,0,0,1,3.6,3.629,43.206,43.206,0,0,1,8.517-2.038,42.664,42.664,0,0,1,9.661-.253,36.509,36.509,0,0,1,10.706,2.605,31.129,31.129,0,0,1,3.324-1.612c2.985-1.214,4.976-1.3,6.086-.262a3.131,3.131,0,0,1,.749,2.9,14.85,14.85,0,0,1-1.508,4.227,46.848,46.848,0,0,1,.688,10.862,43.693,43.693,0,0,1-1.821,10.694,34.963,34.963,0,0,1-5.184,10.445,21.2,21.2,0,0,1,1.969,1.8c1.928,2.024,2.651,3.809,2.149,5.306-.4,1.186-1.53,2.054-3.365,2.579a27.284,27.284,0,0,1-7.732.658,42.418,42.418,0,0,1-20.583,5.608l-.418,0m-17.849-6.109.224.108a40.531,40.531,0,0,0,17.624,4.066l.4,0a40.493,40.493,0,0,0,19.869-5.484l.238-.139.276.008a26.169,26.169,0,0,0,7.417-.575c.816-.234,1.835-.655,2.064-1.335.244-.727-.374-1.943-1.7-3.337a19.822,19.822,0,0,0-2.5-2.185l-.822-.587.62-.8c5.427-6.96,6.9-15.133,7.182-20.763a44.313,44.313,0,0,0-.711-10.744l-.077-.34.158-.312a14,14,0,0,0,1.471-3.934,1.511,1.511,0,0,0-.154-1.2c-.343-.32-1.6-.347-4.018.633a29.652,29.652,0,0,0-3.511,1.736l-.424.254-.455-.2a37.421,37.421,0,0,0-19.724-2.41,39.061,39.061,0,0,0-9,2.262l-.96.406-.334-.987a5.555,5.555,0,0,0-2.929-3.411,1.8,1.8,0,0,0-2.846,1.249,5.557,5.557,0,0,0,.526,4.467l.251.458-.245.46A34.533,34.533,0,0,0,73.8,123.315a10.266,10.266,0,0,1-2.339,6.2,18.783,18.783,0,0,0-3.629,9.043,27.722,27.722,0,0,0-.305,5.156l.03.5-.385.314c-3.927,3.2-3.809,4.548-3.68,4.885.232.6,1.4,1.1,3.123,1.331a19.136,19.136,0,0,0,3.078.137Z"/>
        <path id="패스_48059" data-name="패스 48059" d="M73.465,154.122c-.063-.006-.109-.01-.162-.017l-.15-.02c-.1-.016-.2-.034-.293-.055-.193-.041-.383-.091-.571-.148a7.72,7.72,0,0,1-1.1-.429c-.089-.043-.177-.087-.265-.132l-.26-.142c-.169-.1-.341-.2-.5-.314a7.394,7.394,0,0,1-.94-.741c-.147-.137-.293-.275-.428-.427-.067-.075-.138-.145-.2-.225l-.191-.236a6.177,6.177,0,0,1-.641-1.031,4.987,4.987,0,0,1-.384-1.142c-.017-.1-.033-.2-.046-.294a2.665,2.665,0,0,1-.023-.295,3.44,3.44,0,0,1,.02-.584,9.8,9.8,0,0,0,.6.937,7.887,7.887,0,0,0,.686.79,9.878,9.878,0,0,0,.762.676c.136.1.268.205.406.3l.1.074.106.07c.07.047.137.1.209.142.57.366,1.164.7,1.77,1.021l.92.48.232.12.232.123.23.123.114.063c.036.02.078.043.1.061Z"/>
        <path id="패스_48060" data-name="패스 48060" d="M105.761,150.934c.025-.02.065-.045.1-.067l.11-.069.224-.136.224-.135.225-.133.892-.53c.587-.358,1.162-.721,1.71-1.117.07-.049.134-.1.2-.154l.1-.076.1-.079c.133-.105.259-.215.389-.324a9.976,9.976,0,0,0,.723-.717,7.835,7.835,0,0,0,.641-.827,9.746,9.746,0,0,0,.548-.969,3.413,3.413,0,0,1,.053.582,2.663,2.663,0,0,1-.006.3c-.008.1-.019.2-.03.3a4.985,4.985,0,0,1-.32,1.161,6.231,6.231,0,0,1-.583,1.066l-.178.245c-.058.084-.125.158-.189.237a5.932,5.932,0,0,1-.4.45,7.561,7.561,0,0,1-.9.792c-.157.121-.323.23-.487.341l-.252.156c-.084.05-.17.1-.256.146a7.6,7.6,0,0,1-1.071.489q-.276.1-.561.18c-.1.026-.192.049-.29.07-.049.011-.1.02-.148.029s-.1.016-.161.026Z"/>
        <path id="패스_48061" data-name="패스 48061" d="M117.346,137.823c-.015.062-.026.107-.04.158s-.027.1-.041.145c-.03.1-.062.189-.1.282q-.1.279-.228.544a7.653,7.653,0,0,1-.58,1.024c-.055.082-.111.163-.169.243l-.177.237c-.124.154-.247.309-.382.455a7.543,7.543,0,0,1-.868.826,5.952,5.952,0,0,1-.483.362c-.084.057-.164.117-.252.168l-.26.156a6.241,6.241,0,0,1-1.112.487,4.947,4.947,0,0,1-1.185.218c-.1,0-.2,0-.3,0s-.2-.012-.3-.019a3.552,3.552,0,0,1-.575-.1,10,10,0,0,0,1.013-.461,7.984,7.984,0,0,0,.88-.567,9.881,9.881,0,0,0,.777-.658c.12-.12.241-.236.357-.359l.087-.091.085-.1c.057-.063.115-.122.17-.187.443-.512.855-1.053,1.262-1.607l.606-.842.152-.213.154-.212.155-.21.079-.1c.025-.032.053-.071.075-.094Z"/>
        <path id="패스_48062" data-name="패스 48062" d="M67.521,139.41c0,.031,0,.079.006.12l0,.13,0,.262v1.56c.005.688.022,1.368.082,2.042.006.085.019.167.028.251l.013.127.018.125c.022.168.052.332.079.5a9.979,9.979,0,0,0,.245.989,7.726,7.726,0,0,0,.382.974,9.8,9.8,0,0,0,.55.967,3.523,3.523,0,0,1-.526-.252,2.94,2.94,0,0,1-.251-.158c-.081-.057-.16-.117-.24-.177a4.976,4.976,0,0,1-.832-.87,6.21,6.21,0,0,1-.616-1.047l-.12-.279c-.042-.093-.071-.188-.107-.283-.072-.19-.126-.383-.179-.577a7.55,7.55,0,0,1-.22-1.177c-.024-.2-.032-.395-.043-.593l0-.3c0-.1,0-.2,0-.295a7.771,7.771,0,0,1,.129-1.17c.037-.193.081-.384.134-.575.027-.095.056-.19.088-.284.016-.047.034-.1.051-.143s.037-.092.06-.151Z"/>
        <path id="패스_48063" data-name="패스 48063" d="M88.285,104.219c-.028.014-.073.03-.112.045l-.122.045-.246.087-.248.086-.247.084-.982.336c-.648.228-1.286.465-1.9.741-.078.033-.152.072-.228.108l-.116.054-.112.057c-.152.075-.3.158-.448.238a9.781,9.781,0,0,0-.855.552,7.823,7.823,0,0,0-.8.678,9.709,9.709,0,0,0-.736.835,3.45,3.45,0,0,1,.068-.58,2.819,2.819,0,0,1,.067-.289c.028-.094.059-.188.09-.284a5.048,5.048,0,0,1,.552-1.07,6.255,6.255,0,0,1,.79-.923l.224-.2c.075-.069.156-.128.234-.192.156-.13.321-.244.487-.357a7.617,7.617,0,0,1,1.042-.591c.179-.086.363-.159.546-.233l.279-.1c.093-.032.187-.062.281-.091a7.678,7.678,0,0,1,1.148-.258c.194-.028.39-.049.587-.061.1,0,.2-.008.3-.009l.151,0,.162.008Z"/>
        <path id="패스_48064" data-name="패스 48064" d="M120.671,111.961c-.007-.023-.014-.059-.021-.09l-.019-.1-.036-.2-.035-.2-.034-.2-.136-.782c-.1-.518-.2-1.028-.331-1.528-.016-.063-.036-.123-.054-.186l-.027-.093-.03-.092c-.038-.124-.083-.244-.125-.367a7.715,7.715,0,0,0-.315-.712,5.98,5.98,0,0,0-.416-.684,7.506,7.506,0,0,0-.543-.656,2.593,2.593,0,0,1,.43.121,2.141,2.141,0,0,1,.21.085q.1.049.2.1a3.814,3.814,0,0,1,.742.546,4.735,4.735,0,0,1,.6.708l.128.194c.043.064.078.132.117.2.079.134.146.272.211.411a5.62,5.62,0,0,1,.321.858c.044.146.077.294.111.441l.043.223c.013.074.024.148.035.223a6,6,0,0,1,.057.9c0,.151-.01.3-.025.451-.008.075-.017.151-.029.226-.006.038-.013.076-.02.114s-.015.074-.025.122Z"/>
        <path id="패스_48065" data-name="패스 48065" d="M108.729,102.629c.063,0,.109-.006.162-.007h.152c.1,0,.2,0,.3.011.2.013.393.035.587.064a7.773,7.773,0,0,1,1.146.266c.094.03.188.06.281.093l.278.1c.182.076.366.15.545.238a7.554,7.554,0,0,1,1.038.6c.165.114.329.229.484.36.078.065.158.125.233.194l.223.206a6.187,6.187,0,0,1,.783.928,4.98,4.98,0,0,1,.545,1.074c.031.1.061.19.089.284a2.935,2.935,0,0,1,.065.289,3.573,3.573,0,0,1,.064.581,9.61,9.61,0,0,0-.73-.84,7.842,7.842,0,0,0-.793-.683,9.657,9.657,0,0,0-.852-.558c-.149-.081-.294-.165-.446-.241l-.112-.058-.115-.054c-.076-.037-.15-.076-.228-.11-.616-.28-1.252-.521-1.9-.754l-.979-.342-.247-.085-.247-.088-.246-.089-.122-.045c-.038-.015-.083-.032-.111-.046Z"/>
        <path id="패스_48066" data-name="패스 48066" d="M75,111.112c0-.063.006-.109.011-.162s.009-.1.015-.151c.011-.1.026-.2.043-.3.033-.194.076-.386.126-.576a7.733,7.733,0,0,1,.387-1.111c.04-.09.08-.18.122-.269l.132-.266c.1-.173.188-.348.294-.516a7.521,7.521,0,0,1,.705-.968c.132-.152.263-.3.41-.443.073-.071.141-.144.218-.211l.228-.2a6.184,6.184,0,0,1,1.006-.679,5,5,0,0,1,1.126-.427c.1-.02.2-.041.293-.058a2.907,2.907,0,0,1,.294-.034,3.559,3.559,0,0,1,.584,0,9.579,9.579,0,0,0-.913.636,7.8,7.8,0,0,0-.764.715,9.951,9.951,0,0,0-.646.787c-.1.14-.195.276-.287.418l-.07.1-.066.109c-.044.072-.091.141-.133.214-.344.583-.652,1.19-.953,1.808l-.445.937-.111.237-.114.236-.114.235-.059.116c-.019.036-.04.079-.057.106Z"/>
        <g id="그룹_24095" data-name="그룹 24095" opacity="0.25">
          <g id="그룹_24094" data-name="그룹 24094">
            <g id="그룹_24093" data-name="그룹 24093" clip-path="url(#clip-path-16)">
              <path id="패스_48067" data-name="패스 48067" d="M110.985,129.245c0-.361.183-.655.415-.657s.422.289.425.65-.183.655-.415.657-.422-.289-.425-.65"/>
            </g>
          </g>
        </g>
        <g id="그룹_24098" data-name="그룹 24098" opacity="0.25">
          <g id="그룹_24097" data-name="그룹 24097">
            <g id="그룹_24096" data-name="그룹 24096" clip-path="url(#clip-path-17)">
              <path id="패스_48068" data-name="패스 48068" d="M109.882,127.143c0-.225.114-.409.259-.41s.264.18.266.406-.114.409-.259.41-.264-.181-.266-.406"/>
            </g>
          </g>
        </g>
        <path id="패스_48069" data-name="패스 48069" d="M98.986,95.205a9.433,9.433,0,0,0-11.563.225,1.494,1.494,0,0,0,.207,2.542,11.839,11.839,0,0,0,11.235-.235,1.494,1.494,0,0,0,.121-2.532" fill="#ffbd35"/>
        <path id="패스_48070" data-name="패스 48070" d="M93.03,100.242a12.8,12.8,0,0,1-5.837-1.408,2.462,2.462,0,0,1-.335-4.19,10.733,10.733,0,0,1,7.5-2.228,11.293,11.293,0,0,1,5.182,1.993,2.462,2.462,0,0,1-.2,4.171,12.968,12.968,0,0,1-6.307,1.662Zm.348-5.949a9.118,9.118,0,0,0-5.388,1.921.5.5,0,0,0-.212.46.524.524,0,0,0,.29.434,10.874,10.874,0,0,0,4.962,1.2,11.047,11.047,0,0,0,5.363-1.416A.525.525,0,0,0,98.436,96a8.918,8.918,0,0,0-5.058-1.707"/>
        <path id="패스_48071" data-name="패스 48071" d="M135.322,101.128s-1.2-1-1.273-.764c-.109.348-.276,1.014.555,5.092.246,1.208.461,2.207.611,2.9q.354-1.93.707-3.861Z" fill="#313333"/>
        <path id="패스_48072" data-name="패스 48072" d="M135.3,99.872s.707,5.148.934,8.156" fill="#313333"/>
        <path id="패스_48073" data-name="패스 48073" d="M134.342,100c.1.67.237,1.342.376,2.011s.292,1.338.45,2.006.324,1.336.5,2,.36,1.334.567,2c.1-.694.154-1.389.19-2.083s.045-1.386.044-2.077-.019-1.381-.051-2.069-.078-1.373-.158-2.058Z"/>
        <g id="그룹_24101" data-name="그룹 24101" opacity="0.5">
          <g id="그룹_24100" data-name="그룹 24100">
            <g id="그룹_24099" data-name="그룹 24099" clip-path="url(#clip-path-18)">
              <path id="패스_48074" data-name="패스 48074" d="M41,119.519c-.279.583-.555,1.167-.833,1.75" fill="#fff"/>
            </g>
          </g>
        </g>
        <path id="패스_48075" data-name="패스 48075" d="M50.186,104.3c-.529.263-10.8,5.525-11.276,13.363a9.3,9.3,0,0,0,5.848,9.824c8.756,4.16,24.949-.2,24.949-.2a82.135,82.135,0,0,0,16.278-6.322,2.482,2.482,0,0,0-.263-4.531,74.908,74.908,0,0,0-34.948-3.985" fill="#313333"/>
        <path id="패스_48076" data-name="패스 48076" d="M50.616,105.169l-.179.1-.186.1c-.125.069-.25.14-.374.212q-.374.216-.742.444-.738.456-1.449.953a28.33,28.33,0,0,0-2.711,2.14,20.686,20.686,0,0,0-2.353,2.462,13.659,13.659,0,0,0-1.766,2.806,9.429,9.429,0,0,0-.851,3.081c-.009.134-.021.257-.028.408s-.014.282-.018.42c-.007.276-.007.547.006.817a9.2,9.2,0,0,0,.2,1.587,7.772,7.772,0,0,0,.488,1.494,7.628,7.628,0,0,0,1.815,2.522,9.2,9.2,0,0,0,1.263.968c.113.073.23.142.345.212s.235.136.357.2c.241.131.487.253.75.377a13.593,13.593,0,0,0,1.536.616,19.831,19.831,0,0,0,3.294.767,35.882,35.882,0,0,0,6.926.272,61.543,61.543,0,0,0,6.988-.76q1.74-.287,3.465-.653c.573-.123,1.147-.253,1.71-.393l.21-.053.1-.025.1-.029.426-.116c.285-.076.567-.158.851-.238q1.7-.486,3.374-1.047c1.116-.374,2.227-.766,3.327-1.19s2.192-.865,3.273-1.334c.271-.115.539-.238.809-.357l.4-.179.4-.185.8-.371.8-.383.4-.192.4-.2.4-.2.2-.1.1-.05.047-.023.03-.018a1.492,1.492,0,0,0,.416-.323,1.448,1.448,0,0,0,.264-.443,1.54,1.54,0,0,0,0-1.052,1.442,1.442,0,0,0-.113-.238,1.152,1.152,0,0,0-.073-.109L86,117.816l-.043-.049a1.366,1.366,0,0,0-.415-.322c-.119-.067-.454-.182-.717-.282s-.552-.2-.829-.3-.555-.2-.834-.288-.558-.188-.838-.277q-1.68-.543-3.386-1.006c-2.275-.613-4.579-1.124-6.905-1.517-1.163-.2-2.329-.372-3.5-.514s-2.345-.265-3.522-.351c-.588-.05-1.178-.078-1.767-.115l-.884-.038-.442-.019-.443-.011-.885-.023-.885-.006-.443,0-.443,0-.885.009c-.3.009-.591.017-.886.022l-.886.01c-.3,0-.592,0-.888,0s-.593,0-.89-.012c-.595-.021-1.191-.037-1.792-.082s-1.2-.087-1.819-.2c.285-.123.574-.228.864-.325.145-.05.291-.1.437-.141s.292-.085.439-.125c.294-.078.589-.15.884-.218l.222-.049c.074-.016.149-.029.223-.044.149-.029.3-.055.446-.082.3-.051.6-.1.9-.141s.6-.073.9-.1c.151-.016.3-.03.451-.042s.3-.019.452-.029q.451-.025.9-.043l.9-.024.452-.012.453,0,.9-.007.9.008.452,0,.453.012.9.025c.6.029,1.206.048,1.808.09a75.743,75.743,0,0,1,14.3,2.242q1.756.452,3.491.99c.289.089.577.182.865.276s.575.191.862.287.572.2.858.3l.428.154c.073.027.132.046.238.09l.142.06c.047.021.093.045.139.068a3.409,3.409,0,0,1,1.657,1.831,3.558,3.558,0,0,1,.035,2.454,3.516,3.516,0,0,1-.634,1.095,3.554,3.554,0,0,1-.977.786l-.067.038-.053.027-.1.052-.2.1-.4.206-.4.207c-.135.068-.271.133-.406.2a82.357,82.357,0,0,1-13.5,5.273c-.291.084-.581.17-.872.249l-.438.122-.11.03-.117.031-.225.058c-.594.151-1.184.288-1.777.418q-1.776.391-3.569.689a63.835,63.835,0,0,1-7.241.806,38.006,38.006,0,0,1-7.364-.292,21.657,21.657,0,0,1-3.67-.864,15.858,15.858,0,0,1-1.783-.72c-.276-.132-.565-.274-.848-.429-.143-.075-.283-.158-.425-.239s-.28-.167-.417-.257a11.051,11.051,0,0,1-1.57-1.214,9.818,9.818,0,0,1-2.928-5.17A11.3,11.3,0,0,1,37.8,119.2c-.014-.327-.012-.652,0-.973.005-.161.014-.32.023-.474s.023-.321.037-.485a10.848,10.848,0,0,1,.372-1.95c.044-.159.1-.314.145-.471s.106-.311.167-.462l.089-.229c.03-.076.063-.15.094-.225.063-.151.132-.3.2-.445a15.766,15.766,0,0,1,2.07-3.22,22.588,22.588,0,0,1,2.617-2.683,30.16,30.16,0,0,1,2.94-2.252q.765-.516,1.558-.99.4-.235.8-.46c.136-.075.272-.149.41-.222l.209-.109.219-.11Z"/>
        <g id="그룹_24104" data-name="그룹 24104" opacity="0.5">
          <g id="그룹_24103" data-name="그룹 24103">
            <g id="그룹_24102" data-name="그룹 24102" clip-path="url(#clip-path-19)">
              <path id="패스_48077" data-name="패스 48077" d="M83.622,118a132.365,132.365,0,0,0-30.506-5.808s19.776-1.663,33.933,5.4q-.564,3.376-1.037,3.364-.239-.006-.453-.875A2.934,2.934,0,0,0,83.622,118" fill="#fff"/>
            </g>
          </g>
        </g>
        <path id="패스_48078" data-name="패스 48078" d="M50.616,105.169l-.179.1-.186.1c-.125.069-.25.14-.374.212q-.374.216-.742.444-.738.456-1.449.953a28.33,28.33,0,0,0-2.711,2.14,20.686,20.686,0,0,0-2.353,2.462,13.659,13.659,0,0,0-1.766,2.806,9.429,9.429,0,0,0-.851,3.081c-.009.134-.021.257-.028.408s-.014.282-.018.42c-.007.276-.007.547.006.817a9.2,9.2,0,0,0,.2,1.587,7.772,7.772,0,0,0,.488,1.494,7.628,7.628,0,0,0,1.815,2.522,9.2,9.2,0,0,0,1.263.968c.113.073.23.142.345.212s.235.136.357.2c.241.131.487.253.75.377a13.593,13.593,0,0,0,1.536.616,19.831,19.831,0,0,0,3.294.767,35.882,35.882,0,0,0,6.926.272,61.543,61.543,0,0,0,6.988-.76q1.74-.287,3.465-.653c.573-.123,1.147-.253,1.71-.393l.21-.053.1-.025.1-.029.426-.116c.285-.076.567-.158.851-.238q1.7-.486,3.374-1.047c1.116-.374,2.227-.766,3.327-1.19s2.192-.865,3.273-1.334c.271-.115.539-.238.809-.357l.4-.179.4-.185.8-.371.8-.383.4-.192.4-.2.4-.2.2-.1.1-.05.047-.023.03-.018a1.492,1.492,0,0,0,.416-.323,1.448,1.448,0,0,0,.264-.443,1.54,1.54,0,0,0,0-1.052,1.442,1.442,0,0,0-.113-.238,1.152,1.152,0,0,0-.073-.109L86,117.816l-.043-.049a1.366,1.366,0,0,0-.415-.322c-.119-.067-.454-.182-.717-.282s-.552-.2-.829-.3-.555-.2-.834-.288-.558-.188-.838-.277q-1.68-.543-3.386-1.006c-2.275-.613-4.579-1.124-6.905-1.517-1.163-.2-2.329-.372-3.5-.514s-2.345-.265-3.522-.351c-.588-.05-1.178-.078-1.767-.115l-.884-.038-.442-.019-.443-.011-.885-.023-.885-.006-.443,0-.443,0-.885.009c-.3.009-.591.017-.886.022l-.886.01c-.3,0-.592,0-.888,0s-.593,0-.89-.012c-.595-.021-1.191-.037-1.792-.082s-1.2-.087-1.819-.2c.285-.123.574-.228.864-.325.145-.05.291-.1.437-.141s.292-.085.439-.125c.294-.078.589-.15.884-.218l.222-.049c.074-.016.149-.029.223-.044.149-.029.3-.055.446-.082.3-.051.6-.1.9-.141s.6-.073.9-.1c.151-.016.3-.03.451-.042s.3-.019.452-.029q.451-.025.9-.043l.9-.024.452-.012.453,0,.9-.007.9.008.452,0,.453.012.9.025c.6.029,1.206.048,1.808.09a75.743,75.743,0,0,1,14.3,2.242q1.756.452,3.491.99c.289.089.577.182.865.276s.575.191.862.287.572.2.858.3l.428.154c.073.027.132.046.238.09l.142.06c.047.021.093.045.139.068a3.409,3.409,0,0,1,1.657,1.831,3.558,3.558,0,0,1,.035,2.454,3.516,3.516,0,0,1-.634,1.095,3.554,3.554,0,0,1-.977.786l-.067.038-.053.027-.1.052-.2.1-.4.206-.4.207c-.135.068-.271.133-.406.2a82.357,82.357,0,0,1-13.5,5.273c-.291.084-.581.17-.872.249l-.438.122-.11.03-.117.031-.225.058c-.594.151-1.184.288-1.777.418q-1.776.391-3.569.689a63.835,63.835,0,0,1-7.241.806,38.006,38.006,0,0,1-7.364-.292,21.657,21.657,0,0,1-3.67-.864,15.858,15.858,0,0,1-1.783-.72c-.276-.132-.565-.274-.848-.429-.143-.075-.283-.158-.425-.239s-.28-.167-.417-.257a11.051,11.051,0,0,1-1.57-1.214,9.815,9.815,0,0,1-2.928-5.171A11.277,11.277,0,0,1,37.8,119.2c-.014-.327-.012-.652,0-.973.005-.161.014-.32.023-.474s.023-.321.037-.485a10.848,10.848,0,0,1,.372-1.95c.044-.159.1-.314.145-.471s.106-.311.167-.462l.089-.229c.03-.076.063-.15.094-.225.063-.151.132-.3.2-.445a15.766,15.766,0,0,1,2.07-3.22,22.588,22.588,0,0,1,2.617-2.683,30.16,30.16,0,0,1,2.94-2.252q.765-.516,1.558-.99.4-.235.8-.46c.136-.075.272-.149.41-.222l.209-.109.219-.11Z"/>
        <g id="그룹_24107" data-name="그룹 24107" opacity="0.25">
          <g id="그룹_24106" data-name="그룹 24106">
            <g id="그룹_24105" data-name="그룹 24105" clip-path="url(#clip-path-20)">
              <path id="패스_48079" data-name="패스 48079" d="M82,122.666c-.327.228-46.966,8.078-35.815-16.617,0,0-11.953,9.978-4.494,18.969s32.406.411,32.406.411Z"/>
            </g>
          </g>
        </g>
        <g id="그룹_24110" data-name="그룹 24110" opacity="0.5">
          <g id="그룹_24109" data-name="그룹 24109">
            <g id="그룹_24108" data-name="그룹 24108" clip-path="url(#clip-path-21)">
              <path id="패스_48080" data-name="패스 48080" d="M152.072,115.91l.993,1.665" fill="#fff"/>
            </g>
          </g>
        </g>
        <path id="패스_48081" data-name="패스 48081" d="M135.106,101.916c.551.212,11.269,4.493,12.473,12.252a9.3,9.3,0,0,1-4.9,10.327c-8.33,4.959-24.86,2.126-24.86,2.126a82.163,82.163,0,0,1-16.8-4.776,2.481,2.481,0,0,1-.16-4.535,74.9,74.9,0,0,1,34.424-7.228" fill="#313333"/>
        <path id="패스_48082" data-name="패스 48082" d="M134.758,102.819l.187.077.195.084c.13.057.261.116.392.176.261.12.521.245.78.373q.777.386,1.532.813a28.558,28.558,0,0,1,2.9,1.878,20.776,20.776,0,0,1,2.572,2.232,13.691,13.691,0,0,1,2.02,2.629,9.415,9.415,0,0,1,1.134,2.989c.022.132.046.253.067.4s.04.28.056.417c.034.273.059.544.071.813a9.15,9.15,0,0,1-.055,1.6,7.844,7.844,0,0,1-.346,1.534,7.628,7.628,0,0,1-1.572,2.68,9.243,9.243,0,0,1-1.168,1.082c-.1.083-.215.162-.323.243s-.221.157-.337.231c-.227.153-.462.3-.712.446a13.511,13.511,0,0,1-1.472.756,19.735,19.735,0,0,1-3.208,1.071,35.849,35.849,0,0,1-6.87.917,61.561,61.561,0,0,1-7.029-.1q-1.758-.123-3.51-.328c-.583-.069-1.166-.145-1.74-.231l-.213-.033-.1-.016-.108-.019-.435-.076c-.29-.049-.579-.1-.869-.157q-1.735-.325-3.457-.728c-1.146-.269-2.289-.555-3.423-.874s-2.264-.658-3.384-1.023c-.281-.09-.559-.187-.839-.28l-.419-.141-.417-.146-.833-.3-.829-.307-.415-.154-.412-.16-.412-.159-.207-.08-.1-.04-.049-.019-.031-.014a1.532,1.532,0,0,1-.445-.284,1.46,1.46,0,0,1-.3-.416,1.532,1.532,0,0,1-.094-1.048,1.361,1.361,0,0,1,.09-.248,1.258,1.258,0,0,1,.062-.114l.033-.056.038-.053a1.4,1.4,0,0,1,.383-.359c.112-.078.436-.223.688-.348s.531-.252.8-.375.534-.246.8-.364.538-.239.809-.354q1.622-.7,3.277-1.318c2.207-.823,4.455-1.546,6.733-2.154,1.139-.305,2.285-.588,3.438-.839s2.31-.483,3.473-.678c.581-.1,1.165-.187,1.748-.279l.877-.121.439-.06.439-.052.88-.105.881-.089.44-.044.441-.037.883-.073c.294-.019.589-.038.884-.061l.883-.072c.3-.024.589-.054.884-.085s.59-.059.885-.1c.59-.076,1.182-.148,1.776-.248s1.191-.2,1.793-.366c-.3-.1-.593-.173-.891-.243-.149-.036-.3-.067-.448-.1s-.3-.057-.449-.083c-.3-.051-.6-.1-.9-.135l-.225-.028c-.075-.009-.151-.015-.226-.023-.15-.015-.3-.027-.452-.04-.3-.023-.6-.045-.9-.057s-.6-.016-.9-.018c-.151,0-.3,0-.453,0s-.3.009-.452.013q-.451.018-.9.041l-.9.061-.452.03-.451.039-.9.077-.9.093-.45.046-.449.055-.9.109c-.6.085-1.2.161-1.792.258a75.76,75.76,0,0,0-14.027,3.567q-1.707.613-3.384,1.311-.42.174-.835.356c-.279.118-.555.243-.832.366s-.551.251-.826.378l-.411.194c-.071.033-.128.058-.229.112l-.136.072c-.045.026-.089.054-.133.081a3.412,3.412,0,0,0-1.478,1.978,3.558,3.558,0,0,0,.194,2.447,3.488,3.488,0,0,0,.734,1.03,3.543,3.543,0,0,0,1.045.692l.071.032.055.022.105.042.21.084.421.167.421.168c.141.056.282.108.423.162a82.466,82.466,0,0,0,13.929,3.991c.3.056.594.114.892.166l.447.081.112.02.12.02.229.036c.605.1,1.206.176,1.808.251q1.806.222,3.618.352a63.632,63.632,0,0,0,7.285.127,38.044,38.044,0,0,0,7.3-.977,21.637,21.637,0,0,0,3.573-1.2,15.79,15.79,0,0,0,1.709-.883c.263-.157.537-.326.8-.506.135-.088.267-.184.4-.277s.264-.194.392-.295a11.1,11.1,0,0,0,1.45-1.356,9.841,9.841,0,0,0,2-3.465,10.029,10.029,0,0,0,.43-1.956,11.268,11.268,0,0,0,.057-1.975c-.016-.327-.048-.651-.089-.97-.02-.159-.044-.317-.067-.47s-.053-.317-.082-.479a10.9,10.9,0,0,0-.552-1.906c-.059-.154-.125-.3-.189-.456s-.134-.3-.209-.445l-.11-.219c-.037-.072-.077-.143-.115-.215-.076-.144-.159-.284-.241-.424a15.856,15.856,0,0,0-2.36-3.014,22.853,22.853,0,0,0-2.857-2.427,30.031,30.031,0,0,0-3.137-1.967q-.81-.444-1.644-.841-.417-.2-.842-.383c-.142-.062-.284-.123-.429-.182l-.218-.089-.228-.089Z"/>
        <g id="그룹_24113" data-name="그룹 24113" opacity="0.5">
          <g id="그룹_24112" data-name="그룹 24112">
            <g id="그룹_24111" data-name="그룹 24111" clip-path="url(#clip-path-22)">
              <path id="패스_48083" data-name="패스 48083" d="M103.612,118.453a133.137,133.137,0,0,1,29.312-8.406s-19.844.189-33.28,8.54q.941,2.941,1.405,2.868.151-.024.253-.368a4.1,4.1,0,0,1,2.31-2.634" fill="#fff"/>
            </g>
          </g>
        </g>
        <path id="패스_48084" data-name="패스 48084" d="M134.758,102.819l.187.077.195.084c.13.057.261.116.392.176.261.12.521.245.78.373q.777.386,1.532.813a28.558,28.558,0,0,1,2.9,1.878,20.776,20.776,0,0,1,2.572,2.232,13.691,13.691,0,0,1,2.02,2.629,9.415,9.415,0,0,1,1.134,2.989c.022.132.046.253.067.4s.04.28.056.417c.034.273.059.544.071.813a9.15,9.15,0,0,1-.055,1.6,7.844,7.844,0,0,1-.346,1.534,7.628,7.628,0,0,1-1.572,2.68,9.243,9.243,0,0,1-1.168,1.082c-.1.083-.215.162-.323.243s-.221.157-.337.232c-.227.152-.462.3-.712.445a13.511,13.511,0,0,1-1.472.756,19.735,19.735,0,0,1-3.208,1.071,35.849,35.849,0,0,1-6.87.917,61.561,61.561,0,0,1-7.029-.1q-1.758-.123-3.51-.328c-.583-.069-1.166-.145-1.74-.231l-.213-.033-.1-.016-.108-.019-.435-.076c-.29-.049-.579-.1-.869-.157q-1.735-.325-3.457-.728c-1.146-.269-2.289-.555-3.423-.874s-2.264-.658-3.384-1.023c-.281-.09-.559-.187-.839-.28l-.419-.141-.417-.146-.833-.3-.829-.307-.415-.154-.412-.16-.412-.159-.207-.08-.1-.04-.049-.019-.031-.014a1.532,1.532,0,0,1-.445-.284,1.46,1.46,0,0,1-.3-.416,1.532,1.532,0,0,1-.094-1.048,1.44,1.44,0,0,1,.09-.248,1.258,1.258,0,0,1,.062-.114l.033-.056.038-.053a1.4,1.4,0,0,1,.383-.359c.112-.078.436-.223.688-.348s.531-.252.8-.375.534-.246.8-.364.538-.239.809-.354q1.622-.7,3.277-1.318c2.207-.823,4.455-1.546,6.733-2.154,1.139-.305,2.285-.588,3.438-.839s2.31-.483,3.473-.678c.581-.1,1.165-.187,1.748-.279l.877-.121.439-.06.439-.052.88-.105.881-.089.44-.044.441-.037.883-.073c.294-.019.589-.038.884-.061l.883-.072c.3-.024.589-.054.884-.085s.59-.059.885-.1c.59-.076,1.182-.148,1.776-.248s1.191-.2,1.793-.366c-.3-.1-.593-.173-.891-.243-.149-.036-.3-.067-.448-.1s-.3-.057-.449-.083c-.3-.051-.6-.1-.9-.135l-.225-.028c-.075-.009-.151-.015-.226-.023-.15-.015-.3-.027-.452-.04-.3-.023-.6-.045-.9-.057s-.6-.016-.9-.018c-.151,0-.3,0-.453,0s-.3.009-.452.013q-.451.018-.9.041l-.9.061-.452.03-.451.039-.9.077-.9.093-.45.046-.449.055-.9.109c-.6.085-1.2.161-1.792.258a75.76,75.76,0,0,0-14.027,3.567q-1.707.613-3.384,1.311-.42.174-.835.356c-.279.118-.555.243-.832.366s-.551.251-.826.378l-.411.194c-.071.033-.128.058-.229.112l-.136.072c-.045.026-.089.054-.133.081a3.412,3.412,0,0,0-1.478,1.978,3.558,3.558,0,0,0,.194,2.447,3.488,3.488,0,0,0,.734,1.03,3.543,3.543,0,0,0,1.045.692l.071.032.055.022.105.042.21.084.421.167.421.168c.141.056.282.108.423.162a82.466,82.466,0,0,0,13.929,3.991c.3.056.594.114.892.166l.447.081.112.02.12.02.229.036c.605.1,1.206.176,1.808.251q1.806.222,3.618.352a63.632,63.632,0,0,0,7.285.127,38.044,38.044,0,0,0,7.3-.977,21.637,21.637,0,0,0,3.573-1.2,15.79,15.79,0,0,0,1.709-.883c.263-.157.537-.326.8-.506.135-.088.267-.184.4-.277s.264-.194.392-.295a11.1,11.1,0,0,0,1.45-1.356,9.841,9.841,0,0,0,2-3.465,10.1,10.1,0,0,0,.43-1.956,11.268,11.268,0,0,0,.057-1.975c-.016-.327-.048-.651-.089-.97-.02-.159-.044-.317-.067-.47s-.053-.317-.082-.479a10.9,10.9,0,0,0-.552-1.906c-.059-.154-.125-.3-.189-.456s-.134-.3-.209-.445l-.11-.219c-.037-.072-.077-.143-.115-.215-.076-.144-.159-.284-.241-.424a15.856,15.856,0,0,0-2.36-3.014,22.853,22.853,0,0,0-2.857-2.427,30.031,30.031,0,0,0-3.137-1.967q-.81-.444-1.644-.841-.417-.2-.842-.383c-.142-.062-.284-.123-.429-.182l-.218-.089-.228-.089Z"/>
        <g id="그룹_24116" data-name="그룹 24116" opacity="0.25">
          <g id="그룹_24115" data-name="그룹 24115">
            <g id="그룹_24114" data-name="그룹 24114" clip-path="url(#clip-path-23)">
              <path id="패스_48085" data-name="패스 48085" d="M105.14,123.168c.347.2,47.515,3.661,34.108-19.885,0,0,12.833,8.819,6.245,18.466s-32.227,3.433-32.227,3.433Z"/>
            </g>
          </g>
        </g>
        <g id="그룹_24119" data-name="그룹 24119" opacity="0.25">
          <g id="그룹_24118" data-name="그룹 24118">
            <g id="그룹_24117" data-name="그룹 24117" clip-path="url(#clip-path-24)">
              <path id="패스_48086" data-name="패스 48086" d="M87.532,95.443c.051-.1,5.473,3.428,10.338,0,0,0,2.875.774,0,2.211s-12.107,1.161-10.338-2.211"/>
              <path id="패스_48087" data-name="패스 48087" d="M92.986,98.5c-2.194,0-4.393-.392-5.292-1.309a1.387,1.387,0,0,1-.187-1.762c.019-.036.046-.022.3.105,4.8,2.371,8.112,1.247,10.043-.114l.011-.008.012,0c.05.013,1.232.338,1.3.973.041.407-.393.841-1.291,1.289a12.4,12.4,0,0,1-4.9.822m-5.438-3.029a1.331,1.331,0,0,0,.186,1.682c1.677,1.71,7.927,1.574,10.124.476.874-.437,1.3-.853,1.26-1.235-.057-.564-1.116-.885-1.243-.921a8.323,8.323,0,0,1-6.205,1.39,13.131,13.131,0,0,1-3.883-1.28c-.108-.053-.2-.1-.239-.112"/>
            </g>
          </g>
        </g>
        <path id="패스_48088" data-name="패스 48088" d="M94.719,95.333c0,.244-.792.442-1.769.442s-1.769-.2-1.769-.442.792-.442,1.769-.442,1.769.2,1.769.442" fill="#fff"/>
        <path id="패스_48089" data-name="패스 48089" d="M51.188,101.991l-.01.105-.013.111-.026.226-.057.455-.116.913c-.081.61-.1,1.224-.189,1.834-.019.153-.044.306-.07.46s-.05.306-.074.461-.048.308-.075.463l-.038.233c-.015.078-.026.155-.037.233-.1.626-.18,1.255-.3,1.918-.078-.148-.147-.3-.217-.451-.034-.076-.07-.152-.1-.23s-.058-.154-.087-.233-.056-.156-.083-.235-.056-.157-.078-.236c-.047-.159-.091-.319-.135-.479s-.077-.322-.113-.484-.069-.325-.094-.488-.053-.326-.075-.49-.036-.328-.047-.492a13.952,13.952,0,0,1,.062-1.961c.015-.163.028-.326.045-.488s.036-.325.062-.488l.038-.243.043-.243c.015-.081.032-.163.05-.244l.027-.123.032-.129Z"/>
        <path id="패스_48090" data-name="패스 48090" d="M136.025,99.5l.034.128.03.123c.019.081.037.163.054.243l.048.242.041.243c.029.161.047.324.071.486s.036.325.054.488a14.074,14.074,0,0,1,.1,1.959c-.009.165-.021.329-.039.493s-.044.328-.066.491-.055.327-.087.489-.061.325-.1.486-.082.322-.126.481c-.021.08-.049.159-.074.238s-.052.158-.08.237-.054.157-.082.234-.064.155-.1.232c-.067.153-.134.305-.209.454-.128-.66-.215-1.288-.33-1.912-.012-.078-.024-.155-.041-.233l-.042-.232c-.029-.155-.05-.308-.082-.462s-.058-.307-.083-.46-.056-.305-.078-.458c-.1-.609-.129-1.222-.22-1.83l-.133-.912-.064-.453-.03-.225-.014-.112-.013-.1Z"/>
        <g id="그룹_24122" data-name="그룹 24122" opacity="0.25">
          <g id="그룹_24121" data-name="그룹 24121">
            <g id="그룹_24120" data-name="그룹 24120" clip-path="url(#clip-path-25)">
              <path id="패스_48091" data-name="패스 48091" d="M88.334,118.58s-.276,7.132-21.174,13.1a65.257,65.257,0,0,1-8,1.557,4.492,4.492,0,0,0-3.682,5.961c2.631,7.343,9.691,19.71,27.935,23.663,0,0-33.061-5.307-34.443-34.553a55.524,55.524,0,0,0,39.363-9.73"/>
            </g>
          </g>
        </g>
        <g id="그룹_24125" data-name="그룹 24125" opacity="0.25">
          <g id="그룹_24124" data-name="그룹 24124">
            <g id="그룹_24123" data-name="그룹 24123" clip-path="url(#clip-path-26)">
              <path id="패스_48092" data-name="패스 48092" d="M100.122,120.159a.868.868,0,0,0-1.086,1.326c2.248,2.523,7.4,6.139,19.181,9.052a60.616,60.616,0,0,0,7.741,1.195,4.5,4.5,0,0,1,3.81,5.788c-2.177,7.454-8.364,20.125-25.668,24.9,0,0,31.444-6.792,31.395-36.067a51.746,51.746,0,0,1-22.938-.969,52.3,52.3,0,0,1-12.435-5.221"/>
            </g>
          </g>
        </g>
        <path id="패스_48093" data-name="패스 48093" d="M68.849,143.655a.943.943,0,0,1-1.228.573c-6.846-2.67-6.135,5.414-6.135,5.414.447,9.25,6.161,16.435,12.842,16.467,6.337.031,11.93-6.382,12.925-15.068,0,0,1.441-9.637-5.49-6.653a.941.941,0,0,1-1.264-.575c-1.028-3.153-3.371-5.225-5.942-5.168-2.449.055-4.667,2.031-5.708,5.01" fill="#ffbd35"/>
        <path id="패스_48094" data-name="패스 48094" d="M74.373,167.077h-.05c-7.266-.035-13.327-7.665-13.8-17.372a11.173,11.173,0,0,1,.093-2.308,5.637,5.637,0,0,1,1.979-3.875c1.329-1,3.129-1.066,5.351-.206a9.487,9.487,0,0,1,2.592-3.988,6.244,6.244,0,0,1,4-1.649,6.153,6.153,0,0,1,4.208,1.618,9.432,9.432,0,0,1,2.667,4.19c2.079-.888,3.763-.853,5,.1,1.136.874,1.777,2.449,1.907,4.682a15.663,15.663,0,0,1-.108,2.894,21.11,21.11,0,0,1-4.686,11.31,12.183,12.183,0,0,1-9.154,4.6m-9.224-22.422a2.27,2.27,0,0,0-1.394.413c-1.3.971-1.383,3.571-1.305,4.491l0,.037a19.664,19.664,0,0,0,3.879,11.14c2.218,2.827,5.06,4.392,8,4.406a10.275,10.275,0,0,0,7.728-3.929,19.159,19.159,0,0,0,4.231-10.282l0-.033c.17-1.154.341-4.7-1.065-5.776-.649-.5-1.687-.447-3.086.155a1.908,1.908,0,0,1-2.567-1.163c-.893-2.739-2.9-4.55-5-4.5-2.014.045-3.905,1.757-4.816,4.362a1.927,1.927,0,0,1-1.008,1.11,1.881,1.881,0,0,1-1.484.045,5.983,5.983,0,0,0-2.121-.475"/>
        <g id="그룹_24128" data-name="그룹 24128" opacity="0.5">
          <g id="그룹_24127" data-name="그룹 24127">
            <g id="그룹_24126" data-name="그룹 24126" clip-path="url(#clip-path-27)">
              <path id="패스_48095" data-name="패스 48095" d="M61.511,150.258a4.411,4.411,0,0,1,6.395-3.558,2.71,2.71,0,0,0,3.479-1.464c1.011-2.362,2.675-3.675,3.851-3.534,1.15.138,2.4,1.734,2.888,4.136a2.352,2.352,0,0,0,3.094,1.739c2.8-.993,5.014-.913,5.843.161a2.6,2.6,0,0,1,.293,2.219s.74-8.852-6.231-5.533c0,0-6.873-12.152-12.509-.4,0,0-7.452-3.474-7.1,6.234" fill="#fff"/>
            </g>
          </g>
        </g>
        <path id="패스_48096" data-name="패스 48096" d="M74.373,167.077h-.05c-7.266-.035-13.327-7.665-13.8-17.372a11.173,11.173,0,0,1,.093-2.308,5.637,5.637,0,0,1,1.979-3.875c1.329-1,3.129-1.066,5.351-.206a9.487,9.487,0,0,1,2.592-3.988,6.244,6.244,0,0,1,4-1.649,6.153,6.153,0,0,1,4.208,1.618,9.432,9.432,0,0,1,2.667,4.19c2.079-.888,3.763-.853,5,.1,1.136.874,1.777,2.449,1.907,4.682a15.663,15.663,0,0,1-.108,2.894,21.11,21.11,0,0,1-4.686,11.31,12.183,12.183,0,0,1-9.154,4.6m-9.224-22.422a2.27,2.27,0,0,0-1.394.413c-1.3.971-1.383,3.571-1.305,4.491l0,.037a19.664,19.664,0,0,0,3.879,11.14c2.218,2.827,5.06,4.392,8,4.406a10.275,10.275,0,0,0,7.728-3.929,19.159,19.159,0,0,0,4.231-10.282l0-.033c.17-1.154.341-4.7-1.065-5.776-.649-.5-1.687-.447-3.086.155a1.908,1.908,0,0,1-2.567-1.163c-.893-2.739-2.9-4.55-5-4.5-2.014.045-3.905,1.757-4.816,4.362a1.927,1.927,0,0,1-1.008,1.11,1.881,1.881,0,0,1-1.484.045,5.983,5.983,0,0,0-2.121-.475"/>
        <g id="그룹_24131" data-name="그룹 24131" opacity="0.25">
          <g id="그룹_24130" data-name="그룹 24130">
            <g id="그룹_24129" data-name="그룹 24129" clip-path="url(#clip-path-28)">
              <path id="패스_48097" data-name="패스 48097" d="M61.528,150.3l0-.01c.047-.024,10.785,21.785,25.829.737-1.052,9.308-7.538,15.42-13.195,15.156-5.43-.253-10.151-6.381-10.866-9.185,0,0-1.607-6.3-1.765-6.7"/>
            </g>
          </g>
        </g>
        <path id="패스_48098" data-name="패스 48098" d="M104.95,143.489a.943.943,0,0,1-1.228.573c-6.846-2.67-6.135,5.414-6.135,5.414.447,9.25,6.161,16.435,12.842,16.467,6.337.031,11.93-6.382,12.925-15.068,0,0,1.441-9.637-5.49-6.653a.941.941,0,0,1-1.264-.575c-1.028-3.153-3.371-5.225-5.942-5.168-2.449.055-4.667,2.031-5.708,5.01" fill="#ffbd35"/>
        <path id="패스_48099" data-name="패스 48099" d="M110.474,166.911h-.05c-7.266-.035-13.327-7.665-13.8-17.372a11.173,11.173,0,0,1,.093-2.308,5.637,5.637,0,0,1,1.979-3.875c1.329-1,3.129-1.066,5.351-.206a9.487,9.487,0,0,1,2.592-3.988,6.244,6.244,0,0,1,4-1.649,6.142,6.142,0,0,1,4.208,1.618,9.432,9.432,0,0,1,2.667,4.19c2.079-.888,3.763-.853,5,.1,1.136.874,1.777,2.449,1.907,4.682a15.663,15.663,0,0,1-.108,2.894,21.11,21.11,0,0,1-4.686,11.31,12.183,12.183,0,0,1-9.154,4.6m-9.224-22.422a2.27,2.27,0,0,0-1.394.413c-1.3.971-1.383,3.571-1.305,4.491l0,.037a19.667,19.667,0,0,0,3.879,11.14c2.218,2.827,5.06,4.392,8,4.406h.04a10.288,10.288,0,0,0,7.688-3.929,19.159,19.159,0,0,0,4.231-10.282l.005-.033c.17-1.154.341-4.7-1.065-5.776-.649-.5-1.687-.447-3.086.155a1.908,1.908,0,0,1-2.567-1.163c-.882-2.7-2.852-4.5-4.921-4.5h-.08c-2.014.045-3.9,1.757-4.816,4.362a1.927,1.927,0,0,1-1.008,1.11,1.881,1.881,0,0,1-1.484.045,5.983,5.983,0,0,0-2.121-.475"/>
        <g id="그룹_24134" data-name="그룹 24134" opacity="0.5">
          <g id="그룹_24133" data-name="그룹 24133">
            <g id="그룹_24132" data-name="그룹 24132" clip-path="url(#clip-path-29)">
              <path id="패스_48100" data-name="패스 48100" d="M97.612,150.092a4.411,4.411,0,0,1,6.4-3.558,2.71,2.71,0,0,0,3.479-1.464c1.011-2.362,2.675-3.675,3.851-3.534,1.15.138,2.4,1.734,2.888,4.136a2.352,2.352,0,0,0,3.094,1.739c2.8-.993,5.014-.913,5.843.161a2.6,2.6,0,0,1,.293,2.219s.74-8.852-6.231-5.533c0,0-6.873-12.152-12.509-.4,0,0-7.452-3.474-7.1,6.234" fill="#fff"/>
            </g>
          </g>
        </g>
        <path id="패스_48101" data-name="패스 48101" d="M110.474,166.911h-.05c-7.266-.035-13.327-7.665-13.8-17.372a11.173,11.173,0,0,1,.093-2.308,5.637,5.637,0,0,1,1.979-3.875c1.329-1,3.129-1.066,5.351-.206a9.487,9.487,0,0,1,2.592-3.988,6.244,6.244,0,0,1,4-1.649,6.142,6.142,0,0,1,4.208,1.618,9.432,9.432,0,0,1,2.667,4.19c2.079-.888,3.763-.853,5,.1,1.136.874,1.777,2.449,1.907,4.682a15.663,15.663,0,0,1-.108,2.894,21.11,21.11,0,0,1-4.686,11.31,12.183,12.183,0,0,1-9.154,4.6m-9.224-22.422a2.27,2.27,0,0,0-1.394.413c-1.3.971-1.383,3.571-1.305,4.491l0,.037a19.667,19.667,0,0,0,3.879,11.14c2.218,2.827,5.06,4.392,8,4.406h.04a10.288,10.288,0,0,0,7.688-3.929,19.159,19.159,0,0,0,4.231-10.282l.005-.033c.17-1.154.341-4.7-1.065-5.776-.649-.5-1.687-.447-3.086.155a1.908,1.908,0,0,1-2.567-1.163c-.882-2.7-2.852-4.5-4.921-4.5h-.08c-2.014.045-3.9,1.757-4.816,4.362a1.927,1.927,0,0,1-1.008,1.11,1.881,1.881,0,0,1-1.484.045,5.983,5.983,0,0,0-2.121-.475"/>
        <g id="그룹_24137" data-name="그룹 24137" opacity="0.25">
          <g id="그룹_24136" data-name="그룹 24136">
            <g id="그룹_24135" data-name="그룹 24135" clip-path="url(#clip-path-30)">
              <path id="패스_48102" data-name="패스 48102" d="M97.629,150.134l0-.011c.048-.023,10.785,21.786,25.829.738-1.052,9.308-7.538,15.42-13.195,15.156-5.43-.253-10.151-6.381-10.865-9.185,0,0-1.608-6.3-1.765-6.7"/>
            </g>
          </g>
        </g>
        <path id="패스_48103" data-name="패스 48103" d="M59.781,75.118a54.112,54.112,0,0,1,13.28-9.467c18.2-9.163,36.4-5.116,42.675-3.4a27.467,27.467,0,0,0,2.82,3.538,36.286,36.286,0,0,0,3.98,3.538c1.756,1.414,2.975,2.275,3.483,2.654a22,22,0,0,1,6.386,8.2s2.275-2.461,5.2-1.764c0,0,.743-45.413-36.126-47.178s-36.637,27.49-36.637,27.49A13.449,13.449,0,0,0,59.6,65.135a13.679,13.679,0,0,0,.186,9.983" fill="#42c2ff"/>
        <path id="패스_48104" data-name="패스 48104" d="M132.16,81.869l-.622-1.26a21.544,21.544,0,0,0-6.1-7.854c-.1-.071-.216-.161-.362-.266-.641-.468-1.713-1.252-3.149-2.41a37.283,37.283,0,0,1-4.078-3.627,28.446,28.446,0,0,1-2.714-3.362c-8.664-2.313-25.28-4.809-41.642,3.426a53.159,53.159,0,0,0-13.042,9.3l-1.02.986-.546-1.308a14.609,14.609,0,0,1-.2-10.7,14.424,14.424,0,0,1,5.2-6.586,29.028,29.028,0,0,1,1.032-6.243,30.165,30.165,0,0,1,2.556-6.393,27.157,27.157,0,0,1,5.041-6.638,29.29,29.29,0,0,1,11.157-6.586,49.185,49.185,0,0,1,17.852-2.071c8.634.414,15.966,3.224,21.792,8.357a41.21,41.21,0,0,1,10.954,16.515,68.5,68.5,0,0,1,3.834,16.035,59.563,59.563,0,0,1,.467,7.253l-.02,1.2-1.172-.279c-2.324-.554-4.249,1.462-4.268,1.484ZM98.2,58.9q.341,0,.683,0a67.682,67.682,0,0,1,17.11,2.411l.348.095.2.3a26.648,26.648,0,0,0,2.72,3.414,35.261,35.261,0,0,0,3.884,3.449c1.4,1.129,2.45,1.9,3.077,2.353l.377.278a22.448,22.448,0,0,1,6.107,7.455,6.676,6.676,0,0,1,3.921-1.336c-.031-1.194-.131-3.308-.448-5.972a66.465,66.465,0,0,0-3.732-15.566c-5.725-14.936-16.159-22.87-31.013-23.581-12.075-.578-21.347,2.148-27.555,8.1a26.615,26.615,0,0,0-7.072,12.1,25.881,25.881,0,0,0-1,6.321l0,.531-.447.289A12.226,12.226,0,0,0,60.2,73.392a54.921,54.921,0,0,1,12.423-8.6A56.3,56.3,0,0,1,98.2,58.9"/>
        <g id="그룹_24140" data-name="그룹 24140" opacity="0.5">
          <g id="그룹_24139" data-name="그룹 24139">
            <g id="그룹_24138" data-name="그룹 24138" clip-path="url(#clip-path-31)">
              <path id="패스_48105" data-name="패스 48105" d="M69.056,44.966a42.074,42.074,0,0,1,13.205-8.674,43.4,43.4,0,0,1,30.13-.718,34.53,34.53,0,0,1,10.615,5.583c9.582,7.554,12.063,18.35,12.759,22.227-.463-3.342-2.535-15.267-12.952-23.913A37.683,37.683,0,0,0,103.96,31.4c-4.267-.673-13.921-2.051-23.717,3.372A33.371,33.371,0,0,0,69.056,44.966" fill="#fff"/>
            </g>
          </g>
        </g>
        <path id="패스_48106" data-name="패스 48106" d="M60.624,63.956s1.394-13.874,46.949-9.341l5.15,1.359,2.479,6.381S83.579,50.966,59.419,75.126c0,0-2.4-3.819,1.205-11.17" fill="#fff"/>
        <path id="패스_48107" data-name="패스 48107" d="M132.16,81.869l-.622-1.26a21.544,21.544,0,0,0-6.1-7.854c-.1-.071-.216-.161-.362-.266-.641-.468-1.713-1.252-3.149-2.41a37.283,37.283,0,0,1-4.078-3.627,28.446,28.446,0,0,1-2.714-3.362c-8.664-2.313-25.28-4.809-41.642,3.426a53.159,53.159,0,0,0-13.042,9.3l-1.02.986-.546-1.308a14.609,14.609,0,0,1-.2-10.7,14.424,14.424,0,0,1,5.2-6.586,29.028,29.028,0,0,1,1.032-6.243,30.165,30.165,0,0,1,2.556-6.393,27.157,27.157,0,0,1,5.041-6.638,29.29,29.29,0,0,1,11.157-6.586,49.185,49.185,0,0,1,17.852-2.071c8.634.414,15.966,3.224,21.792,8.357a41.21,41.21,0,0,1,10.954,16.515,68.5,68.5,0,0,1,3.834,16.035,59.563,59.563,0,0,1,.467,7.253l-.02,1.2-1.172-.279c-2.324-.554-4.249,1.462-4.268,1.484ZM98.2,58.9q.341,0,.683,0a67.682,67.682,0,0,1,17.11,2.411l.348.095.2.3a26.648,26.648,0,0,0,2.72,3.414,35.261,35.261,0,0,0,3.884,3.449c1.4,1.129,2.45,1.9,3.077,2.353l.377.278a22.448,22.448,0,0,1,6.107,7.455,6.676,6.676,0,0,1,3.921-1.336c-.031-1.194-.131-3.308-.448-5.972a66.465,66.465,0,0,0-3.732-15.566c-5.725-14.936-16.159-22.87-31.013-23.581-12.075-.578-21.347,2.148-27.555,8.1a26.615,26.615,0,0,0-7.072,12.1,25.881,25.881,0,0,0-1,6.321l0,.531-.447.289A12.226,12.226,0,0,0,60.2,73.392a54.921,54.921,0,0,1,12.423-8.6A56.3,56.3,0,0,1,98.2,58.9"/>
        <path id="패스_48108" data-name="패스 48108" d="M145.921,86.866a8.569,8.569,0,1,1-8.569-8.59,8.58,8.58,0,0,1,8.569,8.59" fill="#fff"/>
        <path id="패스_48109" data-name="패스 48109" d="M137.352,96.424a9.558,9.558,0,1,1,9.537-9.558,9.559,9.559,0,0,1-9.537,9.558m0-17.181a7.623,7.623,0,1,0,7.6,7.623,7.621,7.621,0,0,0-7.6-7.623"/>
        <g id="그룹_24143" data-name="그룹 24143" opacity="0.25">
          <g id="그룹_24142" data-name="그룹 24142">
            <g id="그룹_24141" data-name="그룹 24141" clip-path="url(#clip-path-32)">
              <path id="패스_48110" data-name="패스 48110" d="M139.665,78.593c3.357,3.488,3.624,8.692,1.005,11.962a8.923,8.923,0,0,1-8.846,2.875c4.6,3.093,10.484,1.674,12.771-1.99,2.481-3.977.672-10.512-4.93-12.847"/>
            </g>
          </g>
        </g>
        <path id="패스_48111" data-name="패스 48111" d="M117.881,66.462l-.132-.132-.12-.125c-.078-.082-.156-.165-.231-.249s-.151-.167-.224-.251-.147-.169-.219-.254c-.291-.339-.564-.69-.832-1.044l-.2-.267c-.066-.088-.129-.18-.194-.27l-.191-.272-.187-.275q-.372-.551-.714-1.122c-.116-.188-.224-.382-.334-.574-.055-.1-.111-.192-.164-.289l-.157-.293-.156-.294-.148-.3c-.1-.2-.2-.4-.288-.6s-.186-.4-.273-.606l-.257-.613c-.157-.415-.316-.828-.451-1.251l-.1-.314c-.035-.106-.064-.213-.1-.319l-.093-.318c-.03-.107-.065-.212-.09-.32l-.158-.645c-.028-.107-.048-.216-.07-.324l-.064-.326-.064-.325-.05-.328-.049-.328c-.014-.11-.035-.218-.044-.328l-.064-.659-.016-.165-.007-.165-.016-.33c-.027-.439-.008-.881-.007-1.318.009-.219.028-.438.044-.656l.024-.327.041-.326q.041-.325.088-.648l.125-.64c.022-.107.042-.213.066-.319l.084-.314c.057-.21.113-.418.172-.625q-.013.325-.032.646l-.018.321c0,.107,0,.214,0,.321l-.007.64.026.637.011.317.029.317.057.63c.059.419.1.836.187,1.248l.055.31.028.154.034.153.138.612c.02.1.052.2.078.3l.082.3.08.3.094.3a21.807,21.807,0,0,0,.859,2.343,24.9,24.9,0,0,0,1.1,2.236c.1.183.205.361.309.541l.157.268.164.266.162.265c.054.089.112.175.168.263.112.174.223.349.342.52s.232.343.354.512.237.34.362.506l.185.25.189.247c.125.165.253.328.382.49s.26.321.391.482.265.316.4.471c.067.078.135.155.2.231s.137.153.205.228.137.15.206.224l.2.205Z"/>
        <g id="그룹_24146" data-name="그룹 24146" opacity="0.25">
          <g id="그룹_24145" data-name="그룹 24145">
            <g id="그룹_24144" data-name="그룹 24144" clip-path="url(#clip-path-33)">
              <path id="패스_48112" data-name="패스 48112" d="M81.189,53.819S65.312,52.97,72.668,40.14c0,0-7.906,8-7.408,18.374,0,0,8.195-5,15.929-4.695"/>
              <path id="패스_48113" data-name="패스 48113" d="M65.234,58.562l0-.046a21.4,21.4,0,0,1,.948-7.255,27.794,27.794,0,0,1,2.572-5.836,29.044,29.044,0,0,1,3.9-5.3l.15-.151-.106.184c-2.073,3.616-2.488,6.619-1.232,8.926,1.213,2.229,3.793,3.391,5.744,3.974a19.3,19.3,0,0,0,3.987.738l0,.055a27.71,27.71,0,0,0-10.852,2.232,37.938,37.938,0,0,0-5.061,2.459Zm7.3-18.238a30.021,30.021,0,0,0-3.732,5.13,24.271,24.271,0,0,0-3.514,13.013,38.727,38.727,0,0,1,5.028-2.439,28.711,28.711,0,0,1,10.154-2.249,19.932,19.932,0,0,1-3.279-.672c-1.961-.586-4.555-1.755-5.778-4-1.242-2.282-.865-5.236,1.121-8.782"/>
            </g>
          </g>
        </g>
        <g id="그룹_24149" data-name="그룹 24149" opacity="0.25">
          <g id="그룹_24148" data-name="그룹 24148">
            <g id="그룹_24147" data-name="그룹 24147" clip-path="url(#clip-path-34)">
              <path id="패스_48114" data-name="패스 48114" d="M70.81,66.77s-7.926,4.766-7.7.013,8.382-12.03,20.97-13.008c0,0-29.539.071-23.983,20.664Z"/>
              <path id="패스_48115" data-name="패스 48115" d="M60.076,74.485l-.01-.039c-1.34-4.965-.739-9.158,1.785-12.462a16.786,16.786,0,0,1,6.118-4.748,32.661,32.661,0,0,1,7.345-2.446,47.233,47.233,0,0,1,8.761-1.044l0,.056a30.957,30.957,0,0,0-15.109,5.083A17.918,17.918,0,0,0,64.727,62.9a7.47,7.47,0,0,0-1.594,3.885,1.838,1.838,0,0,0,.737,1.82c1.9,1.137,6.876-1.827,6.926-1.857l.03.047ZM83.165,53.829a48.642,48.642,0,0,0-7.84,1.015c-4.346.942-10.2,2.951-13.43,7.174-2.507,3.281-3.108,7.444-1.786,12.375l10.252-7.336a22.363,22.363,0,0,1-2.29,1.1c-1.994.812-3.417.978-4.23.493a1.891,1.891,0,0,1-.763-1.87,7.518,7.518,0,0,1,1.6-3.916,17.948,17.948,0,0,1,4.254-4.025,30.711,30.711,0,0,1,14.228-5.011"/>
            </g>
          </g>
        </g>
        <g id="그룹_24152" data-name="그룹 24152" opacity="0.25">
          <g id="그룹_24151" data-name="그룹 24151">
            <g id="그룹_24150" data-name="그룹 24150" clip-path="url(#clip-path-35)">
              <path id="패스_48116" data-name="패스 48116" d="M104.5,60.72s8.779-2.337-2.682-11.046a28.929,28.929,0,0,0,8.809,6s2.331.061,3.249,3.32,1.305,3.369,1.305,3.369A91.686,91.686,0,0,0,104.5,60.72"/>
              <path id="패스_48117" data-name="패스 48117" d="M115.177,62.386A92.217,92.217,0,0,0,104.5,60.748l-.172-.01.166-.045c.027-.007,2.722-.748,3.139-2.862a4.5,4.5,0,0,0-.891-3.258,13.7,13.7,0,0,0-1.79-2.164,29.926,29.926,0,0,1-3.152-2.716l.036-.041a30.267,30.267,0,0,1,3.17,2.728,24.886,24.886,0,0,0,5.628,3.263,2.959,2.959,0,0,1,1.289.441,4.684,4.684,0,0,1,1.981,2.9c.887,3.151,1.271,3.345,1.287,3.351ZM104.655,60.7a92,92,0,0,1,10.437,1.61A10.96,10.96,0,0,1,113.852,59a4.635,4.635,0,0,0-1.954-2.864,2.868,2.868,0,0,0-1.27-.435l-.009,0a24.556,24.556,0,0,1-5.369-3.066c1.91,2,2.728,3.742,2.438,5.212-.367,1.858-2.458,2.67-3.033,2.86M102.161,49.97a31.894,31.894,0,0,0,2.481,2.132,30.217,30.217,0,0,0-2.481-2.132"/>
            </g>
          </g>
        </g>
        <g id="그룹_24155" data-name="그룹 24155" opacity="0.25">
          <g id="그룹_24154" data-name="그룹 24154">
            <g id="그룹_24153" data-name="그룹 24153" clip-path="url(#clip-path-36)">
              <path id="패스_48118" data-name="패스 48118" d="M134.616,78.254a25.349,25.349,0,0,0-7.463-8.68c-4.921-3.427-15-12.114-15.214-21.841,0,0-1.729,14.471,13.128,23.546,0,0,6.01,4.413,7.337,8.9Z"/>
            </g>
          </g>
        </g>
        <path id="패스_48119" data-name="패스 48119" d="M113.112,89.46a3.436,3.436,0,0,1-.407.7,5.122,5.122,0,0,1-.52.61,6.213,6.213,0,0,1-1.277.985,6.359,6.359,0,0,1-3.191.858,6.008,6.008,0,0,1-3.2-.934c-.115-.076-.228-.155-.339-.233-.028-.02-.056-.039-.083-.06l-.079-.065c-.053-.043-.1-.088-.156-.132s-.1-.089-.153-.134a1.6,1.6,0,0,1-.147-.139c-.094-.1-.186-.2-.275-.295-.044-.05-.091-.1-.132-.151s-.082-.106-.121-.16c-.08-.108-.157-.216-.231-.327s-.136-.232-.2-.348-.122-.238-.173-.364c.269.069.51.158.749.24.123.037.241.076.358.116l.172.061c.058.019.117.036.175.053.116.036.229.072.34.11s.227.063.337.1l.164.049.082.026.083.019c.11.028.219.054.326.084a10.949,10.949,0,0,0,2.512.326,12.745,12.745,0,0,0,2.555-.273c.442-.09.894-.2,1.362-.318.234-.06.471-.124.715-.19Z"/>
        <path id="패스_48120" data-name="패스 48120" d="M83.46,89.314a3.458,3.458,0,0,1-.4.688,5.009,5.009,0,0,1-.514.6,6.047,6.047,0,0,1-1.259.971,6.249,6.249,0,0,1-3.146.846,5.924,5.924,0,0,1-3.154-.921c-.114-.074-.224-.153-.335-.229-.027-.02-.055-.039-.081-.06l-.078-.064-.154-.13c-.051-.044-.1-.087-.151-.132a1.7,1.7,0,0,1-.145-.137c-.092-.1-.183-.193-.271-.291-.044-.05-.089-.1-.13-.149s-.081-.1-.12-.158c-.078-.106-.155-.213-.227-.323s-.134-.228-.2-.343-.121-.235-.171-.359c.265.068.5.156.738.237.121.036.238.075.353.115.058.019.114.04.171.06s.115.035.172.053c.114.035.226.07.335.107s.224.062.332.1c.054.016.109.031.163.048l.08.025.082.019c.108.027.216.053.321.083a10.762,10.762,0,0,0,2.478.321,12.606,12.606,0,0,0,2.519-.269c.436-.088.882-.194,1.343-.313.231-.06.465-.123.705-.188Z"/>
        <path id="패스_48121" data-name="패스 48121" d="M62.56,62l-1.3-1.429a31.489,31.489,0,0,1,13.5-6.794,66.223,66.223,0,0,1,15.22-1.907,100.436,100.436,0,0,1,17.661,1.245l-.345,1.9A98.265,98.265,0,0,0,89.978,53.8c-8.6.174-20.336,1.738-27.418,8.195m44.73-6.981h0l.172-.952Z"/>
        <path id="패스_48122" data-name="패스 48122" d="M101.8,50.276s4.757,3.809,8.349,5.194c0,0-.277-5.36-8.349-5.194" fill="#42c2ff"/>
        <path id="패스_48123" data-name="패스 48123" d="M112.583,57.333l-.079-.022-.071-.021-.139-.042c-.09-.028-.181-.056-.27-.086q-.267-.09-.529-.186-.523-.191-1.035-.406c-.681-.288-1.347-.607-2-.952s-1.285-.721-1.9-1.125-1.209-.842-1.78-1.3c-.142-.118-.285-.232-.424-.352l-.413-.365c-.07-.06-.136-.124-.2-.187l-.2-.191-.2-.19-.192-.2-.191-.2c-.063-.066-.128-.131-.188-.2l-.365-.411c-.061-.067-.118-.14-.176-.211l-.172-.213-.172-.213c-.056-.073-.109-.147-.164-.22-.107-.148-.218-.293-.321-.443l-.3-.457-.075-.114c-.024-.038-.046-.078-.069-.117l-.138-.235c-.091-.157-.186-.311-.265-.475l-.246-.484c-.078-.162-.147-.33-.22-.494l-.108-.247c-.034-.084-.064-.169-.1-.253l-.183-.506.262.469c.044.077.085.156.13.233l.143.226c.1.15.187.3.287.449l.308.433a14.724,14.724,0,0,0,1.368,1.607c.061.063.121.127.183.189l.191.181.19.181c.064.059.126.121.193.177l.395.344c.065.059.134.112.2.167l.2.164a19.22,19.22,0,0,0,1.7,1.21q.882.557,1.809,1.033c.619.314,1.248.607,1.888.873s1.288.511,1.941.732c.328.108.655.217.984.312.164.048.328.1.492.138l.244.065.119.03.058.014.051.012Z"/>
        <g id="그룹_24158" data-name="그룹 24158" opacity="0.25">
          <g id="그룹_24157" data-name="그룹 24157">
            <g id="그룹_24156" data-name="그룹 24156" clip-path="url(#clip-path-37)">
              <path id="패스_48124" data-name="패스 48124" d="M111.947,52.815s-9.119-1.01-11.98-6.016c0,0,3.22,7.268,12.757,9.175Z"/>
              <path id="패스_48125" data-name="패스 48125" d="M112.76,56.01,112.718,56a19.737,19.737,0,0,1-6.025-2.242,18.162,18.162,0,0,1-3.944-3.069,15.083,15.083,0,0,1-2.808-3.88l.049-.025c1.474,2.578,4.646,4.072,7.048,4.872a26.917,26.917,0,0,0,4.912,1.13l.019,0,0,.019Zm-12.475-8.658a16.353,16.353,0,0,0,2.5,3.3,18.842,18.842,0,0,0,9.9,5.285l-.762-3.1a27.1,27.1,0,0,1-4.9-1.13c-2.239-.746-5.146-2.094-6.736-4.359"/>
            </g>
          </g>
        </g>
        <g id="그룹_24161" data-name="그룹 24161" opacity="0.25">
          <g id="그룹_24160" data-name="그룹 24160">
            <g id="그룹_24159" data-name="그룹 24159" clip-path="url(#clip-path-38)">
              <path id="패스_48126" data-name="패스 48126" d="M102.033,143.586c.008,0,.02,0,.022.009a20.307,20.307,0,0,1-2.443,1.024c-3.037,1.145-5.608,2.115-8.324,2.029a12.661,12.661,0,0,1-7.57-3.052s9.9,2.322-1.576,19.045c0,0,10.974.415,19.875-.027,0,0-10.03-19.314.016-19.028"/>
            </g>
          </g>
        </g>
        <g id="그룹_24164" data-name="그룹 24164" opacity="0.25">
          <g id="그룹_24163" data-name="그룹 24163">
            <g id="그룹_24162" data-name="그룹 24162" clip-path="url(#clip-path-39)">
              <path id="패스_48127" data-name="패스 48127" d="M108.568,137.985s8.973-.106,12.282-10.834c0,0-3.2,10.993-5.7,13.07,0,0-3.822-3.231-6.586-2.236"/>
            </g>
          </g>
        </g>
        <g id="그룹_24167" data-name="그룹 24167" opacity="0.25">
          <g id="그룹_24166" data-name="그룹 24166">
            <g id="그룹_24165" data-name="그룹 24165" clip-path="url(#clip-path-40)">
              <path id="패스_48128" data-name="패스 48128" d="M75.01,137.764s-8.459,2.709-6.358-4.091c0,0-2.861,5.112-2.094,10.1l2.056.249s2.139-5.818,6.4-6.26"/>
            </g>
          </g>
        </g>
        <path id="패스_48129" data-name="패스 48129" d="M29.567,49.143a1.364,1.364,0,0,1-.3-.034L17.409,46.464a1.983,1.983,0,0,1-.036-3.863l11.081-2.694L18.062,36.353a1.382,1.382,0,1,1,.894-2.616l12.923,4.42a1.984,1.984,0,0,1-.174,3.8L21.28,44.5l8.587,1.915a1.383,1.383,0,0,1-.3,2.732m1.417-8.371h0Z" fill="#fff"/>
        <path id="패스_48130" data-name="패스 48130" d="M57.221,37.754a1.418,1.418,0,0,1-.3-.033l-16.7-3.726a2.229,2.229,0,0,1-.042-4.342L57.666,25.4,41.2,19.767a1.382,1.382,0,1,1,.894-2.615l18.2,6.226a2.229,2.229,0,0,1-.195,4.275L43.059,31.8l14.462,3.226a1.382,1.382,0,0,1-.3,2.731M59.4,25.993h0Z" fill="#fff"/>
        <path id="패스_48131" data-name="패스 48131" d="M50.467,58.375a1.356,1.356,0,0,1-.3-.033l-8.933-1.993a1.835,1.835,0,0,1-.034-3.574l7.215-1.755-6.726-2.3a1.382,1.382,0,0,1,.9-2.615l9.737,3.33a1.835,1.835,0,0,1-.161,3.519l-6.435,1.565,5.044,1.125a1.382,1.382,0,0,1-.3,2.731m.957-6.325h0Z" fill="#fff"/>
        <g id="그룹_24170" data-name="그룹 24170" opacity="0.25">
          <g id="그룹_24169" data-name="그룹 24169">
            <g id="그룹_24168" data-name="그룹 24168" clip-path="url(#clip-path-41)">
              <path id="패스_48132" data-name="패스 48132" d="M57.76,78.593S80,55.01,112.183,64.133a2.7,2.7,0,0,1,1.431.983,29.139,29.139,0,0,0,7.9,7.377,3.779,3.779,0,0,1,1.176,1.093c1.388,1.979,5.137,7.62,6.094,12.1l1.645-3.881-5.385-10.548s-7.795-7.132-9.841-8.9c0,0-37.154-10.427-57.442,16.237"/>
            </g>
          </g>
        </g>
      </g>
    </g>
  </g>
</svg>
