<svg xmlns="http://www.w3.org/2000/svg" xmlns:xlink="http://www.w3.org/1999/xlink" width="960" height="606" viewBox="0 0 960 606">
  <defs>
    <clipPath id="clip-path">
      <rect id="사각형_27641" data-name="사각형 27641" width="128.372" height="148.693" fill="none"/>
    </clipPath>
  </defs>
  <g id="그룹_22064" data-name="그룹 22064" transform="translate(21 31)">
    <path id="사각형_27644" data-name="사각형 27644" d="M180,0h0A180,180,0,0,1,360,180v0a0,0,0,0,1,0,0H0a0,0,0,0,1,0,0v0A180,180,0,0,1,180,0Z" transform="translate(579 395)" fill="#ffd01a"/>
    <rect id="사각형_27642" data-name="사각형 27642" width="36" height="72" rx="18" transform="translate(681 455)" fill="#171415"/>
    <rect id="사각형_27645" data-name="사각형 27645" width="36" height="72" rx="18" transform="translate(801 455)" fill="#171415"/>
  </g>
  <g id="그룹_22062" data-name="그룹 22062" clip-path="url(#clip-path)">
    <path id="패스_46257" data-name="패스 46257" d="M120.885,65.433A134.842,134.842,0,0,0,126.9,46.757a64.934,64.934,0,0,0,1.231-6.795c.114-.963.194-1.913.239-2.825a4.605,4.605,0,0,0-1.185-3.309c-1.065-1.174-1.979-2.108-2.888-2.95,0,0-.848-.781-.88-.806-2.493-2.271-5.267-4.6-8.478-7.1-.71-.554-1.414-1.118-2.114-1.682a64.561,64.561,0,0,0-8.051-5.8l-.433-.25c-4.011-2.315-7.388-4.079-10.629-5.553A118.4,118.4,0,0,0,81.883,4.87,51.746,51.746,0,0,0,68.659,2.651a143.126,143.126,0,0,0-23.651.92c-4.465.468-8.745,1.29-11.973,1.953l-.193.039c-.87.178-1.768.364-2.636.556-1.162.253-2.268.529-3.3.811a4.6,4.6,0,0,0-2.381,1.585l-.521.659c-.5.634-1,1.258-1.474,1.886A41.157,41.157,0,0,0,19.8,15.042a79.344,79.344,0,0,0-7.9,19.141A95.062,95.062,0,0,0,8.045,53.894l-.017.23a76.619,76.619,0,0,0-.265,8.822c0,.021,0,.042,0,.064.006.084.007.17.011.255l.016.587c.013.519.027,1.035.055,1.553a4.6,4.6,0,0,0,4.623,4.349c.417,0,.835-.01,1.253-.016.36-.006.721-.012,1.116-.015,1.527-.025,3.154-.035,4.7.058a59.476,59.476,0,0,1,11.006,1.955,79.1,79.1,0,0,0,12.006,2.027c.86.083,1.747.146,2.7.192a37.36,37.36,0,0,0-10.461,2.708c-5.6,2.549-11.953,6.015-16.645,12.4C15.618,92.5,12.438,97.88,11.652,104a21.7,21.7,0,0,0-.161,3.914,4.588,4.588,0,0,0,1.583,3.233A18.877,18.877,0,0,0,1.943,121.677a17.092,17.092,0,0,0,.4,13.819,18.522,18.522,0,0,0,7.743,7.955,31.018,31.018,0,0,0,4.19,1.993,51.638,51.638,0,0,0,15.012,3.125c3.593.288,8.969.318,14.142-2.726,3.936-2.311,6.811-6.893,7.692-12.255.789-4.8-.241-9.33-2.828-12.5a21.539,21.539,0,0,0-5.648-5.618c.651.161,1.3.337,1.937.562.5.172.993.356,1.458.532,1.242.48,2.458.993,3.484,1.434a4.6,4.6,0,0,0,5.838-2.018,11.453,11.453,0,0,1,.98-1.486,13.033,13.033,0,0,1,2.088-2.144c3.536-2.9,8.642-3.923,12.69-4.49,5-.7,10.481-1.34,17.243-2.022.64-.066,1.273-.133,1.9-.209,1.831-.222,3.456-.469,4.969-.758a4.6,4.6,0,0,0,2.376-1.252l.677-.671c.821-.824,1.625-1.668,2.363-2.494A94.762,94.762,0,0,0,111.69,84.974a132.54,132.54,0,0,0,9.2-19.536M55.353,69.293a12.364,12.364,0,0,1-.016-1.856c.007-.048.012-.1.017-.147a14.114,14.114,0,0,1,1.239-4.6c.143-.3.3-.612.484-.93a12.233,12.233,0,0,1,4.309,1.415,7.755,7.755,0,0,1,1.121.782,4.555,4.555,0,0,1,1.451,1.867c.048.16.063.208-.168.492a20.2,20.2,0,0,1-7.421,5.252,17.724,17.724,0,0,1-1.869.7,4.6,4.6,0,0,0,.847-2.976" fill="#c49921"/>
    <path id="패스_46258" data-name="패스 46258" d="M120.21,62.924a135.157,135.157,0,0,0,6.013-18.676,64.944,64.944,0,0,0,1.229-6.8c.115-.962.195-1.913.244-2.822a4.6,4.6,0,0,0-1.184-3.314c-1.065-1.173-1.978-2.108-2.888-2.95,0,0-.848-.781-.878-.806-2.5-2.271-5.27-4.592-8.484-7.1-.709-.554-1.412-1.118-2.113-1.682a64.469,64.469,0,0,0-8.052-5.8l-.433-.25c-4.01-2.316-7.388-4.08-10.625-5.558A118.637,118.637,0,0,0,81.21,2.358,51.76,51.76,0,0,0,67.985.139a143.023,143.023,0,0,0-23.652.916c-4.466.468-8.746,1.29-11.974,1.953l-.192.039c-.871.179-1.769.364-2.637.556-1.163.253-2.269.529-3.3.811A4.6,4.6,0,0,0,23.854,6l-.521.659c-.5.63-1,1.257-1.474,1.886a41.143,41.143,0,0,0-2.735,3.981A79.348,79.348,0,0,0,11.23,31.671,95.063,95.063,0,0,0,7.371,51.382l-.017.23a76.8,76.8,0,0,0-.262,8.819c0,.021,0,.042,0,.064,0,.084.007.17.01.255l.017.587c.012.519.026,1.035.054,1.553A4.6,4.6,0,0,0,11.8,67.239c.417,0,.835-.01,1.254-.016.359-.006.719-.012,1.115-.015,1.527-.025,3.154-.035,4.7.058a59.444,59.444,0,0,1,11,1.958,79.088,79.088,0,0,0,12.007,2.027c.86.083,1.746.146,2.7.192A37.384,37.384,0,0,0,34.117,74.15c-5.6,2.549-11.953,6.015-16.645,12.4-2.528,3.436-5.709,8.82-6.5,14.944a21.791,21.791,0,0,0-.161,3.914,4.592,4.592,0,0,0,1.583,3.233A18.879,18.879,0,0,0,1.265,119.163a17.1,17.1,0,0,0,.4,13.819,18.522,18.522,0,0,0,7.747,7.956,31.018,31.018,0,0,0,4.19,1.993,51.652,51.652,0,0,0,15.013,3.125c3.593.288,8.969.319,14.142-2.726,3.935-2.311,6.81-6.892,7.691-12.254.79-4.8-.24-9.33-2.827-12.5a21.55,21.55,0,0,0-5.648-5.617c.651.161,1.294.337,1.937.561.5.172.994.357,1.458.533,1.24.479,2.458.993,3.483,1.433a4.6,4.6,0,0,0,5.839-2.019,11.511,11.511,0,0,1,.98-1.485,13.027,13.027,0,0,1,2.088-2.143c3.536-2.9,8.641-3.923,12.69-4.49,5-.7,10.48-1.34,17.242-2.022.64-.066,1.275-.134,1.9-.21,1.831-.221,3.456-.469,4.97-.758a4.6,4.6,0,0,0,2.375-1.252l.676-.671c.822-.824,1.625-1.667,2.364-2.494a94.822,94.822,0,0,0,11.043-15.477,132.534,132.534,0,0,0,9.2-19.536M54.679,66.781a12.553,12.553,0,0,1-.012-1.86c.006-.048.012-.1.016-.147a14.1,14.1,0,0,1,1.24-4.6c.142-.3.3-.611.484-.929a12.234,12.234,0,0,1,4.308,1.415,7.5,7.5,0,0,1,1.121.782,4.545,4.545,0,0,1,1.452,1.867c.047.16.062.208-.169.492a20.2,20.2,0,0,1-7.42,5.252,17.665,17.665,0,0,1-1.869.7,4.6,4.6,0,0,0,.846-2.975" fill="#fff"/>
    <path id="패스_46259" data-name="패스 46259" d="M41.643,122.371a7.1,7.1,0,0,1,1.176,9.163c-2.219,3.476-6.227,4.422-10.067,4.58a42.136,42.136,0,0,1-12.155-1.5c-3.642-.956-8.44-2.532-10.069-6.3a9.393,9.393,0,0,1,.58-8.5c2.145-3.1,6.764-3.782,10.237-4.021a28.005,28.005,0,0,1,12.409,1.853,23.1,23.1,0,0,1,7.882,4.73" fill="#ffd01a"/>
    <path id="패스_46260" data-name="패스 46260" d="M109.129,68.36A106.2,106.2,0,0,1,95.478,90.623c-1.277,1.614-2.544,3.25-3.841,4.854-8.93.873-18.035.683-26.819,2.423-5.423,1.079-10.683,3.138-14.544,7.232a19.655,19.655,0,0,0-2.083,2.608c-.619-.226-1.217-.449-1.806-.672-2.714-1.037-5.3-2.419-8.046-3.313a48.834,48.834,0,0,0-7.924-1.771,48.126,48.126,0,0,0-12.021-.236c1.429-4.61,3.442-8.933,7.052-12.519,2.53-2.514,5.632-5.046,9.11-6.069,3.981-1.165,8.364-1.244,12.459-1.8C54.762,80.311,63.779,78.292,69,71.882c4.765-5.854,1.783-13.113-3.941-16.806a19.778,19.778,0,0,0-9.106-2.942,15.278,15.278,0,0,0-4.812.39,18.746,18.746,0,0,0-1.965,2.88c-.136.246-.264.485-.379.721a24.754,24.754,0,0,0-2.205,6.918c-1.217-.394-2.455-.724-3.7-1A59.573,59.573,0,0,0,31.14,60.573c-4.007-.1-8,.013-12-.045-1.616-.025-3.265-.037-4.914.041.029-.26.063-.522.1-.779a62.459,62.459,0,0,1,1.548-7.6c1.659-5.816,2.949-11.729,4.66-17.525,1.7-5.771,3.758-11.415,5.947-17.009.964-2.47,1.867-5.065,2.984-7.494.8-.233,1.59-.447,2.4-.629A71.856,71.856,0,0,1,42.925,8.015c6.962-.483,13.737.26,20.668.836A72.15,72.15,0,0,1,86.78,14.785c6.87,2.969,13.534,6.36,20.206,9.728a49.321,49.321,0,0,1,10.534,7.309c.691.616,1.4,1.255,2.125,1.919l-.064.712a66.261,66.261,0,0,1-2.054,11.115,156.081,156.081,0,0,1-8.4,22.789" fill="#ffd01a"/>
    <path id="패스_46261" data-name="패스 46261" d="M115.923,61.257a128.86,128.86,0,0,1-8.875,18.867,90.955,90.955,0,0,1-10.5,14.735q-1.063,1.194-2.191,2.314c-.222.219-.446.443-.669.664-1.535.294-3.082.52-4.657.71q-.9.108-1.815.2c-5.823.588-11.617,1.235-17.409,2.044-5.239.733-10.787,2.059-14.97,5.489a17.584,17.584,0,0,0-2.823,2.9,15.931,15.931,0,0,0-1.361,2.071c-1.2-.514-2.412-1.022-3.634-1.493-.537-.2-1.078-.4-1.623-.59a50.011,50.011,0,0,0-7.569-1.721c-2.449-.459-4.849-1.091-7.313-1.467a68.687,68.687,0,0,0-13.045-.965c-.26.009-.523.022-.781.037-.43.028-.857.069-1.282.116a16.97,16.97,0,0,1,.128-3.081c.6-4.634,2.933-9.136,5.64-12.813,3.809-5.18,9.084-8.314,14.849-10.942,6.761-3.078,14.716-2.041,21.546-5.079a24.7,24.7,0,0,0,9.123-6.562c2.51-3.1.795-6.49-1.885-8.76a16.375,16.375,0,0,0-9.625-3.422c-.388-.018-.773-.023-1.151-.006a22.555,22.555,0,0,0-2.264,3.72,18.726,18.726,0,0,0-1.657,6.125c-.008.059-.015.118-.019.181a17.118,17.118,0,0,0,0,2.552c-.631-.072-1.273-.119-1.919-.131q-.894-.014-1.776-.042c-1.359-.037-2.713-.1-4.074-.235a74.43,74.43,0,0,1-11.312-1.9,65.1,65.1,0,0,0-11.861-2.094c-1.683-.1-3.37-.093-5.053-.066-.778.006-1.554.026-2.327.031-.035-.631-.044-1.257-.064-1.89-.006-.173-.009-.352-.02-.527a74.5,74.5,0,0,1,.277-8.53,90.728,90.728,0,0,1,3.687-18.756A75.954,75.954,0,0,1,23.07,14.884a36.746,36.746,0,0,1,2.439-3.545c.638-.837,1.3-1.661,1.955-2.493,1.012-.281,2.036-.528,3.044-.748.939-.212,1.871-.4,2.775-.585,3.818-.784,7.646-1.474,11.531-1.887a137.411,137.411,0,0,1,22.888-.9,47.034,47.034,0,0,1,12.064,2,113.818,113.818,0,0,1,11.369,4.635,120.222,120.222,0,0,1,10.653,5.6,86.52,86.52,0,0,1,9.645,7.128c2.836,2.214,5.618,4.514,8.281,6.936l.79.727c.914.846,1.766,1.741,2.594,2.652q-.06,1.25-.212,2.5a60.924,60.924,0,0,1-1.147,6.318,130.005,130.005,0,0,1-5.816,18.041M95.476,90.623A106.306,106.306,0,0,0,109.127,68.36a156.308,156.308,0,0,0,8.4-22.789,66.164,66.164,0,0,0,2.056-11.115c.02-.238.042-.475.064-.711-.716-.663-1.43-1.3-2.125-1.92a49.229,49.229,0,0,0-10.535-7.311c-6.676-3.372-13.336-6.761-20.207-9.729A72.149,72.149,0,0,0,63.591,8.851c-6.929-.577-13.7-1.319-20.667-.837A71.735,71.735,0,0,0,31.86,9.532c-.806.182-1.6.4-2.4.628-1.116,2.43-2.019,5.025-2.983,7.494-2.191,5.6-4.249,11.239-5.948,17.005-1.712,5.8-3,11.708-4.661,17.525a62.865,62.865,0,0,0-1.548,7.6c-.035.262-.071.523-.1.78,1.648-.078,3.3-.066,4.913-.041,4.008.058,8-.058,12.005.044A59.612,59.612,0,0,1,42.9,62.032c1.244.282,2.483.61,3.7,1a24.89,24.89,0,0,1,2.2-6.917c.116-.237.243-.476.38-.721a18.688,18.688,0,0,1,1.965-2.879,15.249,15.249,0,0,1,4.812-.391,19.752,19.752,0,0,1,9.1,2.946c5.721,3.69,8.711,10.953,3.941,16.8-5.222,6.414-14.239,8.433-21.987,9.482-4.1.555-8.477.632-12.459,1.8-3.477,1.024-6.58,3.554-9.11,6.07-3.61,3.586-5.622,7.908-7.052,12.519a48.118,48.118,0,0,1,12.02.235,48.939,48.939,0,0,1,7.924,1.771c2.749.9,5.332,2.278,8.047,3.314.587.223,1.186.445,1.806.671a19.59,19.59,0,0,1,2.083-2.608c3.864-4.092,9.122-6.153,14.544-7.233,8.786-1.739,17.89-1.549,26.82-2.423,1.3-1.6,2.563-3.239,3.841-4.853" fill="#171415"/>
    <path id="패스_46262" data-name="패스 46262" d="M43.914,121.305c4.285,4.949,1.867,14.918-3.484,18.062-3.537,2.083-7.423,2.43-11.447,2.108a48.065,48.065,0,0,1-13.7-2.829c-3.824-1.5-7.63-3.816-9.466-7.651a12.571,12.571,0,0,1-.29-10.1c3.073-7.522,11.308-9.786,18.839-9.394a28.308,28.308,0,0,1,12.522,3.662,19.753,19.753,0,0,1,7.027,6.136m-1.091,10.232a7.1,7.1,0,0,0-1.181-9.166,23.135,23.135,0,0,0-7.881-4.73,28.04,28.04,0,0,0-12.41-1.853c-3.473.241-8.092.924-10.237,4.02a9.4,9.4,0,0,0-.579,8.5c1.632,3.772,6.426,5.346,10.068,6.3a42.186,42.186,0,0,0,12.147,1.507c3.839-.157,7.847-1.1,10.068-4.579" fill="#171415"/>
  </g>
</svg>
