<svg xmlns="http://www.w3.org/2000/svg" xmlns:xlink="http://www.w3.org/1999/xlink" width="139.591" height="200" viewBox="0 0 139.591 200">
  <defs>
    <clipPath id="clip-path">
      <rect id="사각형_28459" data-name="사각형 28459" width="43.728" height="41.43" transform="translate(92.788 49.352)" fill="none"/>
    </clipPath>
    <clipPath id="clip-path-2">
      <rect id="사각형_28460" data-name="사각형 28460" width="24.98" height="66.327" transform="translate(0.886 75.245)" fill="none"/>
    </clipPath>
    <clipPath id="clip-path-3">
      <rect id="사각형_28461" data-name="사각형 28461" width="20.129" height="20.256" transform="translate(72.036 121.042)" fill="none"/>
    </clipPath>
    <clipPath id="clip-path-4">
      <rect id="사각형_28462" data-name="사각형 28462" width="5.949" height="5.651" transform="translate(87.006 114.293)" fill="none"/>
    </clipPath>
    <clipPath id="clip-path-5">
      <rect id="사각형_28463" data-name="사각형 28463" width="16.901" height="18.302" transform="translate(73.853 117.061)" fill="none"/>
    </clipPath>
    <clipPath id="clip-path-6">
      <rect id="사각형_28464" data-name="사각형 28464" width="12.312" height="19.148" transform="translate(64.464 87.887)" fill="none"/>
    </clipPath>
    <clipPath id="clip-path-7">
      <rect id="사각형_28465" data-name="사각형 28465" width="43.716" height="9.588" transform="translate(24.11 85.322)" fill="none"/>
    </clipPath>
    <clipPath id="clip-path-8">
      <rect id="사각형_28466" data-name="사각형 28466" width="34.406" height="14.983" transform="translate(40.748 95.758)" fill="none"/>
    </clipPath>
    <clipPath id="clip-path-9">
      <rect id="사각형_28467" data-name="사각형 28467" width="25.932" height="18.726" transform="translate(54.284 146.431)" fill="none"/>
    </clipPath>
    <clipPath id="clip-path-10">
      <rect id="사각형_28468" data-name="사각형 28468" width="37.136" height="34.29" transform="translate(15.61 137.663)" fill="none"/>
    </clipPath>
    <clipPath id="clip-path-11">
      <rect id="사각형_28469" data-name="사각형 28469" width="6.664" height="1.663" transform="translate(43.426 160.8)" fill="none"/>
    </clipPath>
    <clipPath id="clip-path-12">
      <rect id="사각형_28470" data-name="사각형 28470" width="10.522" height="5.791" transform="translate(41.497 161.831)" fill="none"/>
    </clipPath>
    <clipPath id="clip-path-13">
      <rect id="사각형_28471" data-name="사각형 28471" width="30.373" height="31.793" transform="translate(24.745 167.447)" fill="none"/>
    </clipPath>
    <clipPath id="clip-path-14">
      <rect id="사각형_28472" data-name="사각형 28472" width="17.317" height="16.427" transform="translate(78.063 109.879)" fill="none"/>
    </clipPath>
    <clipPath id="clip-path-15">
      <rect id="사각형_28473" data-name="사각형 28473" width="5.475" height="5.036" transform="translate(74.038 102.375)" fill="none"/>
    </clipPath>
    <clipPath id="clip-path-16">
      <rect id="사각형_28474" data-name="사각형 28474" width="13.973" height="19.908" transform="translate(65.141 106.302)" fill="none"/>
    </clipPath>
    <clipPath id="clip-path-17">
      <rect id="사각형_28475" data-name="사각형 28475" width="48.845" height="15.825" transform="translate(23.282 76.817)" fill="none"/>
    </clipPath>
    <clipPath id="clip-path-18">
      <rect id="사각형_28476" data-name="사각형 28476" width="84.884" height="82.38" transform="translate(7.915 3.53)" fill="none"/>
    </clipPath>
    <clipPath id="clip-path-19">
      <rect id="사각형_28477" data-name="사각형 28477" width="75.053" height="32.652" transform="translate(4.852 41.337)" fill="none"/>
    </clipPath>
    <clipPath id="clip-path-20">
      <rect id="사각형_28478" data-name="사각형 28478" width="72.001" height="35.106" transform="translate(7.904 14.811)" fill="none"/>
    </clipPath>
    <clipPath id="clip-path-21">
      <rect id="사각형_28479" data-name="사각형 28479" width="2.785" height="2.334" transform="translate(96.922 22.571)" fill="none"/>
    </clipPath>
    <clipPath id="clip-path-22">
      <rect id="사각형_28480" data-name="사각형 28480" width="5.38" height="7.674" transform="translate(90.1 34.53)" fill="none"/>
    </clipPath>
    <clipPath id="clip-path-23">
      <rect id="사각형_28481" data-name="사각형 28481" width="12.164" height="5.215" transform="translate(83.368 39.423)" fill="none"/>
    </clipPath>
    <clipPath id="clip-path-24">
      <rect id="사각형_28482" data-name="사각형 28482" width="16.51" height="14.037" transform="translate(81.976 41.335)" fill="none"/>
    </clipPath>
    <clipPath id="clip-path-25">
      <rect id="사각형_28483" data-name="사각형 28483" width="16.662" height="21.78" transform="translate(81.718 43.466)" fill="none"/>
    </clipPath>
    <clipPath id="clip-path-26">
      <rect id="사각형_28484" data-name="사각형 28484" width="22.121" height="19.563" transform="translate(11.344 22.155)" fill="#9580a4"/>
    </clipPath>
    <clipPath id="clip-path-27">
      <rect id="사각형_28485" data-name="사각형 28485" width="6.276" height="18.851" transform="translate(78.781 46.191)" fill="none"/>
    </clipPath>
    <clipPath id="clip-path-28">
      <rect id="사각형_28486" data-name="사각형 28486" width="28.189" height="27.12" transform="translate(55.601 162.449)" fill="none"/>
    </clipPath>
    <clipPath id="clip-path-29">
      <rect id="사각형_28487" data-name="사각형 28487" width="5.27" height="2.183" transform="translate(71.916 153.398)" fill="none"/>
    </clipPath>
    <clipPath id="clip-path-30">
      <rect id="사각형_28488" data-name="사각형 28488" width="9.667" height="6.068" transform="translate(70.078 153.903)" fill="none"/>
    </clipPath>
    <clipPath id="clip-path-31">
      <rect id="사각형_28489" data-name="사각형 28489" width="51.029" height="18.248" transform="translate(25.284 108.409)" fill="none"/>
    </clipPath>
    <clipPath id="clip-path-32">
      <rect id="사각형_28490" data-name="사각형 28490" width="26.85" height="8.526" transform="translate(47.074 132.193)" fill="none"/>
    </clipPath>
    <clipPath id="clip-path-33">
      <rect id="사각형_28491" data-name="사각형 28491" width="17.09" height="24.642" transform="translate(64.93 108.683)" fill="none"/>
    </clipPath>
    <clipPath id="clip-path-34">
      <rect id="사각형_28492" data-name="사각형 28492" width="11.468" height="5.185" transform="translate(68.762 99.479)" fill="none"/>
    </clipPath>
  </defs>
  <g id="그룹_23487" data-name="그룹 23487" transform="translate(-710.204 -259)">
    <path id="패스_47550" data-name="패스 47550" d="M138.688,68.728A27.924,27.924,0,0,0,136.03,59.5c-2.032-4.041-5.109-7.1-9.141-8.224-6.751-1.886-13.5-3.406-21.226.608a12.449,12.449,0,0,0-4.2,2.98,34.786,34.786,0,0,0-6.989,10.181,20.269,20.269,0,0,0-1.689,5.976A34.22,34.22,0,0,0,93.5,81.987c.973,4.927,2.919,4.683,5.291,8.272s4.075,2.372,7.907,4.622,5.6,1.4,5.464,4.106,2.138,5.565,2.51,3.388.54-5.122,1.7-5.122,5.717-2.189,5.778,0,1.034,9.123,3.293,7.64-1.164-9.282,4.492-12.992,9.731-14.9,8.758-23.173M102.777,87.641c-2.033-.554-5.748-2.343-6.759-8.074a23.111,23.111,0,0,1,.157-7.8c1.9-11.368,8.179-14.533,11.462-15.413a2.291,2.291,0,0,1,2.784,1.545c.407,1.328.983,3.572,1.74,7.344,1.694,8.438-.112,9.991-1.937,14.309a27.558,27.558,0,0,1-5.235,7.466,2.249,2.249,0,0,1-1.359.683,2.224,2.224,0,0,1-.853-.062M114,93.6c-1.1-.669-6.569-2.433-6.569-3.284a.99.99,0,0,1,.311-.557c.908-1.033,3.55-2.827,4.251-5.282a9.392,9.392,0,0,1,2.736-4.126.632.632,0,0,1,1.057.429,94.721,94.721,0,0,0,1.007,10l0,.024c.73,3.771-1.7,3.467-2.8,2.8m8.332-1.338c-2.312.836-2.555-.2-2.691-2.072-.033-.443-.059-.933-.106-1.456-.182-2.044-.94-6.191-1.313-8.16a.288.288,0,0,1,.47-.271c1.971,1.67,7.265,3.563,9.217,5.205a2.18,2.18,0,0,1,.688.854c.73,2.068-3.406,4.866-6.265,5.9m8.637-8.819a3.431,3.431,0,0,1-1.072.027c-1.653-.192-4.242-1.388-8.234-4.649-4.987-4.075-4.987-6.022-4.731-9.932.191-2.919-.787-8.877-1.295-11.711a1.724,1.724,0,0,1,1.61-2.031,6.994,6.994,0,0,1,2.729.466c2.874,1.06,2.3,8.915,2.417,14.145s1.642,1.886,2.494.3-.3-12.529-.058-14.449,3.646.4,3.16,4.049,1.581,6.143,1.581,5.048a7.148,7.148,0,0,1,.877-2.5.583.583,0,0,1,1.041,0c2.851,5.707,2.479,12.56,1.447,16.907-.6,2.535-1.425,4.219-1.966,4.327" transform="translate(710.204 259)" fill="#50ff50"/>
    <g id="그룹_23387" data-name="그룹 23387" transform="translate(710.204 259)" opacity="0.5">
      <g id="그룹_23386" data-name="그룹 23386">
        <g id="그룹_23385" data-name="그룹 23385" clip-path="url(#clip-path)">
          <path id="패스_47551" data-name="패스 47551" d="M132.93,79.12c1.032-4.347,1.4-11.2-1.448-16.907a.583.583,0,0,0-1.04,0,7.159,7.159,0,0,0-.877,2.5c0,1.1-2.068-1.4-1.582-5.048s-2.913-5.97-3.159-4.05.909,12.869.058,14.45-2.372,4.927-2.494-.3.457-13.085-2.418-14.146a7,7,0,0,0-2.728-.465,1.723,1.723,0,0,0-1.611,2.03c.509,2.835,1.487,8.793,1.3,11.711-.256,3.911-.256,5.857,4.731,9.932,3.991,3.262,6.58,4.458,8.234,4.65a23.514,23.514,0,0,1-1.989,2.038c-1.952-1.643-7.245-3.535-9.217-5.205a.287.287,0,0,0-.469.271c.373,1.969,1.131,6.116,1.312,8.16.047.523.073,1.013.106,1.456a19.119,19.119,0,0,1-2.847.588,94.721,94.721,0,0,1-1.007-10,.632.632,0,0,0-1.057-.429,9.392,9.392,0,0,0-2.736,4.126c-.7,2.454-3.343,4.249-4.252,5.281A20.437,20.437,0,0,1,103.63,87.7a2.256,2.256,0,0,0,1.359-.684,27.573,27.573,0,0,0,5.235-7.465c1.824-4.318,3.63-5.871,1.937-14.309-.757-3.772-1.334-6.016-1.74-7.344a2.293,2.293,0,0,0-2.784-1.546c-3.283.881-9.56,4.046-11.463,15.414a23.133,23.133,0,0,0-.156,7.8,28.262,28.262,0,0,1-3.23-8.55,20.233,20.233,0,0,1,1.689-5.975,34.747,34.747,0,0,1,6.989-10.181,12.44,12.44,0,0,1,4.2-2.98c7.725-4.014,14.476-2.494,21.227-.608,4.031,1.125,7.109,4.182,9.14,8.224a30.408,30.408,0,0,1,.487,5.44A29.188,29.188,0,0,1,132.93,79.12" fill="#fff"/>
        </g>
      </g>
    </g>
    <path id="패스_47552" data-name="패스 47552" d="M27.812,84.116,25.846,88.3l-7.1,15.1-.642,37.894a19.144,19.144,0,0,1-13.347-2.747,4.87,4.87,0,0,1-2.222-3.214,95.3,95.3,0,0,1-1.653-13.3v0l0-.024h0c-1.1-21.084,5.378-36.466,9.165-43.525.575-1.073,1.088-1.953,1.5-2.633a5,5,0,0,1,.434-.6,4.87,4.87,0,0,1,2.674-1.617,44.947,44.947,0,0,1,7.557-.885L26.9,75.175Z" transform="translate(710.204 259)" fill="#fff"/>
    <g id="그룹_23390" data-name="그룹 23390" transform="translate(710.204 259)" opacity="0.25">
      <g id="그룹_23389" data-name="그룹 23389">
        <g id="그룹_23388" data-name="그룹 23388" clip-path="url(#clip-path-2)">
          <path id="패스_47553" data-name="패스 47553" d="M25.865,86.241,25.846,88.3l-7.1,15.1-.642,37.894a19.148,19.148,0,0,1-13.347-2.747,4.873,4.873,0,0,1-2.223-3.214,95.455,95.455,0,0,1-1.653-13.3c.037.573.739,10.155,7.026,10.173,4.268.012.79-19.1,7.724-37.223,3.982-10.408-.8-14.718-5.586-16.5.575-1.073,1.088-1.954,1.5-2.633a4.924,4.924,0,0,1,.434-.6c2.564.495,7.658,2.6,13.879,10.995" fill="#15296f"/>
        </g>
      </g>
    </g>
    <path id="패스_47554" data-name="패스 47554" d="M15.015,142.331A20.7,20.7,0,0,1,4.362,139.19a5.647,5.647,0,0,1-2.57-3.715A94.324,94.324,0,0,1,.074,113.584,87.309,87.309,0,0,1,2.618,95.873,74.7,74.7,0,0,1,10.9,75.45a5.661,5.661,0,0,1,3.592-2.564,45.1,45.1,0,0,1,7.705-.9.754.754,0,0,1,.367.085L27.25,74.5a.762.762,0,0,1,.406.6l.912,8.94a.759.759,0,0,1-.068.4l-8.993,19.132L18.868,141.3a.76.76,0,0,1-.623.735,18,18,0,0,1-3.23.293m7.027-68.823a44.152,44.152,0,0,0-7.219.862A4.133,4.133,0,0,0,12.2,76.243c-3.632,5.946-15.01,27.768-8.916,58.94A4.121,4.121,0,0,0,5.16,137.9a18.584,18.584,0,0,0,12.2,2.746l.631-37.259a.742.742,0,0,1,.072-.311l8.972-19.089-.849-8.323Z" transform="translate(710.204 259)" fill="#15296f"/>
    <path id="패스_47555" data-name="패스 47555" d="M92.107,128a18.031,18.031,0,0,1-.9,1.963c-2.443,4.626-7.256,10.148-9.112,12.2a2.31,2.31,0,0,1-1.989.744,11.2,11.2,0,0,1-9.017-6.383,2.3,2.3,0,0,1-.029-1.866,53.86,53.86,0,0,1,6.237-11.031c.577-.755,1.187-1.484,1.823-2.165a16.326,16.326,0,0,1,4.333-3.428l0,0a9.285,9.285,0,0,1,2.371-.851,9.283,9.283,0,0,1,5.141,3.221,8.521,8.521,0,0,1,1.7,4.858A6.927,6.927,0,0,1,92.107,128" transform="translate(710.204 259)" fill="#3390ff"/>
    <g id="그룹_23393" data-name="그룹 23393" transform="translate(710.204 259)" opacity="0.25">
      <g id="그룹_23392" data-name="그룹 23392">
        <g id="그룹_23391" data-name="그룹 23391" clip-path="url(#clip-path-3)">
          <path id="패스_47556" data-name="패스 47556" d="M91.533,126.014A20.6,20.6,0,0,1,90.625,128c-2.418,4.7-7.016,10.367-8.785,12.478a2.142,2.142,0,0,1-1.828.81,9.065,9.065,0,0,1-7.827-6.055,2.515,2.515,0,0,1,.062-1.858c.272-.645.687-1.592,1.225-2.719-.308,1.792-.163,5.063,4.105,7.247,6.142,3.141,14.229-11.348,14.229-16.354a3.7,3.7,0,0,1,.033-.508q.09.19.171.39a10.575,10.575,0,0,1,.155,1.832,7.946,7.946,0,0,1-.632,2.75" fill="#15296f"/>
        </g>
      </g>
    </g>
    <path id="패스_47557" data-name="패스 47557" d="M87.006,117.086l1.879-2.792,4.07,1.478-2.369,4.172Z" transform="translate(710.204 259)" fill="red"/>
    <g id="그룹_23396" data-name="그룹 23396" transform="translate(710.204 259)" opacity="0.25">
      <g id="그룹_23395" data-name="그룹 23395">
        <g id="그룹_23394" data-name="그룹 23394" clip-path="url(#clip-path-4)">
          <path id="패스_47558" data-name="패스 47558" d="M87.006,117.086l1.879-2.792,4.07,1.478-2.369,4.172Z" fill="#15296f"/>
        </g>
      </g>
    </g>
    <path id="패스_47559" data-name="패스 47559" d="M90.586,120.705a.755.755,0,0,1-.474-.167l-3.58-2.858a.76.76,0,0,1-.157-1.019l1.88-2.792a.759.759,0,0,1,.89-.29l4.07,1.479a.759.759,0,0,1,.4,1.09l-2.369,4.172a.762.762,0,0,1-.517.371.781.781,0,0,1-.144.014m-2.558-3.776,2.337,1.866,1.485-2.616-2.666-.968Z" transform="translate(710.204 259)" fill="#15296f"/>
    <path id="패스_47560" data-name="패스 47560" d="M92.108,128a18.018,18.018,0,0,1-.9,1.962c-5.374.516-10.612-3.267-13.911-6.333.578-.755,1.187-1.485,1.824-2.165l.219.169A18.616,18.616,0,0,0,92.108,128" transform="translate(710.204 259)" fill="#dbdbdb"/>
    <g id="그룹_23399" data-name="그룹 23399" transform="translate(710.204 259)" opacity="0.5">
      <g id="그룹_23398" data-name="그룹 23398">
        <g id="그룹_23397" data-name="그룹 23397" clip-path="url(#clip-path-5)">
          <path id="패스_47561" data-name="패스 47561" d="M90.753,120.1a16.776,16.776,0,0,1-2.495,8.068c-3.323,5.606-8.707,8.556-12.023,6.589a5.381,5.381,0,0,1-2.383-4.042,47.836,47.836,0,0,1,3.272-6.2c.543-.854,1.122-1.684,1.735-2.465a17.359,17.359,0,0,1,4.3-4.046l.005,0a9.294,9.294,0,0,1,2.339-.935,9.283,9.283,0,0,1,5.252,3.036" fill="#fff"/>
        </g>
      </g>
    </g>
    <path id="패스_47562" data-name="패스 47562" d="M90.2,130.767c-5.206,0-10.124-3.518-13.422-6.585a.76.76,0,0,1-.086-1.019c.617-.806,1.247-1.554,1.872-2.222a.761.761,0,0,1,1.021-.082l.219.17a.683.683,0,0,1,.116.112,17.341,17.341,0,0,0,7.926,5.256,16.8,16.8,0,0,0,4.282.84.76.76,0,0,1,.693,1.032,18.842,18.842,0,0,1-.943,2.045.76.76,0,0,1-.6.4c-.36.035-.721.051-1.079.051m-11.871-7.228c3.194,2.862,7.755,5.942,12.4,5.694.1-.194.19-.384.276-.57a19.909,19.909,0,0,1-3.619-.818,18.867,18.867,0,0,1-8.239-5.28q-.408.466-.815.974" transform="translate(710.204 259)" fill="#15296f"/>
    <path id="패스_47563" data-name="패스 47563" d="M80.38,143.683a3.075,3.075,0,0,1-.37-.023,13.083,13.083,0,0,1-4.733-1.521,11.479,11.479,0,0,1-4.88-5.294,3.059,3.059,0,0,1-.041-2.483,54.783,54.783,0,0,1,6.334-11.2c.617-.807,1.247-1.555,1.872-2.223,2.345-2.506,4.737-4.023,7.11-4.506a.75.75,0,0,1,.291,0,10.126,10.126,0,0,1,3.579,1.584,9.009,9.009,0,0,1,3.884,7.2,7.543,7.543,0,0,1-.608,3.052,19.025,19.025,0,0,1-.942,2.046c-2.467,4.672-7.27,10.2-9.22,12.356a3.072,3.072,0,0,1-2.276,1.012m5.442-25.725a12.651,12.651,0,0,0-6.15,4.022c-.591.632-1.188,1.341-1.775,2.108a53.216,53.216,0,0,0-6.14,10.866,1.534,1.534,0,0,0,.018,1.247,10.385,10.385,0,0,0,8.42,5.95,1.547,1.547,0,0,0,1.333-.5c1.912-2.116,6.616-7.526,9-12.047a17.387,17.387,0,0,0,.867-1.879,6.215,6.215,0,0,0,.51-2.426,7.468,7.468,0,0,0-3.236-6.036,8.83,8.83,0,0,0-2.85-1.305M92.108,128h0Z" transform="translate(710.204 259)" fill="#15296f"/>
    <path id="패스_47564" data-name="패스 47564" d="M82.869,142.051l-.06,0a13.492,13.492,0,0,1-9.575-4.573,11.374,11.374,0,0,1-2.28-4.062.76.76,0,0,1,1.469-.39,10.113,10.113,0,0,0,2.015,3.52,11.973,11.973,0,0,0,8.49,3.989.76.76,0,0,1-.059,1.518" transform="translate(710.204 259)" fill="#15296f"/>
    <path id="패스_47565" data-name="패스 47565" d="M68.927,87.887s4.993,2.964,7.848,11.548l-1.3,7.6L71.02,106.3,64.464,88.981Z" transform="translate(710.204 259)" fill="#fff"/>
    <g id="그룹_23402" data-name="그룹 23402" transform="translate(710.204 259)" opacity="0.25">
      <g id="그룹_23401" data-name="그룹 23401">
        <g id="그룹_23400" data-name="그룹 23400" clip-path="url(#clip-path-6)">
          <path id="패스_47566" data-name="패스 47566" d="M68.927,87.887s4.993,2.964,7.848,11.548l-1.3,7.6L71.02,106.3,64.464,88.981Z" fill="#15296f"/>
        </g>
      </g>
    </g>
    <path id="패스_47567" data-name="패스 47567" d="M75.475,107.8a.741.741,0,0,1-.124-.01l-4.455-.734a.76.76,0,0,1-.587-.481L63.753,89.25a.759.759,0,0,1,.53-1.007l4.463-1.094a.76.76,0,0,1,.569.084c.214.127,5.27,3.21,8.182,11.962a.754.754,0,0,1,.028.368l-1.3,7.6a.761.761,0,0,1-.749.632m-3.9-2.173,3.276.54L75.994,99.5A24.982,24.982,0,0,0,71.264,91a14.825,14.825,0,0,0-2.48-2.3l-3.305.81Z" transform="translate(710.204 259)" fill="#15296f"/>
    <path id="패스_47568" data-name="패스 47568" d="M79.68,162.449c-9.379,6.018-21.276.125-21.276.125s1.338-2.372.791-4.135-3.6-9.175-3.6-9.175a10.073,10.073,0,0,1-1.316.389,15.385,15.385,0,0,1-5.368.149,23.348,23.348,0,0,1,1.408,2.834,34.507,34.507,0,0,1,2.12,6.9,21.508,21.508,0,0,1-1.39,11.553c-7.411,3.1-22.087-3.1-22.087-3.1l.973-3.284s-9.879-9-14.331-27.04h0c-.513-2.078-.954-4.276-1.3-6.593-3.631-24.365,7.039-41.064,9.8-44.9.4-.557.635-.844.635-.844L66.22,89.142q.851.979,1.6,1.977a36.685,36.685,0,0,1,3,4.638,38.082,38.082,0,0,1,4.334,14.122,51.422,51.422,0,0,1-3.247,23.5l.512,1.223c.362.868.892,2.138,1.5,3.617,1.757,4.242,4.195,10.2,5.325,13.281.18.491.326.909.432,1.236,1.2,3.725,0,9.712,0,9.712" transform="translate(710.204 259)" fill="#fff"/>
    <g id="그룹_23405" data-name="그룹 23405" transform="translate(710.204 259)" opacity="0.25">
      <g id="그룹_23404" data-name="그룹 23404">
        <g id="그룹_23403" data-name="그룹 23403" clip-path="url(#clip-path-7)">
          <path id="패스_47569" data-name="패스 47569" d="M67.826,91.12c-23.7,10.094-41.219-2.94-43.716-4.954.4-.558.635-.844.635-.844L66.22,89.143q.851.978,1.606,1.977" fill="#15296f"/>
        </g>
      </g>
    </g>
    <g id="그룹_23408" data-name="그룹 23408" transform="translate(710.204 259)" opacity="0.25">
      <g id="그룹_23407" data-name="그룹 23407">
        <g id="그룹_23406" data-name="그룹 23406" clip-path="url(#clip-path-8)">
          <path id="패스_47570" data-name="패스 47570" d="M75.154,109.879l-20.014.862L40.748,98.213c.162.072,17.4,7.741,30.073-2.455a38.075,38.075,0,0,1,4.333,14.121" fill="#15296f"/>
        </g>
      </g>
    </g>
    <g id="그룹_23411" data-name="그룹 23411" transform="translate(710.204 259)" opacity="0.25">
      <g id="그룹_23410" data-name="그룹 23410">
        <g id="그룹_23409" data-name="그룹 23409" clip-path="url(#clip-path-9)">
          <path id="패스_47571" data-name="패스 47571" d="M79.68,162.449c-9.379,6.018-21.276.125-21.276.125s1.338-2.372.791-4.135-3.6-9.175-3.6-9.175a10.073,10.073,0,0,1-1.316.389V149.6a24.673,24.673,0,0,0,6.831-3.168s1.745,4.479,3.329,8.064c2.311,5.231,14.78,3.467,14.84-1.824.006-.441-.052-.827-.035-1.17.18.491.326.909.432,1.236,1.2,3.725,0,9.712,0,9.712" fill="#15296f"/>
        </g>
      </g>
    </g>
    <g id="그룹_23414" data-name="그룹 23414" transform="translate(710.204 259)" opacity="0.25">
      <g id="그룹_23413" data-name="그룹 23413">
        <g id="그룹_23412" data-name="그룹 23412" clip-path="url(#clip-path-10)">
          <path id="패스_47572" data-name="패스 47572" d="M51.055,171.086c-7.412,3.1-22.087-3.1-22.087-3.1l.973-3.285s-9.879-9-14.331-27.04c.075.18,9.8,21.951,20.857,23.341,11.616,1.459,14.575-3.482,13.825-7.336-.134-.692-.106-1,.033-1.032a34.585,34.585,0,0,1,2.12,6.9,21.516,21.516,0,0,1-1.39,11.552" fill="#15296f"/>
        </g>
      </g>
    </g>
    <path id="패스_47573" data-name="패스 47573" d="M52.019,163.943c0,2.032-2.355,3.68-5.261,3.68s-5.261-1.648-5.261-3.68,2.355-3.68,5.261-3.68,5.261,1.648,5.261,3.68" transform="translate(710.204 259)" fill="red"/>
    <g id="그룹_23417" data-name="그룹 23417" transform="translate(710.204 259)" opacity="0.5">
      <g id="그룹_23416" data-name="그룹 23416">
        <g id="그룹_23415" data-name="그룹 23415" clip-path="url(#clip-path-11)">
          <path id="패스_47574" data-name="패스 47574" d="M50.09,161.632c0,.459-1.492.832-3.332.832s-3.332-.373-3.332-.832,1.491-.832,3.332-.832,3.332.373,3.332.832" fill="#fff"/>
        </g>
      </g>
    </g>
    <g id="그룹_23420" data-name="그룹 23420" transform="translate(710.204 259)" opacity="0.25">
      <g id="그룹_23419" data-name="그룹 23419">
        <g id="그룹_23418" data-name="그룹 23418" clip-path="url(#clip-path-12)">
          <path id="패스_47575" data-name="패스 47575" d="M51.112,161.877a2.2,2.2,0,0,1,.073.555c0,1.7-1.974,3.085-4.41,3.085s-4.409-1.381-4.409-3.085a2.208,2.208,0,0,1,.084-.6,2.982,2.982,0,0,0-.953,2.111c0,2.033,2.355,3.68,5.261,3.68s5.261-1.647,5.261-3.68a2.962,2.962,0,0,0-.907-2.065" fill="#15296f"/>
        </g>
      </g>
    </g>
    <path id="패스_47576" data-name="패스 47576" d="M45.9,172.718a36.85,36.85,0,0,1-8.855-1.282,64.306,64.306,0,0,1-8.373-2.748.76.76,0,0,1-.433-.916l.841-2.841a46.3,46.3,0,0,1-6.346-8.227,63.114,63.114,0,0,1-5.28-10.637,70.148,70.148,0,0,1-3.9-14.885,66.833,66.833,0,0,1-.125-19.136A64.172,64.172,0,0,1,17.26,97.455a50.63,50.63,0,0,1,6.9-12.614.76.76,0,0,1,.658-.276L66.29,88.386a.76.76,0,0,1,.5.258,37.43,37.43,0,0,1,8.042,15.267,44.578,44.578,0,0,1,1.2,14.561,52.445,52.445,0,0,1-3.306,14.907c.933,2.226,6.548,15.648,7.672,19.124,1.252,3.87.073,9.844.022,10.1a.758.758,0,0,1-.334.49,17.92,17.92,0,0,1-7.6,2.674,24.462,24.462,0,0,1-7.1-.245,29.372,29.372,0,0,1-7.328-2.262.761.761,0,0,1-.325-1.055c.327-.582,1.094-2.354.727-3.537-.436-1.407-2.548-6.606-3.3-8.454a14.833,14.833,0,0,1-4.893.5,34.529,34.529,0,0,1,2.917,8.681A22.075,22.075,0,0,1,51.747,171.4a.757.757,0,0,1-.4.389,14.143,14.143,0,0,1-5.447.931M29.893,167.54c2.81,1.1,14.326,5.3,20.582,2.958A20.74,20.74,0,0,0,51.7,159.68,31.33,31.33,0,0,0,48.27,150.2a.76.76,0,0,1,.778-1.148,13.9,13.9,0,0,0,6.286-.5.759.759,0,0,1,.969.422c.125.3,3.067,7.463,3.618,9.238a6.208,6.208,0,0,1-.494,3.986,29.506,29.506,0,0,0,6.271,1.828c3.566.614,8.735.746,13.295-2.044.219-1.26.94-5.993-.036-9.012-1.181-3.652-7.686-19.14-7.751-19.3a.761.761,0,0,1,0-.6,50.824,50.824,0,0,0,3.315-14.77c.569-7.695-.484-18.847-8.679-28.437L25.09,86.117a52.375,52.375,0,0,0-6.438,11.954,64.118,64.118,0,0,0-3.59,32.886,65.573,65.573,0,0,0,8.929,24.889,42.788,42.788,0,0,0,6.462,8.3.761.761,0,0,1,.217.777Z" transform="translate(710.204 259)" fill="#15296f"/>
    <path id="패스_47577" data-name="패스 47577" d="M51.8,171.038c-8.642.587-16.11-.205-23.276-3.591-2.036,9.756-3.774,18.692-3.779,27.207a.834.834,0,0,0,.6.763,14.4,14.4,0,0,0,4.953.862.813.813,0,0,0,.7-.486l.147-.366a.88.88,0,0,1,1.046-.458l2.323.591a.852.852,0,0,1,.669.724l.033.393a.866.866,0,0,0,.756.741l4.339.71a.837.837,0,0,0,1-.614.827.827,0,0,1,.94-.624l1.5.156a.923.923,0,0,1,.752.51l.257.565a.918.918,0,0,0,.742.508l5.139.587a3.092,3.092,0,0,0,3.267-1.711,15.791,15.791,0,0,0,.463-10.168c-.9-3.233-4.729-4.448-4.729-4.448A82.8,82.8,0,0,0,51.8,171.038" transform="translate(710.204 259)" fill="#fff"/>
    <g id="그룹_23423" data-name="그룹 23423" transform="translate(710.204 259)" opacity="0.25">
      <g id="그룹_23422" data-name="그룹 23422">
        <g id="그룹_23421" data-name="그룹 23421" clip-path="url(#clip-path-13)">
          <path id="패스_47578" data-name="패스 47578" d="M24.745,194.655a.831.831,0,0,0,.6.761,14.4,14.4,0,0,0,4.954.864.816.816,0,0,0,.7-.486l.147-.366a.877.877,0,0,1,1.046-.459l2.322.592a.85.85,0,0,1,.67.723l.032.393a.869.869,0,0,0,.757.742l4.338.709a.837.837,0,0,0,1-.615.729.729,0,0,1,.322-.479.944.944,0,0,1,.618-.144l1.5.156a.925.925,0,0,1,.752.51l.256.565a.926.926,0,0,0,.743.509l5.139.586a3.091,3.091,0,0,0,3.267-1.711,14.153,14.153,0,0,0,.463-10.168c-.161-.449-.338-.871-.526-1.268l-.771-.1s.094,7.914-13.489,5.416-10.366-16.359-8.032-22.062a6.333,6.333,0,0,0,.219-.622,28.346,28.346,0,0,1-3.253-1.252c-2.036,9.756-3.774,18.692-3.779,27.208" fill="#15296f"/>
        </g>
      </g>
    </g>
    <path id="패스_47579" data-name="패스 47579" d="M95.262,114.4c-.912,2.737-7.238.243-7.238.243l-5.266,3.577a21.593,21.593,0,0,1,2.537,1.718c1.144.912,2.243,2.046,2.243,3.038,0,2.2-1.166,3.743-4.143,3.325a13.285,13.285,0,0,1-3.165-.931c-1.72-.713-2.242-2.239-2.159-3.98a19.31,19.31,0,0,1,2.415-7.208v0c.362-.675.616-1.086.616-1.086a18,18,0,0,1,4.919-3.22,5.239,5.239,0,0,1,2.428-.4c2.069.243,4.813,1.136,6.142,2.515a2.291,2.291,0,0,1,.67,2.411" transform="translate(710.204 259)" fill="#fff"/>
    <g id="그룹_23426" data-name="그룹 23426" transform="translate(710.204 259)" opacity="0.25">
      <g id="그룹_23425" data-name="그룹 23425">
        <g id="그룹_23424" data-name="그룹 23424" clip-path="url(#clip-path-14)">
          <path id="패스_47580" data-name="패스 47580" d="M95.262,114.4c-.912,2.737-7.238.243-7.238.243l-5.266,3.577a21.593,21.593,0,0,1,2.537,1.718,7.331,7.331,0,0,0-1.9,6.363,13.285,13.285,0,0,1-3.165-.931c-1.72-.713-2.242-2.239-2.159-3.98.72-2.2,1.63-4.9,2.415-7.208v0c.362-.675.616-1.086.616-1.086a18,18,0,0,1,4.919-3.22c-.311,1.023-.5,2.684,1.412,3.016,2.631.458,7.093,1.507,7.158-.9a2.291,2.291,0,0,1,.67,2.411" fill="#15296f"/>
        </g>
      </g>
    </g>
    <path id="패스_47581" data-name="패스 47581" d="M84.323,127.134a11.854,11.854,0,0,1-4.383-1.057,3.986,3.986,0,0,1-2.378-2.545c-1.289-3.99,2.723-10.556,2.894-10.834a.724.724,0,0,1,.127-.154,21.018,21.018,0,0,1,2.614-2.029c2.076-1.362,3.873-1.965,5.342-1.792,2.583.3,5.911,1.494,7.116,3.391a2.884,2.884,0,0,1,.329,2.531,2.421,2.421,0,0,1-1.314,1.446,4.553,4.553,0,0,1-1.91.355,15.141,15.141,0,0,1-4.633-.949l-3.969,2.695c.426.277.94.632,1.457,1.035,1.806,1.406,2.684,2.633,2.684,3.753a3.979,3.979,0,0,1-1.593,3.513,4.207,4.207,0,0,1-2.383.641M81.7,113.584c-1.094,1.8-3.565,6.769-2.688,9.481a2.5,2.5,0,0,0,1.512,1.607c3.15,1.3,4.643,1.022,5.34.556a2.519,2.519,0,0,0,.917-2.248c0-1.105-2.621-3.1-4.393-4.093a.761.761,0,0,1-.054-1.292l5.267-3.576a.761.761,0,0,1,.706-.079c1.548.609,4.472,1.358,5.724.773a.884.884,0,0,0,.513-.549,1.357,1.357,0,0,0-.17-1.235c-.887-1.4-3.758-2.431-6.009-2.7-2.2-.258-5.485,2.268-6.665,3.351" transform="translate(710.204 259)" fill="#15296f"/>
    <path id="패스_47582" data-name="패스 47582" d="M48.978,121.147s-4.683,4.075-1.612,11.839c3.172,8.021,20.406,5.86,25.853.558,6.337-6.168.466-19.754-7.174-18.417s-17.067,6.02-17.067,6.02" transform="translate(710.204 259)" fill="#fff"/>
    <path id="패스_47583" data-name="패스 47583" d="M58.494,139.039a21.538,21.538,0,0,1-4.48-.442c-3.75-.8-6.294-2.647-7.356-5.332a12.493,12.493,0,0,1-.345-9.39,9.008,9.008,0,0,1,2.166-3.3.758.758,0,0,1,.16-.107c.389-.193,9.614-4.748,17.275-6.088a7.207,7.207,0,0,1,5.362,1.253,11.869,11.869,0,0,1,3.776,4.457,14.521,14.521,0,0,1,1.6,7.235,9.948,9.948,0,0,1-2.9,6.765c-3.087,3.005-9.465,4.951-15.255,4.951m-9.079-17.26a7.927,7.927,0,0,0-1.717,2.729,11.057,11.057,0,0,0,.374,8.2c1.094,2.766,4.009,3.922,6.261,4.4,6.061,1.3,14.81-.66,18.355-4.111,3.329-3.24,2.857-8.6,1.01-12.219-1.411-2.76-4.128-5.5-7.522-4.9-7.027,1.229-15.736,5.4-16.761,5.9" transform="translate(710.204 259)" fill="#15296f"/>
    <path id="패스_47584" data-name="패스 47584" d="M83.109,114.916a19.221,19.221,0,0,1-.192,2.292c-.762,5.517-3.57,12.792-4.68,15.522a2.455,2.455,0,0,1-1.72,1.468,11.919,11.919,0,0,1-11.343-3.109,2.444,2.444,0,0,1-.707-1.855c.061-1.184.21-3.274.566-5.744v0h0q.051-.354.107-.718a47.666,47.666,0,0,1,1.556-6.838c.3-.965.647-1.916,1.037-2.829a14.16,14.16,0,0,1,5.155-6.722,9.99,9.99,0,0,1,5.587.939,8.409,8.409,0,0,1,1.956,1.368,9.562,9.562,0,0,1,2.24,3.288,7.39,7.39,0,0,1,.437,2.944" transform="translate(710.204 259)" fill="#50ff50"/>
    <path id="패스_47585" data-name="패스 47585" d="M74.038,105.853l.865-3.477h4.61l-.854,5.036Z" transform="translate(710.204 259)" fill="red"/>
    <g id="그룹_23429" data-name="그룹 23429" transform="translate(710.204 259)" opacity="0.25">
      <g id="그룹_23428" data-name="그룹 23428">
        <g id="그룹_23427" data-name="그룹 23427" clip-path="url(#clip-path-15)">
          <path id="패스_47586" data-name="패스 47586" d="M74.038,105.853l.865-3.477h4.61l-.854,5.036Z" fill="#15296f"/>
        </g>
      </g>
    </g>
    <path id="패스_47587" data-name="패스 47587" d="M78.659,108.171a.75.75,0,0,1-.243-.04l-4.621-1.558a.761.761,0,0,1-.495-.9l.865-3.477a.761.761,0,0,1,.738-.577h4.61a.761.761,0,0,1,.75.887l-.854,5.036a.759.759,0,0,1-.75.633m-3.714-2.815,3.114,1.05.554-3.271H75.5Z" transform="translate(710.204 259)" fill="#15296f"/>
    <path id="패스_47588" data-name="패스 47588" d="M83.109,114.915a19.221,19.221,0,0,1-.192,2.292c-5.189,2.47-11.805.59-16.22-1.28.3-.965.647-1.916,1.037-2.829l.281.09a19.818,19.818,0,0,0,15.094,1.727" transform="translate(710.204 259)" fill="#dbdbdb"/>
    <g id="그룹_23432" data-name="그룹 23432" transform="translate(710.204 259)" opacity="0.5">
      <g id="그룹_23431" data-name="그룹 23431">
        <g id="그룹_23430" data-name="그룹 23430" clip-path="url(#clip-path-16)">
          <path id="패스_47589" data-name="패스 47589" d="M78.4,116.577c-1.759,6.275-6.2,10.518-9.907,9.476a5.379,5.379,0,0,1-3.348-3.287,47.794,47.794,0,0,1,1.555-6.838c.3-.965.648-1.916,1.038-2.829a14.164,14.164,0,0,1,5.154-6.722,9.989,9.989,0,0,1,5.587.939,16.112,16.112,0,0,1-.079,9.261" fill="#fff"/>
        </g>
      </g>
    </g>
    <path id="패스_47590" data-name="패스 47590" d="M77.221,119.152A28.814,28.814,0,0,1,66.4,116.628a.76.76,0,0,1-.429-.928c.324-1.03.682-2.006,1.064-2.9a.76.76,0,0,1,.931-.426l.281.091a.74.74,0,0,1,.147.065,18.513,18.513,0,0,0,9.87,2.384,17.765,17.765,0,0,0,4.6-.719.761.761,0,0,1,1,.734,19.918,19.918,0,0,1-.2,2.383.759.759,0,0,1-.426.582,13.9,13.9,0,0,1-6.023,1.258m-9.584-3.658c4.258,1.716,9.992,3.161,14.581,1.2q.046-.4.078-.768a21.068,21.068,0,0,1-3.975.511,20.026,20.026,0,0,1-10.186-2.307q-.26.659-.5,1.368" transform="translate(710.204 259)" fill="#15296f"/>
    <path id="패스_47591" data-name="패스 47591" d="M73.508,135.3a13.134,13.134,0,0,1-2.091-.165,12.175,12.175,0,0,1-6.78-3.51,3.2,3.2,0,0,1-.929-2.432,58.243,58.243,0,0,1,2.263-13.5c.324-1.03.682-2,1.064-2.9,1.431-3.351,3.267-5.73,5.457-7.071a.754.754,0,0,1,.272-.1,10.72,10.72,0,0,1,4.136.283,9.541,9.541,0,0,1,6.472,5.765,7.981,7.981,0,0,1,.5,3.254,19.95,19.95,0,0,1-.2,2.384c-.768,5.566-3.563,12.836-4.729,15.7a3.22,3.22,0,0,1-2.253,1.923,14.231,14.231,0,0,1-3.18.363m-.356-28.193a13.5,13.5,0,0,0-4.719,6.288c-.362.849-.7,1.777-1.011,2.759a56.714,56.714,0,0,0-2.2,13.117,1.692,1.692,0,0,0,.485,1.279,11.1,11.1,0,0,0,10.634,2.9,1.692,1.692,0,0,0,1.187-1.014c1.145-2.814,3.887-9.942,4.632-15.339a18.343,18.343,0,0,0,.185-2.2,6.649,6.649,0,0,0-.376-2.633,8,8,0,0,0-5.41-4.876,9.556,9.556,0,0,0-3.411-.285m9.957,7.807h0Z" transform="translate(710.204 259)" fill="#15296f"/>
    <path id="패스_47592" data-name="패스 47592" d="M80.14,101.381c-.692,2.076-7.2.677-7.2.677s-2.92.547-3.406,2.433c0,0,.4.05,1,.172,1.608.328,4.641,1.176,5.261,2.99.852,2.494,2.195,10.047-5.17,11.252a8.11,8.11,0,0,1-6.021-1.764A29.78,29.78,0,0,1,55.14,121.4a19.149,19.149,0,0,1-7.744.367q-.819-.143-1.612-.325c-7.967-1.827-14-6.483-15.539-8.251L24.284,105.4a7.6,7.6,0,0,1,3.649-7.967c4.8-2.859,16.057.121,25,8.94,0,0,12.042-9.731,18.307-9.488,4.317.168,7.242,1.253,8.415,2.591a1.889,1.889,0,0,1,.487,1.9" transform="translate(710.204 259)" fill="#fff"/>
    <path id="패스_47593" data-name="패스 47593" d="M26.109,76.817a6,6,0,0,0-.683.456,5.45,5.45,0,0,0,.439,8.967c6.007,3.735,20.874,10.425,42.548,3.16a5.426,5.426,0,0,0,3.713-5.257,7.229,7.229,0,0,0-2.044-4.711S51.35,90.5,26.109,76.817" transform="translate(710.204 259)" fill="#fff"/>
    <g id="그룹_23435" data-name="그룹 23435" transform="translate(710.204 259)" opacity="0.25">
      <g id="그룹_23434" data-name="그룹 23434">
        <g id="그룹_23433" data-name="그룹 23433" clip-path="url(#clip-path-17)">
          <path id="패스_47594" data-name="패스 47594" d="M26.109,76.817a6,6,0,0,0-.683.456,5.45,5.45,0,0,0,.439,8.967c6.007,3.735,20.874,10.425,42.548,3.16a5.426,5.426,0,0,0,3.713-5.257,7.229,7.229,0,0,0-2.044-4.711S51.35,90.5,26.109,76.817" fill="#15296f"/>
        </g>
      </g>
    </g>
    <path id="패스_47595" data-name="패스 47595" d="M49.577,93.4a49.818,49.818,0,0,1-8.441-.71,43.748,43.748,0,0,1-15.672-5.808,6.211,6.211,0,0,1-.5-10.219,6.562,6.562,0,0,1,.781-.519.759.759,0,0,1,.724,0C39.3,83.1,50.36,83.448,57.383,82.514A35.858,35.858,0,0,0,69.7,78.778a.762.762,0,0,1,.952.147,8.006,8.006,0,0,1,2.237,5.2,6.085,6.085,0,0,1-1.13,3.694,6.19,6.19,0,0,1-3.1,2.3A60,60,0,0,1,49.577,93.4M26.139,77.7c-.075.052-.161.113-.254.183a4.591,4.591,0,0,0-1.837,3.927A4.648,4.648,0,0,0,26.267,85.6c5.382,3.347,20.241,10.347,41.9,3.085a4.693,4.693,0,0,0,3.194-4.517A6.285,6.285,0,0,0,69.9,80.4a38.61,38.61,0,0,1-12.238,3.614A47.44,47.44,0,0,1,43.5,83.75,56.906,56.906,0,0,1,26.139,77.7" transform="translate(710.204 259)" fill="#15296f"/>
    <path id="패스_47596" data-name="패스 47596" d="M7.99,46.238A42.018,42.018,0,0,0,52.858,85.809,43,43,0,0,0,92.724,40.433,42.018,42.018,0,0,0,47.856.862,43,43,0,0,0,7.99,46.238" transform="translate(710.204 259)" fill="#fff"/>
    <g id="그룹_23438" data-name="그룹 23438" transform="translate(710.204 259)" opacity="0.25">
      <g id="그룹_23437" data-name="그룹 23437">
        <g id="그룹_23436" data-name="그룹 23436" clip-path="url(#clip-path-18)">
          <path id="패스_47597" data-name="패스 47597" d="M35.644,3.53h0c-16.891,8.545-15.5,17.284-4.015,15.19S65.156,29.894,65.156,29.894s11.864,10.422,17.765,0C87.4,21.983,77.6,11.48,72.617,6.88A42.057,42.057,0,0,1,92.724,40.433,43,43,0,0,1,52.858,85.809,42.019,42.019,0,0,1,7.99,46.238,43.068,43.068,0,0,1,35.644,3.53" fill="#15296f"/>
        </g>
      </g>
    </g>
    <path id="패스_47598" data-name="패스 47598" d="M49.9,86.671A42.787,42.787,0,0,1,7.231,46.283,43.869,43.869,0,0,1,31.218,4.651,43.1,43.1,0,0,1,47.8.1,42.782,42.782,0,0,1,93.482,40.388,43.865,43.865,0,0,1,69.5,82.02,43.12,43.12,0,0,1,52.91,86.568q-1.51.1-3.01.1m.91-85.15q-1.446,0-2.9.1A42.288,42.288,0,0,0,8.748,46.194,41.259,41.259,0,0,0,49.9,85.151q1.446,0,2.9-.1A42.289,42.289,0,0,0,91.965,40.478,41.259,41.259,0,0,0,50.81,1.521" transform="translate(710.204 259)" fill="#15296f"/>
    <path id="패스_47599" data-name="패스 47599" d="M5.362,40.748c-1.94,16.126,8.883,31.424,33.2,33.271C59.414,75.6,77.8,64.659,79.74,48.533s-13.5-29.849-34.153-32.911c-28.881-4.281-38.285,9-40.225,25.126" transform="translate(710.204 259)" fill="red"/>
    <g id="그룹_23441" data-name="그룹 23441" transform="translate(710.204 259)" opacity="0.25">
      <g id="그룹_23440" data-name="그룹 23440">
        <g id="그룹_23439" data-name="그룹 23439" clip-path="url(#clip-path-19)">
          <path id="패스_47600" data-name="패스 47600" d="M38.4,68.272c20.91,1.587,39.349-9.359,41.332-25.5a22.558,22.558,0,0,1,.007,5.509c-1.948,16.167-20.4,27.14-41.339,25.552-23.977-1.82-34.886-16.652-33.418-32.5C6.28,54.949,17.261,66.668,38.4,68.272" fill="#15296f"/>
        </g>
      </g>
    </g>
    <g id="그룹_23444" data-name="그룹 23444" transform="translate(710.204 259)" opacity="0.5">
      <g id="그룹_23443" data-name="그룹 23443">
        <g id="그룹_23442" data-name="그룹 23442" clip-path="url(#clip-path-20)">
          <path id="패스_47601" data-name="패스 47601" d="M45.113,17.193C23.6,14.011,12.835,20.455,7.9,30.556,12.459,19.576,23.14,12.3,45.586,15.622,66.239,18.684,81.68,32.408,79.74,48.533q-.084.7-.209,1.384c1.78-16.034-13.724-29.663-34.418-32.724" fill="#fff"/>
        </g>
      </g>
    </g>
    <path id="패스_47602" data-name="패스 47602" d="M101.061,25.359a2.325,2.325,0,0,1-2.487,1.6l-3.093,9.926L93.823,42.2,90.1,39.758l2.632-5.227,4.112-8.165a2.176,2.176,0,0,1-.959-2.212,2.709,2.709,0,0,1,5.176,1.2" transform="translate(710.204 259)" fill="red"/>
    <g id="그룹_23447" data-name="그룹 23447" transform="translate(710.204 259)" opacity="0.5">
      <g id="그룹_23446" data-name="그룹 23446">
        <g id="그룹_23445" data-name="그룹 23445" clip-path="url(#clip-path-21)">
          <path id="패스_47603" data-name="패스 47603" d="M99.682,24.056a1.432,1.432,0,1,1-1.106-1.441,1.3,1.3,0,0,1,1.106,1.441" fill="#fff"/>
        </g>
      </g>
    </g>
    <g id="그룹_23450" data-name="그룹 23450" transform="translate(710.204 259)" opacity="0.25">
      <g id="그룹_23449" data-name="그룹 23449">
        <g id="그룹_23448" data-name="그룹 23448" clip-path="url(#clip-path-22)">
          <path id="패스_47604" data-name="패스 47604" d="M95.481,36.887,93.824,42.2,90.1,39.757l2.632-5.227a3.156,3.156,0,0,0,2.748,2.357" fill="#15296f"/>
        </g>
      </g>
    </g>
    <path id="패스_47605" data-name="패스 47605" d="M93.823,42.964a.758.758,0,0,1-.418-.125l-3.722-2.446a.762.762,0,0,1-.262-.978L95.9,26.545a2.8,2.8,0,0,1-.757-2.564,2.737,2.737,0,0,1,1.512-1.835,3.84,3.84,0,0,1,4.6,1.071,2.739,2.739,0,0,1,.546,2.314A2.95,2.95,0,0,1,99.14,27.7L94.549,42.43a.762.762,0,0,1-.47.49.753.753,0,0,1-.256.044m-2.739-3.47L93.4,41.015l4.451-14.28a.759.759,0,0,1,.758-.533,1.6,1.6,0,0,0,1.715-1.016l.74.173-.74-.173a1.25,1.25,0,0,0-.271-1.043,2.322,2.322,0,0,0-2.72-.633,1.241,1.241,0,0,0-.7.816,1.425,1.425,0,0,0,.667,1.425.761.761,0,0,1,.23.956Z" transform="translate(710.204 259)" fill="#15296f"/>
    <path id="패스_47606" data-name="패스 47606" d="M7.493,41.005C5.774,55.293,15.7,68.881,37.885,70.582,56.915,72.04,73.654,62.387,75.373,48.1S62.962,21.6,44.111,18.838C17.75,14.969,9.212,26.717,7.493,41.005" transform="translate(710.204 259)" fill="#2a0049"/>
    <path id="패스_47607" data-name="패스 47607" d="M42.574,74.932q-2.024,0-4.071-.154a47.928,47.928,0,0,1-16.7-4.106,31.472,31.472,0,0,1-11.151-8.465A27.248,27.248,0,0,1,5.4,52.076a29.544,29.544,0,0,1-.794-11.419,38.118,38.118,0,0,1,3.14-11.629,24.447,24.447,0,0,1,7.283-9.192,28.153,28.153,0,0,1,12.323-5.127A57.879,57.879,0,0,1,45.7,14.87C56,16.4,65.219,20.572,71.656,26.625a29.431,29.431,0,0,1,7.172,10.1,23.356,23.356,0,0,1,1.667,11.9c-.96,7.983-5.881,15.065-13.856,19.942a46.283,46.283,0,0,1-24.065,6.366M35.418,15.577c-8.174,0-14.7,1.828-19.466,5.468C10.506,25.2,7.2,31.862,6.117,40.839a26.747,26.747,0,0,0,5.711,20.4c5.722,6.967,14.986,11.123,26.79,12.02q1.99.151,3.96.151a44.757,44.757,0,0,0,23.268-6.143c7.569-4.629,12.236-11.315,13.139-18.826,1.827-15.18-12.58-28.966-33.51-32.069a68.962,68.962,0,0,0-10.057-.8" transform="translate(710.204 259)" fill="#15296f"/>
    <path id="패스_47608" data-name="패스 47608" d="M82.15,64.639a4.427,4.427,0,0,0,1.043.325,5.241,5.241,0,0,0,1.864-.012c-.066-.026-.131-.053-.195-.082a4.189,4.189,0,0,1-1.131-.757c-1.95-1.807-2.514-5.547-1.558-9.714a21.685,21.685,0,0,1,1.384-4.071c.167-.37.343-.734.527-1.088A16.435,16.435,0,0,1,90.6,42.126a5.419,5.419,0,0,1,4.745-.416c.064.029.128.059.19.092a4.879,4.879,0,0,0-2.154-1.977c-2.942-1.331-6.912.736-10.01,4.812h0c-.372.489-.731,1.008-1.074,1.552h0q-.375.594-.724,1.232-.431.789-.816,1.636c-3.1,6.853-2.474,13.828,1.4,15.58" transform="translate(710.204 259)" fill="red"/>
    <g id="그룹_23453" data-name="그룹 23453" transform="translate(710.204 259)" opacity="0.5">
      <g id="그룹_23452" data-name="그룹 23452">
        <g id="그룹_23451" data-name="그룹 23451" clip-path="url(#clip-path-23)">
          <path id="패스_47609" data-name="패스 47609" d="M83.368,44.637c2.978-2.913,5.44-3.127,7.228-2.51a5.415,5.415,0,0,1,4.745-.416c.064.029.128.059.19.092a4.873,4.873,0,0,0-2.154-1.977c-2.942-1.331-6.913.736-10.009,4.811" fill="#fff"/>
        </g>
      </g>
    </g>
    <path id="패스_47610" data-name="패스 47610" d="M84.063,65.8a5.34,5.34,0,0,1-2.226-.471c-2.134-.965-3.469-3.274-3.758-6.5a20.676,20.676,0,0,1,1.98-10.084A20.676,20.676,0,0,1,86.326,40.6c2.616-1.913,5.231-2.435,7.365-1.469a5.611,5.611,0,0,1,2.49,2.275.76.76,0,0,1-1,1.068c-.044-.023-.094-.047-.153-.073-1.487-.673-3.4-.24-5.4,1.219a17.821,17.821,0,0,0-5.378,7.02,17.827,17.827,0,0,0-1.723,8.674c.221,2.462,1.162,4.188,2.649,4.861.06.027.11.048.156.066a.761.761,0,0,1-.142,1.458,6.44,6.44,0,0,1-1.126.1m-2.619-16.43h0a19.152,19.152,0,0,0-1.851,9.321c.239,2.658,1.258,4.523,2.871,5.253.045.02.09.04.136.058a8.6,8.6,0,0,1-1.588-4.553,19.34,19.34,0,0,1,1.852-9.437,19.35,19.35,0,0,1,5.865-7.621A8.62,8.62,0,0,1,93.2,40.582c-.044-.022-.089-.044-.134-.064-1.612-.73-3.687-.264-5.84,1.311a19.152,19.152,0,0,0-5.78,7.544" transform="translate(710.204 259)" fill="#15296f"/>
    <path id="패스_47611" data-name="패스 47611" d="M83.557,50.329c-2.893,6.4-2.309,12.906,1.306,14.541.064.029.128.057.194.083,3.608,1.414,8.748-2.42,11.59-8.7s2.328-12.674-1.115-14.45c-.063-.032-.126-.063-.191-.092-3.614-1.635-8.891,2.224-11.784,8.619" transform="translate(710.204 259)" fill="red"/>
    <g id="그룹_23456" data-name="그룹 23456" transform="translate(710.204 259)" opacity="0.5">
      <g id="그룹_23455" data-name="그룹 23455">
        <g id="그룹_23454" data-name="그룹 23454" clip-path="url(#clip-path-24)">
          <path id="패스_47612" data-name="패스 47612" d="M95.048,43.88c-.062-.033-.126-.063-.19-.092-3.615-1.635-8.891,2.224-11.785,8.619a22.349,22.349,0,0,0-1.1,2.966,21.256,21.256,0,0,1,1.581-5.044c2.894-6.4,8.17-10.254,11.785-8.619.064.029.127.06.19.092,2.9,1.5,3.722,6.266,2.211,11.487.768-4.368-.185-8.115-2.695-9.409" fill="#fff"/>
        </g>
      </g>
    </g>
    <g id="그룹_23459" data-name="그룹 23459" transform="translate(710.204 259)" opacity="0.25">
      <g id="그룹_23458" data-name="그룹 23458">
        <g id="그룹_23457" data-name="그룹 23457" clip-path="url(#clip-path-25)">
          <path id="패스_47613" data-name="패스 47613" d="M88.59,43.466a18.384,18.384,0,0,0-2.729,4.347c-2.539,5.612-2.026,11.326,1.146,12.761.056.025.113.05.171.072,3.165,1.241,7.676-2.123,10.171-7.635a19.339,19.339,0,0,0,1.031-2.853,20.665,20.665,0,0,1-1.734,6.094c-2.842,6.281-7.982,10.115-11.59,8.7-.065-.026-.13-.054-.194-.083-3.614-1.635-4.2-8.146-1.306-14.541a19.2,19.2,0,0,1,5.034-6.863" fill="#15296f"/>
        </g>
      </g>
    </g>
    <path id="패스_47614" data-name="패스 47614" d="M86.656,66.007a5.113,5.113,0,0,1-1.876-.347c-.069-.027-.146-.059-.231-.1-2.008-.909-3.265-3.079-3.537-6.11a19.361,19.361,0,0,1,1.852-9.437,19.361,19.361,0,0,1,5.866-7.621c2.457-1.8,4.916-2.286,6.925-1.377.084.038.159.074.228.11,1.908.984,3.089,3.169,3.322,6.151a19.5,19.5,0,0,1-1.865,9.286A19.5,19.5,0,0,1,91.6,64.1a8.43,8.43,0,0,1-4.939,1.911m6.887-23.914a6.858,6.858,0,0,0-3.915,1.528,17.818,17.818,0,0,0-5.378,7.021,17.814,17.814,0,0,0-1.723,8.674c.221,2.462,1.162,4.188,2.649,4.861.06.027.11.048.156.066,1.5.587,3.395.1,5.351-1.364a17.947,17.947,0,0,0,5.271-6.941A17.967,17.967,0,0,0,97.689,47.4c-.191-2.437-1.081-4.184-2.506-4.919-.046-.024-.1-.048-.155-.074a3.557,3.557,0,0,0-1.485-.31" transform="translate(710.204 259)" fill="#15296f"/>
    <g id="그룹_23462" data-name="그룹 23462" transform="translate(710.204 259)">
      <g id="그룹_23461" data-name="그룹 23461">
        <g id="그룹_23460" data-name="그룹 23460" clip-path="url(#clip-path-26)">
          <path id="패스_47615" data-name="패스 47615" d="M31.91,22.166a12.684,12.684,0,0,0-1.789.094C20.478,22.9,13.009,30.59,11.4,38.917c-.223,1.153.234,3.708,2.166,2.471a87.961,87.961,0,0,0,19.6-17.006,1.3,1.3,0,0,0-.252-1.9,1.915,1.915,0,0,0-1-.319" fill="#9580a4"/>
        </g>
      </g>
    </g>
    <g id="그룹_23465" data-name="그룹 23465" transform="translate(710.204 259)" opacity="0.25">
      <g id="그룹_23464" data-name="그룹 23464">
        <g id="그룹_23463" data-name="그룹 23463" clip-path="url(#clip-path-27)">
          <path id="패스_47616" data-name="패스 47616" d="M82.15,64.639a4.427,4.427,0,0,0,1.043.325,5.241,5.241,0,0,0,1.864-.012c-.066-.026-.131-.053-.195-.082a4.189,4.189,0,0,1-1.131-.757c-1.95-1.807-2.514-5.547-1.558-9.714-.549-1.215-.917-3.6.118-8.208q-.375.594-.724,1.232-.431.789-.816,1.636c-3.1,6.853-2.474,13.828,1.4,15.58" fill="#15296f"/>
        </g>
      </g>
    </g>
    <path id="패스_47617" data-name="패스 47617" d="M30.245,113.188c.973.66,1.986,1.262,2.992,1.867,1.243.729,2.5,1.458,3.767,2.147a36.708,36.708,0,0,0,7.19,2.891,29.557,29.557,0,0,0,3.9.838c5.429.682,10.987-1.36,15.6-4.11.135-.083.337-.209.468-.295l.15-.1a.6.6,0,0,1,.794.137,7.823,7.823,0,0,0,3.591,1.6,6.144,6.144,0,0,0,2.343-.11,5.409,5.409,0,0,0,4.386-3.928,11.215,11.215,0,0,0-.326-6.166c-.52-1.535-3.367-2.276-4.843-2.575-.267-.054-.566-.1-.837-.14a.754.754,0,0,1-.621-.941c.444-1.656,2.156-2.514,3.686-2.918l.15-.037.077-.017.089-.018a.7.7,0,0,1,.281,0,18.593,18.593,0,0,0,4.715.421,4.616,4.616,0,0,0,1.037-.187,1.272,1.272,0,0,0,.5-.267.517.517,0,0,0,.064-.083.426.426,0,0,0,.039-.113.453.453,0,0,0,.02-.085,1.348,1.348,0,0,0-.485-1.135c-1.713-1.637-5.323-2.105-7.637-2.207-4.852-.191-13.057,5.614-16.963,8.564-.323.248-.65.5-.96.749a.734.734,0,0,1-.977-.017,40.9,40.9,0,0,0-11.363-7.583c-3.257-1.391-7.255-2.559-10.794-1.915a6.98,6.98,0,0,0-4.827,3.66,10.894,10.894,0,0,0-1.163,4.291,6.536,6.536,0,0,1,.484-6,8.254,8.254,0,0,1,5.15-3.613c5.4-1.123,11.582,1.295,16.144,4.065a36.853,36.853,0,0,1,7.4,5.979l-1.012-.05c.334-.268.66-.52.992-.774q1.488-1.139,3.025-2.209c3.808-2.6,9.283-6.181,13.907-6.651a7.4,7.4,0,0,1,1.021-.016,23.719,23.719,0,0,1,3.805.453c1.822.394,4.043,1.1,5.221,2.639a2.6,2.6,0,0,1,.479,2.248c-.473,1.765-2.835,1.828-4.305,1.8a23.547,23.547,0,0,1-3.817-.471l.3,0-.1.022a5.947,5.947,0,0,0-1.679.667,2.123,2.123,0,0,0-1.029,1.187l-.643-.945.124.017c2.173.343,5.576,1.192,6.632,3.327a4.343,4.343,0,0,1,.195.509,14.536,14.536,0,0,1,.62,3.189c.292,3.333-.765,6.678-4.006,8.149a9.426,9.426,0,0,1-2.766.773,7.685,7.685,0,0,1-2.9-.236,9.544,9.544,0,0,1-3.353-1.7l-.058-.048h0l.944.039a27.465,27.465,0,0,1-4.164,2.5c-.174.078-.652.311-.822.388-.188.085-.642.279-.833.363-.32.122-.81.332-1.132.441a21.94,21.94,0,0,1-9.031,1.446,21.077,21.077,0,0,1-3.631-.605l-1.171-.31c-.367-.091-.8-.248-1.157-.354s-.789-.264-1.143-.392c-.377-.141-.758-.272-1.127-.432-.2-.089-.76-.313-.974-.406-.848-.383-2.024-.942-2.833-1.4-.583-.315-1.253-.712-1.818-1.06a21.048,21.048,0,0,1-2.642-1.988c-.366-.335-.739-.694-1.073-1.061a8.548,8.548,0,0,1-1.26-1.7" transform="translate(710.204 259)" fill="#15296f"/>
    <path id="패스_47618" data-name="패스 47618" d="M53.439,106.942l-3.488,2.11,2.472-3.241a.774.774,0,0,1,1.231.938.786.786,0,0,1-.215.193h0" transform="translate(710.204 259)" fill="#15296f"/>
    <path id="패스_47619" data-name="패스 47619" d="M55.14,121.4a19.148,19.148,0,0,1-7.744.367q-.817-.143-1.612-.325a4.837,4.837,0,0,1,9.356-.042" transform="translate(710.204 259)" fill="red"/>
    <path id="패스_47620" data-name="패스 47620" d="M50.268,122.766a17.487,17.487,0,0,1-3-.253c-.547-.1-1.1-.207-1.652-.333a.759.759,0,0,1-.567-.93,5.6,5.6,0,0,1,10.827-.049.76.76,0,0,1-.556.935,21.512,21.512,0,0,1-5.051.63m-3.474-1.888c.245.049.49.1.733.137a17.845,17.845,0,0,0,6.6-.171,4.078,4.078,0,0,0-7.33.034" transform="translate(710.204 259)" fill="#15296f"/>
    <path id="패스_47621" data-name="패스 47621" d="M74.374,132.953a14.21,14.21,0,0,1-2-.14,13.178,13.178,0,0,1-4.677-1.594A12.1,12.1,0,0,1,63.952,128a.76.76,0,0,1,1.249-.868,10.817,10.817,0,0,0,3.307,2.8,12.8,12.8,0,0,0,9.986.911.76.76,0,1,1,.406,1.465,16.93,16.93,0,0,1-4.526.645" transform="translate(710.204 259)" fill="#15296f"/>
    <path id="패스_47622" data-name="패스 47622" d="M52.043,123a13.346,13.346,0,0,0-.556,8.37,15.875,15.875,0,0,0,1.069,2.653c.252.524.541,1.008.8,1.538a7.791,7.791,0,0,1-1.715-1.421,8.725,8.725,0,0,1-.95-1.271c-.1-.189-.237-.414-.33-.6a8.25,8.25,0,0,1-.729-2.317,8.057,8.057,0,0,1,1.23-5.605A5.777,5.777,0,0,1,52.043,123" transform="translate(710.204 259)" fill="#15296f"/>
    <path id="패스_47623" data-name="패스 47623" d="M60.243,138.979a.762.762,0,0,1-.752-.653l-.8-5.584H56.721a.76.76,0,0,1-.755-.673l-.688-5.969a.759.759,0,0,1,.678-.844l2.227-.227-.454-4.67a.76.76,0,1,1,1.513-.147l.528,5.423a.762.762,0,0,1-.68.83l-2.214.226.523,4.53h1.953a.761.761,0,0,1,.753.653L61,138.111a.76.76,0,0,1-.645.86.811.811,0,0,1-.109.008" transform="translate(710.204 259)" fill="#15296f"/>
    <path id="패스_47624" data-name="패스 47624" d="M51.056,200a4.366,4.366,0,0,1-.5-.029l-5.14-.586a1.683,1.683,0,0,1-1.348-.95l-.256-.564a.188.188,0,0,0-.139-.069l-1.5-.156a.178.178,0,0,0-.116.02,1.6,1.6,0,0,1-1.866,1.212l-4.339-.709a1.618,1.618,0,0,1-1.391-1.431l-.032-.383a.18.18,0,0,0-.1-.059l-2.323-.591a.2.2,0,0,0-.157.017l-.143.355a1.566,1.566,0,0,1-1.348.96,14.976,14.976,0,0,1-5.255-.9,1.587,1.587,0,0,1-1.123-1.483c0-8.51,1.721-17.427,3.8-27.363a.76.76,0,0,1,1.069-.532c6.494,3.068,13.556,4.154,22.9,3.521a.752.752,0,0,1,.343.056.76.76,0,0,1,.459.825l0,.024c0,.034-.01.089-.018.166a87.73,87.73,0,0,1-1.984,11.071c1.233.538,3.8,1.96,4.564,4.711a16.659,16.659,0,0,1-.494,10.664,3.792,3.792,0,0,1-3.558,2.2m-8.9-3.876c.06,0,.121,0,.182.009l1.5.157a1.68,1.68,0,0,1,1.365.951l.257.565a.183.183,0,0,0,.136.068l5.139.587a2.337,2.337,0,0,0,2.479-1.249,15.114,15.114,0,0,0,.432-9.672c-.773-2.787-4.193-3.917-4.228-3.928a.762.762,0,0,1-.506-.907,89.532,89.532,0,0,0,2.035-10.852c-8.763.5-15.585-.535-21.87-3.319-1.967,9.473-3.563,18.012-3.569,26.108a.166.166,0,0,0,.082.052,13.91,13.91,0,0,0,4.652.828.132.132,0,0,0,.065-.021l.144-.358a1.634,1.634,0,0,1,1.938-.911l2.323.591a1.61,1.61,0,0,1,1.24,1.4l.031.384a.2.2,0,0,0,.122.063l4.339.71a.205.205,0,0,0,.131-.018,1.578,1.578,0,0,1,1.582-1.236m10.382-24.9a.764.764,0,0,1-.277.416.758.758,0,0,0,.277-.416" transform="translate(710.204 259)" fill="#15296f"/>
    <path id="패스_47625" data-name="패스 47625" d="M49.412,183.612a7.221,7.221,0,0,0-2.34-.362,11.752,11.752,0,0,0-3.75.62c-.168.06-.446.153-.61.22a16.686,16.686,0,0,0-2.919,1.475,16.709,16.709,0,0,1,3.012-2.066,12.656,12.656,0,0,1,4.19-1.387,8.428,8.428,0,0,1,2.886.053.761.761,0,0,1-.469,1.447" transform="translate(710.204 259)" fill="#15296f"/>
    <path id="패스_47626" data-name="패스 47626" d="M49.546,193.01c-1.008,0-2.149-.028-3.41-.1a71.693,71.693,0,0,1-21.4-4.761.76.76,0,1,1,.548-1.418,70.158,70.158,0,0,0,20.882,4.657,42.983,42.983,0,0,0,8.345-.186.76.76,0,0,1,.241,1.5,35.814,35.814,0,0,1-5.209.309" transform="translate(710.204 259)" fill="#15296f"/>
    <path id="패스_47627" data-name="패스 47627" d="M48.769,195.954c-.807,0-1.686-.018-2.634-.062a68.853,68.853,0,0,1-21.42-4.628.76.76,0,0,1,.547-1.419,67.285,67.285,0,0,0,20.943,4.528,41.332,41.332,0,0,0,8.3-.319.761.761,0,0,1,.27,1.5,37.006,37.006,0,0,1-6,.4" transform="translate(710.204 259)" fill="#15296f"/>
    <path id="패스_47628" data-name="패스 47628" d="M80.869,161.968c-8.02,2.888-16.238,3.181-23.067.482-1.4,8.488-2.534,16.626-2.112,23.981a.751.751,0,0,0,.6.638,14.454,14.454,0,0,0,4.647.591.736.736,0,0,0,.631-.441l.119-.321a.818.818,0,0,1,.949-.429l2.188.438a.787.787,0,0,1,.659.6l.049.339a.805.805,0,0,0,.74.616l4.069.478a.762.762,0,0,0,.9-.563.748.748,0,0,1,.842-.567l1.4.088a.889.889,0,0,1,.725.417l.267.479a.886.886,0,0,0,.715.417l4.806.346a2.855,2.855,0,0,0,2.95-1.58,12.718,12.718,0,0,0-.078-8.795c-1-2.763-4.619-3.694-4.619-3.694,1.327-6.412,2.6-13.532,2.624-13.524" transform="translate(710.204 259)" fill="#fff"/>
    <g id="그룹_23468" data-name="그룹 23468" transform="translate(710.204 259)" opacity="0.25">
      <g id="그룹_23467" data-name="그룹 23467">
        <g id="그룹_23466" data-name="그룹 23466" clip-path="url(#clip-path-28)">
          <path id="패스_47629" data-name="패스 47629" d="M55.69,186.43a.754.754,0,0,0,.6.639,14.509,14.509,0,0,0,4.648.591.737.737,0,0,0,.63-.442l.119-.321a.818.818,0,0,1,.948-.428l2.189.438a.784.784,0,0,1,.659.6l.049.339a.807.807,0,0,0,.74.617l4.068.477a.762.762,0,0,0,.9-.562.608.608,0,0,1,.276-.425.909.909,0,0,1,.566-.143l1.4.088a.892.892,0,0,1,.725.417l.266.48a.89.89,0,0,0,.716.416l4.806.346a2.856,2.856,0,0,0,2.951-1.58,11.414,11.414,0,0,0-.079-8.795,11.955,11.955,0,0,0-.553-1.079l-.721-.064s.483,6.832-12.266,5.1-10.454-13.8-8.571-18.8a5.015,5.015,0,0,0,.172-.544,31.072,31.072,0,0,1-3.123-1.347c-1.4,8.489-2.534,16.627-2.112,23.981" fill="#15296f"/>
        </g>
      </g>
    </g>
    <path id="패스_47630" data-name="패스 47630" d="M80.252,190.33c-.1,0-.209,0-.314-.011l-4.806-.347a1.643,1.643,0,0,1-1.325-.8l-.262-.469a.206.206,0,0,0-.113-.038l-1.4-.087a.169.169,0,0,0-.057,0A1.513,1.513,0,0,1,70.25,189.7l-4.068-.476a1.56,1.56,0,0,1-1.4-1.263l-.041-.285a.2.2,0,0,0-.064-.021l-2.188-.438a.218.218,0,0,0-.107,0l-.1.266a1.487,1.487,0,0,1-1.261.934,15.066,15.066,0,0,1-4.929-.614,1.508,1.508,0,0,1-1.159-1.329c-.445-7.754.861-16.53,2.121-24.147a.759.759,0,0,1,1.029-.583c7.166,2.832,14.735,2.672,22.5-.477l.053-.02a.752.752,0,0,1,.462-.005h0l.023.007a.721.721,0,0,1,.158.076.744.744,0,0,1,.24.24.773.773,0,0,1,.088.2.765.765,0,0,1,.026.26.8.8,0,0,1-.028.154c-.031.146-.158.822-.315,1.668-.455,2.433-1.281,6.858-2.158,11.133,1.2.445,3.607,1.6,4.452,3.948a13.568,13.568,0,0,1,.073,9.326,3.556,3.556,0,0,1-3.4,2.077m-5.122-1.912a.209.209,0,0,0,.111.038l4.806.346a2.133,2.133,0,0,0,2.186-1.094,12.033,12.033,0,0,0-.084-8.264c-.845-2.344-4.062-3.208-4.094-3.216a.763.763,0,0,1-.554-.891c.924-4.462,1.812-9.216,2.289-11.77l.074-.4a30.626,30.626,0,0,1-21.463.318c-1.193,7.3-2.363,15.553-1.956,22.83a.2.2,0,0,0,.042.015,13.918,13.918,0,0,0,4.365.57l.021,0,.1-.267a1.576,1.576,0,0,1,1.811-.91l2.188.438a1.542,1.542,0,0,1,1.262,1.239l.042.284a.222.222,0,0,0,.084.027l4.068.477a.271.271,0,0,0,.071,0,1.5,1.5,0,0,1,1.628-1.132l1.4.087a1.647,1.647,0,0,1,1.34.806Zm6.458-26.2a.639.639,0,0,1-.037.089.671.671,0,0,0,.037-.089" transform="translate(710.204 259)" fill="#15296f"/>
    <path id="패스_47631" data-name="패스 47631" d="M78.052,176.227a10.419,10.419,0,0,0-6.705.756,15.789,15.789,0,0,0-2.125,1.127,15.329,15.329,0,0,1,3.014-2.078,11.659,11.659,0,0,1,4.834-1.345,6.606,6.606,0,0,1,1.368.069.76.76,0,1,1-.386,1.471" transform="translate(710.204 259)" fill="#15296f"/>
    <path id="패스_47632" data-name="패스 47632" d="M76.741,184.37q-.61,0-1.27-.013a72,72,0,0,1-20.124-3.443.76.76,0,1,1,.461-1.448,70.507,70.507,0,0,0,19.643,3.369,42.9,42.9,0,0,0,7.747-.421.76.76,0,0,1,.275,1.495,40.584,40.584,0,0,1-6.732.461" transform="translate(710.204 259)" fill="#15296f"/>
    <path id="패스_47633" data-name="패스 47633" d="M76.167,186.937l-.546,0a69.128,69.128,0,0,1-20.14-3.327.76.76,0,1,1,.461-1.449,67.656,67.656,0,0,0,19.639,3.256,41.487,41.487,0,0,0,7.75-.535.76.76,0,0,1,.3,1.49,40.863,40.863,0,0,1-7.467.568" transform="translate(710.204 259)" fill="#15296f"/>
    <path id="패스_47634" data-name="패스 47634" d="M43.261,146.944a19.437,19.437,0,0,0,7.044,2.261,16.578,16.578,0,0,0,7.071-1.345,48.607,48.607,0,0,0,4.618-2.072,12.764,12.764,0,0,1-1.914,1.759,15.715,15.715,0,0,1-7.209,3.1,10.331,10.331,0,0,1-5.321-.746,11.963,11.963,0,0,1-4.289-2.958" transform="translate(710.204 259)" fill="#15296f"/>
    <path id="패스_47635" data-name="패스 47635" d="M46.758,168.382a7.29,7.29,0,0,1-4.156-1.215,3.721,3.721,0,0,1,0-6.45,7.715,7.715,0,0,1,8.312,0,3.721,3.721,0,0,1,0,6.45,7.29,7.29,0,0,1-4.156,1.215m0-7.359c-2.44,0-4.5,1.338-4.5,2.92s2.061,2.919,4.5,2.919,4.5-1.336,4.5-2.919-2.061-2.92-4.5-2.92" transform="translate(710.204 259)" fill="#15296f"/>
    <path id="패스_47636" data-name="패스 47636" d="M79.673,155.577c.33,1.795-1.484,3.632-4.05,4.1s-4.914-.6-5.243-2.4,1.483-3.632,4.05-4.1,4.913.6,5.243,2.4" transform="translate(710.204 259)" fill="red"/>
    <g id="그룹_23471" data-name="그룹 23471" transform="translate(710.204 259)" opacity="0.5">
      <g id="그룹_23470" data-name="그룹 23470">
        <g id="그룹_23469" data-name="그룹 23469" clip-path="url(#clip-path-29)">
          <path id="패스_47637" data-name="패스 47637" d="M77.176,153.748c.125.442-.949,1.133-2.4,1.542s-2.726.384-2.851-.058.949-1.132,2.4-1.542,2.726-.384,2.851.058" fill="#fff"/>
        </g>
      </g>
    </g>
    <g id="그룹_23474" data-name="그룹 23474" transform="translate(710.204 259)" opacity="0.25">
      <g id="그룹_23473" data-name="그룹 23473">
        <g id="그룹_23472" data-name="그룹 23472" clip-path="url(#clip-path-30)">
          <path id="패스_47638" data-name="패스 47638" d="M78.586,153.9a2.151,2.151,0,0,1,.148.508c.248,1.59-1.352,3.161-3.576,3.509s-4.227-.659-4.476-2.249a2.118,2.118,0,0,1-.011-.573,2.845,2.845,0,0,0-.562,2.107c.3,1.9,2.688,3.1,5.341,2.683s4.562-2.289,4.266-4.186a2.831,2.831,0,0,0-1.13-1.8" fill="#15296f"/>
        </g>
      </g>
    </g>
    <path id="패스_47639" data-name="패스 47639" d="M74.418,160.552a6.181,6.181,0,0,1-2.571-.53,3.417,3.417,0,0,1-1.069-5.821,7,7,0,0,1,7.428-1.363,3.417,3.417,0,0,1,1.069,5.821,6.626,6.626,0,0,1-3.514,1.769,7.425,7.425,0,0,1-1.343.124m1.222-6.724a5.921,5.921,0,0,0-1.073.1c-2.113.389-3.688,1.862-3.439,3.218a2.161,2.161,0,0,0,1.351,1.494,5.106,5.106,0,0,0,3.007.292c2.113-.387,3.688-1.862,3.44-3.217a2.161,2.161,0,0,0-1.352-1.494,4.67,4.67,0,0,0-1.934-.393" transform="translate(710.204 259)" fill="#15296f"/>
    <path id="패스_47640" data-name="패스 47640" d="M13.929,75.794A12.256,12.256,0,0,1,21.6,82.457a4.671,4.671,0,0,1,.2.686c-.2-.145-.37-.3-.55-.443-.515-.432-1.039-.871-1.542-1.308-1.346-1.159-2.66-2.312-3.934-3.561a21.336,21.336,0,0,1-1.853-2.037" transform="translate(710.204 259)" fill="#15296f"/>
    <path id="패스_47641" data-name="패스 47641" d="M124.824,105.859a1.639,1.639,0,0,1-.764-.192c-.889-.464-1.569-1.769-2.079-3.99a25.465,25.465,0,0,1-.6-4.4c0-.047-.01-.133-.033-.15s-.251-.161-1.109-.026a17.638,17.638,0,0,0-2.059.513,8.245,8.245,0,0,1-1.775.4,2.267,2.267,0,0,0-.4.978c-.163.641-.281,1.458-.4,2.247-.061.422-.124.858-.194,1.265-.248,1.45-1.246,1.416-1.443,1.4-.914-.1-1.57-1.158-1.88-1.78a6.62,6.62,0,0,1-.7-3.168c.058-1.194-.139-1.267-1.673-1.838a20.14,20.14,0,0,1-3.417-1.575,14.739,14.739,0,0,0-3.433-1.445,7.26,7.26,0,0,1-4.723-3.414A15.832,15.832,0,0,0,95.9,88.011a9.559,9.559,0,0,1-3.149-5.876c-1.037-5.251-1.725-11.425,1.034-17.411a33.854,33.854,0,0,1,6.415-9.6c.248-.271.483-.528.693-.768a13.151,13.151,0,0,1,4.448-3.168A22.423,22.423,0,0,1,116.665,48.6a44.169,44.169,0,0,1,10.428,1.936,15,15,0,0,1,8.5,6.654,27.2,27.2,0,0,1,3.848,11.445,30.494,30.494,0,0,1-1.936,13.651,28.087,28.087,0,0,1-3.058,6.016,15.306,15.306,0,0,1-4.1,4.23c-3.129,2.052-3.181,5.576-3.223,8.408-.031,2.032-.057,3.788-1.269,4.584a1.877,1.877,0,0,1-1.03.33m-3.956-10.338a2.3,2.3,0,0,1,1.378.374,1.63,1.63,0,0,1,.658,1.337,23.742,23.742,0,0,0,.559,4.1c.443,1.932.978,2.814,1.3,2.982.038.02.091.047.257-.062.538-.353.559-1.8.582-3.335.045-3.023.107-7.162,3.91-9.657,2.542-1.667,4.937-5.132,6.57-9.506a28.9,28.9,0,0,0,1.85-12.942c-1.025-8.719-5.336-15.161-11.248-16.812-6.979-1.949-13.352-3.253-20.672.551-.022.011-.045.022-.068.031a11.788,11.788,0,0,0-3.908,2.776c-.22.251-.46.514-.715.791a32.115,32.115,0,0,0-6.154,9.206c-2.577,5.592-1.913,11.469-.923,16.48a8.115,8.115,0,0,0,2.732,5.1,17.362,17.362,0,0,1,2.448,2.9,5.809,5.809,0,0,0,3.9,2.8,16.246,16.246,0,0,1,3.753,1.586,18.494,18.494,0,0,0,3.177,1.461c1.55.576,2.773,1.032,2.662,3.336a4.905,4.905,0,0,0,1.012,3.159c.062-.368.118-.754.177-1.162a19.866,19.866,0,0,1,.527-2.767c.358-1.168.94-1.76,1.73-1.76a8.97,8.97,0,0,0,1.392-.342,12.114,12.114,0,0,1,3.11-.63" transform="translate(710.204 259)" fill="#15296f"/>
    <path id="패스_47642" data-name="패스 47642" d="M103.362,88.48a2.968,2.968,0,0,1-.785-.105c-2.862-.78-9.288-3.971-7.153-16.731.858-5.125,2.679-9.175,5.414-12.039a14.245,14.245,0,0,1,6.6-3.983,3.04,3.04,0,0,1,3.709,2.057c.52,1.7,1.112,4.2,1.758,7.417a23.79,23.79,0,0,1,.547,7.963,16.336,16.336,0,0,1-1.682,4.921c-.276.587-.561,1.194-.847,1.871a28.207,28.207,0,0,1-5.385,7.693,3.007,3.007,0,0,1-2.177.936m1.627-1.46h0Zm3.245-29.983a1.546,1.546,0,0,0-.4.053c-3.3.885-9.1,3.984-10.909,14.8-.844,5.045-.376,8.963,1.392,11.643a8.041,8.041,0,0,0,4.66,3.37,1.485,1.485,0,0,0,1.463-.413,26.685,26.685,0,0,0,5.084-7.236c.3-.7.59-1.325.872-1.925,1.441-3.068,2.394-5.1,1.021-11.939-.637-3.171-1.216-5.618-1.722-7.271a1.526,1.526,0,0,0-1.46-1.087" transform="translate(710.204 259)" fill="#15296f"/>
    <path id="패스_47643" data-name="패스 47643" d="M115.384,94.775a3.537,3.537,0,0,1-1.786-.522,22.749,22.749,0,0,0-2.145-.93c-3.475-1.4-4.788-2.021-4.788-3,0-.662.57-1.181,1.514-2.04,1.1-1,2.611-2.377,3.077-4.008a10.1,10.1,0,0,1,2.954-4.477,1.393,1.393,0,0,1,2.33.945,95.177,95.177,0,0,0,1,9.922c.356,1.837.07,3.092-.849,3.73a2.262,2.262,0,0,1-1.305.383m-7.05-4.543a8.878,8.878,0,0,0,1.151.612c.765.355,1.706.734,2.536,1.068a20.744,20.744,0,0,1,2.37,1.044,1.547,1.547,0,0,0,1.431.186c.358-.248.441-1.067.224-2.191a91.1,91.1,0,0,1-1.008-9.848,8.406,8.406,0,0,0-2.32,3.587c-.584,2.046-2.278,3.588-3.515,4.714-.3.276-.659.6-.869.828m-.171.222h0" transform="translate(710.204 259)" fill="#15296f"/>
    <path id="패스_47644" data-name="패스 47644" d="M121,93.317a1.943,1.943,0,0,1-1.081-.293c-.9-.586-.975-1.758-1.073-3.242-.021-.314-.043-.638-.073-.977-.182-2.052-.971-6.338-1.3-8.086a1.034,1.034,0,0,1,.5-1.1,1.052,1.052,0,0,1,1.207.107,25.775,25.775,0,0,0,4.493,2.527c3.216,1.572,5.2,2.617,5.638,3.859.309.876.21,2.312-2.016,4.174a16.758,16.758,0,0,1-4.707,2.694,4.836,4.836,0,0,1-1.587.336M119.181,81.6c.415,2.25.953,5.352,1.106,7.073.031.355.053.688.075,1.01.056.846.126,1.9.388,2.07.045.03.323.16,1.319-.2a15.07,15.07,0,0,0,4.248-2.431c1.18-.986,1.762-1.921,1.558-2.5-.036-.1-.252-.494-1.52-1.256-.934-.561-2.163-1.162-3.352-1.743a42.129,42.129,0,0,1-3.822-2.022" transform="translate(710.204 259)" fill="#15296f"/>
    <path id="패스_47645" data-name="패스 47645" d="M130.376,84.262c-2.167,0-5.255-1.626-9.2-4.848C116,75.18,115.9,73,116.169,68.843c.188-2.886-.836-9.022-1.286-11.527a2.5,2.5,0,0,1,.51-2,2.466,2.466,0,0,1,1.817-.924,7.774,7.774,0,0,1,3.024.513c2.886,1.064,2.89,6.64,2.893,12.032,0,1,0,1.935.021,2.809a12.656,12.656,0,0,0,.124,1.655c.266-.415.569-.989.73-1.3.074-.139.144-.273.211-.4s.254-.677.223-3.261c-.02-1.73-.133-3.847-.232-5.714a43.359,43.359,0,0,1-.134-5.211,1.452,1.452,0,0,1,.864-1.248,1.977,1.977,0,0,1,1.931.438,5.545,5.545,0,0,1,1.872,5.057,7.122,7.122,0,0,0,.389,3.527,13.965,13.965,0,0,1,.638-1.425,1.338,1.338,0,0,1,1.2-.736h0a1.332,1.332,0,0,1,1.2.741,24.71,24.71,0,0,1,2.253,12.046,24.368,24.368,0,0,1-1.878,8.753c-.456.934-.909,1.416-1.425,1.52a3.788,3.788,0,0,1-.737.069m.588-.815h0Zm-.267-.7Zm-13.2-26.84c-.074,0-.147,0-.219.005a.927.927,0,0,0-.695.354.979.979,0,0,0-.2.783c.57,3.179,1.5,8.951,1.306,11.9-.241,3.685-.352,5.367,4.454,9.293,5.159,4.216,7.578,4.637,8.593,4.48.433-.409,1.585-2.962,2.034-7.181a24.542,24.542,0,0,0-1.806-12.657,4.986,4.986,0,0,0-.636,1.837.974.974,0,0,1-.5.922.939.939,0,0,1-1-.106c-.894-.626-1.975-3.111-1.595-5.965a4.14,4.14,0,0,0-.964-3.347,1.869,1.869,0,0,0-.687-.511v.006a49.266,49.266,0,0,0,.144,4.936c.277,5.2.415,8.689-.171,9.777-.064.119-.132.249-.2.384-.745,1.416-1.449,2.754-2.5,2.507-.95-.223-1.17-1.519-1.217-3.538-.02-.891-.021-1.839-.022-2.843a53.936,53.936,0,0,0-.3-7.046c-.291-2.05-.846-3.281-1.6-3.561a6.408,6.408,0,0,0-2.214-.424" transform="translate(710.204 259)" fill="#15296f"/>
    <g id="그룹_23477" data-name="그룹 23477" transform="translate(710.204 259)" opacity="0.25">
      <g id="그룹_23476" data-name="그룹 23476">
        <g id="그룹_23475" data-name="그룹 23475" clip-path="url(#clip-path-31)">
          <path id="패스_47646" data-name="패스 47646" d="M75.908,108.409s-.608,5.368-6.812,2.813-15.036,6.349-22.206,3.813-17.363-8.667-21.025-4.294,10.782,15.538,20.529,15.916c0,0,1.927-2.855,4.56-1.573,0,0,9.411,1.705,14.537-4.314l.9-2.529s6.109,2.05,8.513-1.511,1-8.321,1-8.321" fill="#15296f"/>
        </g>
      </g>
    </g>
    <g id="그룹_23480" data-name="그룹 23480" transform="translate(710.204 259)" opacity="0.25">
      <g id="그룹_23479" data-name="그룹 23479">
        <g id="그룹_23478" data-name="그룹 23478" clip-path="url(#clip-path-32)">
          <path id="패스_47647" data-name="패스 47647" d="M73.924,138.22a35.54,35.54,0,0,1-12.278,2.469c-14.84.609-14.571-8.5-14.571-8.5s2.225,6.063,11.064,6.025a28.131,28.131,0,0,0,14.28-3.614c.363.868.893,2.137,1.505,3.616" fill="#15296f"/>
        </g>
      </g>
    </g>
    <g id="그룹_23483" data-name="그룹 23483" transform="translate(710.204 259)" opacity="0.25">
      <g id="그룹_23482" data-name="그룹 23482">
        <g id="그룹_23481" data-name="그룹 23481" clip-path="url(#clip-path-33)">
          <path id="패스_47648" data-name="패스 47648" d="M82.019,113.7a20.848,20.848,0,0,1-.176,2.292c-.7,5.517-3.272,12.792-4.289,15.522a2.32,2.32,0,0,1-1.577,1.468,10.279,10.279,0,0,1-10.395-3.109,2.57,2.57,0,0,1-.649-1.855c.035-.736.1-1.822.224-3.131.368,1.882,1.77,5.055,7.011,5.646,7.542.852,10.341-16.4,8.424-21.336a3.523,3.523,0,0,1-.16-.513q.165.156.325.322a10.93,10.93,0,0,1,.862,1.75,8.007,8.007,0,0,1,.4,2.944" fill="#15296f"/>
        </g>
      </g>
    </g>
    <g id="그룹_23486" data-name="그룹 23486" transform="translate(710.204 259)" opacity="0.25">
      <g id="그룹_23485" data-name="그룹 23485">
        <g id="그룹_23484" data-name="그룹 23484" clip-path="url(#clip-path-34)">
          <path id="패스_47649" data-name="패스 47649" d="M80.14,101.381c-.692,2.076-7.2.677-7.2.677s-2.92.547-3.406,2.433c0,0,.4.05,1,.172l-1.776-.04s1.155-4.683,3.71-4.988,6.576,1.935,7.181-.156a1.889,1.889,0,0,1,.487,1.9" fill="#15296f"/>
        </g>
      </g>
    </g>
  </g>
</svg>
