<svg xmlns="http://www.w3.org/2000/svg" xmlns:xlink="http://www.w3.org/1999/xlink" width="24" height="24" viewBox="0 0 24 24">
  <defs>
    <clipPath id="clip-path">
      <rect id="사각형_26264" data-name="사각형 26264" width="24" height="24" fill="#fff"/>
    </clipPath>
  </defs>
  <g id="그룹_21798" data-name="그룹 21798" clip-path="url(#clip-path)">
    <path id="패스_46058" data-name="패스 46058" d="M20.134,20.876a.577.577,0,0,0-.577.577v1.393H4.444V21.453a.577.577,0,0,0-1.154,0v1.97A.578.578,0,0,0,3.867,24H20.134a.578.578,0,0,0,.577-.577v-1.97a.577.577,0,0,0-.577-.577" fill="#fff"/>
    <path id="패스_46059" data-name="패스 46059" d="M3.867,9.2a.578.578,0,0,0,.577-.577v-.89H19.557V8.66a.577.577,0,1,0,1.154,0v-1.5a.577.577,0,0,0-.577-.577H19.127a7.15,7.15,0,0,0-14.254,0H3.867a.577.577,0,0,0-.577.577V8.624a.578.578,0,0,0,.577.577M6.027,6.58a6,6,0,0,1,11.947,0Z" fill="#fff"/>
    <path id="패스_46060" data-name="패스 46060" d="M7.6,13.951a.557.557,0,0,0-.438-.025l-.9.309v-.976a.576.576,0,1,0-1.152,0v.995l-.945-.34A.577.577,0,0,0,3.776,15l.906.325-.7.7a.58.58,0,0,0,0,.815.579.579,0,0,0,.816,0l.887-.888.887.888a.577.577,0,0,0,.408.168.577.577,0,0,0,.577-.576.575.575,0,0,0-.169-.408l-.716-.715.866-.3A.577.577,0,0,0,7.6,13.951" fill="#fff"/>
    <path id="패스_46061" data-name="패스 46061" d="M13.921,13.874a.571.571,0,0,0-.441-.027l-.9.309v-.975a.577.577,0,1,0-1.154,0v.993l-.942-.339a.577.577,0,0,0-.389,1.086l.906.326-.7.7a.577.577,0,0,0,0,.816.578.578,0,0,0,.815,0L12,15.876l.889.888a.577.577,0,0,0,.815-.816l-.715-.715.865-.3a.566.566,0,0,0,.331-.291.573.573,0,0,0,.027-.441.566.566,0,0,0-.291-.331" fill="#fff"/>
    <path id="패스_46062" data-name="패스 46062" d="M20.334,14.211a.577.577,0,0,0-.441-.027l-.9.31v-.976a.577.577,0,1,0-1.154,0v.993l-.942-.339a.577.577,0,0,0-.39,1.086l.906.326-.7.7a.577.577,0,0,0,.816.816l.887-.887.887.887a.577.577,0,1,0,.816-.816L19.4,15.57l.864-.3a.577.577,0,0,0,.068-1.063" fill="#fff"/>
    <path id="패스_46063" data-name="패스 46063" d="M23.423,9.665H.577A.577.577,0,0,0,0,10.242v9.539a.577.577,0,0,0,.577.577H23.423A.577.577,0,0,0,24,19.781V10.242a.577.577,0,0,0-.577-.577M1.154,10.819H22.847V19.2H1.154Z" fill="#fff"/>
  </g>
</svg>
