 <svg xmlns="http://www.w3.org/2000/svg" xmlns:xlink="http://www.w3.org/1999/xlink" width="24" height="24" viewBox="0 0 24 24">
  <defs>
    <clipPath id="clip-path">
      <rect id="사각형_26263" data-name="사각형 26263" width="24" height="24" fill="#fff"/>
    </clipPath>
  </defs>
  <g id="그룹_21796" data-name="그룹 21796" clip-path="url(#clip-path)">
    <path id="패스_46056" data-name="패스 46056" d="M14.444,13.378a4.8,4.8,0,1,0-4.977.009,7.52,7.52,0,0,0-4.577,4.5.574.574,0,0,0,.344.737.577.577,0,0,0,.737-.344,6.36,6.36,0,0,1,12.049.285.576.576,0,0,0,1.1-.342,7.47,7.47,0,0,0-4.676-4.849m-2.5-.43A3.644,3.644,0,1,1,15.592,9.3a3.648,3.648,0,0,1-3.644,3.644" fill="#fff"/>
    <path id="패스_46057" data-name="패스 46057" d="M12,0A12,12,0,1,0,24,12,12.013,12.013,0,0,0,12,0M22.849,12A10.849,10.849,0,1,1,12,1.151,10.861,10.861,0,0,1,22.849,12" fill="#fff"/>
  </g>
</svg>
