<svg xmlns="http://www.w3.org/2000/svg" width="18" height="14" viewBox="0 0 18 14">
  <path id="패스_46071" data-name="패스 46071" d="M1.361.5.827.1,0,1.137l.534.4L16.639,13.7l.534.4L18,13.063l-.534-.4L14.74,10.6A11.712,11.712,0,0,0,17.1,7.1C16.259,5.057,13.457.973,9,.973A7.593,7.593,0,0,0,4.267,2.7Zm4.9,3.7A4.1,4.1,0,0,1,9,3.161,4,4,0,0,1,13.052,7.1a3.845,3.845,0,0,1-.481,1.866l-1.089-.823A2.542,2.542,0,0,0,11.7,7.1,2.665,2.665,0,0,0,9,4.474a2.816,2.816,0,0,0-.529.049L8.8,6.115Zm6.256,8.113-2.023-1.551A4.14,4.14,0,0,1,9,11.039,3.938,3.938,0,0,1,4.99,6.547L2.411,4.57A11.308,11.308,0,0,0,.9,7.1c.844,2.043,3.646,6.127,8.1,6.127A7.281,7.281,0,0,0,12.515,12.314ZM9.136,9.723,6.349,7.587A2.681,2.681,0,0,0,9,9.726C9.046,9.726,9.091,9.726,9.136,9.723Z" transform="translate(0 -0.1)" fill="#fff" opacity="0.4"/>
</svg>
