<svg xmlns="http://www.w3.org/2000/svg" xmlns:xlink="http://www.w3.org/1999/xlink" width="106.588"
                height="26" viewBox="0 0 106.588 26">
                <defs>
                    <clipPath id="clip-path">
                        <rect id="사각형_27919" data-name="사각형 27919" width="106.588" height="26"
                            transform="translate(0 0.012)" fill="none" />
                    </clipPath>
                </defs>
                <g id="그룹_22297" data-name="그룹 22297" transform="translate(0 -0.012)">
                    <path id="패스_46457" data-name="패스 46457"
                        d="M0,.374V25.651H10.833V22.038H3.972v-7.76H9.423V10.665H3.972V3.986h6.861V.374Z"
                        fill="#fff" />
                    <path id="패스_46458" data-name="패스 46458"
                        d="M21.34.374l-2.6,19.608h-.069L16.072.374H12.054l3.827,25.277h5.273L24.986.374Z"
                        fill="#fff" />
                    <path id="패스_46459" data-name="패스 46459" d="M41.27.374V25.651H51.778V22.038h-6.54V.374Z"
                        fill="#fff" />
                    <g id="그룹_22296" data-name="그룹 22296">
                        <g id="그룹_22295" data-name="그룹 22295" clip-path="url(#clip-path)">
                            <path id="패스_46460" data-name="패스 46460"
                                d="M54.792,24.386A6.513,6.513,0,0,1,53.3,19.8V6.223a6.511,6.511,0,0,1,1.495-4.585A5.623,5.623,0,0,1,59.147.013,5.622,5.622,0,0,1,63.5,1.638,6.523,6.523,0,0,1,65,6.223V8.9h-3.76V5.971q0-2.348-1.986-2.347T57.265,5.971V20.09q0,2.31,1.986,2.309t1.986-2.309V16.225H65V19.8a6.524,6.524,0,0,1-1.5,4.586,5.623,5.623,0,0,1-4.351,1.626A5.625,5.625,0,0,1,54.8,24.387"
                                fill="#fff" />
                            <path id="패스_46461" data-name="패스 46461"
                                d="M67.376.375h3.972V10.666H75.6V.375h3.973V25.651H75.608V14.276H71.354V25.651H67.376Z"
                                fill="#fff" />
                            <path id="패스_46462" data-name="패스 46462"
                                d="M85.611.375H91l4.117,25.269H91.135l-.723-5.019V20.7H85.9l-.723,4.945H81.493Zm4.332,16.9L88.17,4.779H88.1L86.368,17.273Z"
                                fill="#fff" />
                            <path id="패스_46463" data-name="패스 46463"
                                d="M98.466,3.985H94.314V.374h12.281V3.985h-4.159V25.644h-3.97Z" fill="#fff" />
                            <path id="패스_46464" data-name="패스 46464"
                                d="M37.049,1.674A5.853,5.853,0,0,0,32.571.019a5.849,5.849,0,0,0-4.48,1.655,6.617,6.617,0,0,0-1.552,4.7V19.657a6.615,6.615,0,0,0,1.552,4.695,5.835,5.835,0,0,0,4.48,1.661,5.835,5.835,0,0,0,4.478-1.661A6.615,6.615,0,0,0,38.6,19.657V6.37a6.617,6.617,0,0,0-1.552-4.7M34.626,22.4H32.57q-2.059,0-2.06-2.494V6.124q0-2.492,2.06-2.493t2.056,2.493V20.346q0,2.055,2.494,2.056Z"
                                fill="#fff" />
                        </g>
                    </g>
                </g>
            </svg>