<svg xmlns="http://www.w3.org/2000/svg" xmlns:xlink="http://www.w3.org/1999/xlink" width="106.592" height="68.001" viewBox="0 0 106.592 68.001">
  <defs>
    <clipPath id="clip-path">
      <rect id="사각형_25689" data-name="사각형 25689" width="36" height="36" fill="#fff"/>
    </clipPath>
    <clipPath id="clip-path-2">
      <rect id="사각형_25881" data-name="사각형 25881" width="106.592" height="26.001" fill="#fff"/>
    </clipPath>
  </defs>
  <g id="그룹_22009" data-name="그룹 22009" transform="translate(-356 -196)">
    <g id="그룹_22005" data-name="그룹 22005" transform="translate(391 196)" opacity="0.2">
      <g id="그룹_21190" data-name="그룹 21190" clip-path="url(#clip-path)">
        <path id="패스_45645" data-name="패스 45645" d="M18,0A18,18,0,1,0,36,18,18,18,0,0,0,18,0M28.8,24.655a.818.818,0,0,1-1.271.681L18,18.983,8.471,25.336A.817.817,0,0,1,7.2,24.655V11.346a.817.817,0,0,1,1.271-.681L18,17.018l9.529-6.353a.818.818,0,0,1,1.271.681Z" fill="#fff"/>
      </g>
    </g>
    <g id="그룹_22006" data-name="그룹 22006" transform="translate(356 237.99)" opacity="0.2">
      <path id="패스_45755" data-name="패스 45755" d="M0,.316V25.594H10.834V21.981H3.972V14.22H9.424V10.607H3.972V3.928h6.862V.316Z" transform="translate(0 0.056)" fill="#fff"/>
      <path id="패스_45756" data-name="패스 45756" d="M19.485.316l-2.6,19.609h-.073L14.213.316H10.2l3.828,25.278H19.3L23.131.316Z" transform="translate(1.855 0.056)" fill="#fff"/>
      <path id="패스_45757" data-name="패스 45757" d="M34.922.316V25.594H45.43V21.981H38.89V.316Z" transform="translate(6.349 0.056)" fill="#fff"/>
      <g id="그룹_21469" data-name="그룹 21469" transform="translate(0 0.01)">
        <g id="그룹_21468" data-name="그룹 21468" clip-path="url(#clip-path-2)">
          <path id="패스_45758" data-name="패스 45758" d="M46.6,24.387A6.51,6.51,0,0,1,45.1,19.8V6.223A6.513,6.513,0,0,1,46.6,1.638,5.622,5.622,0,0,1,50.952.013,5.62,5.62,0,0,1,55.3,1.638a6.521,6.521,0,0,1,1.5,4.585V8.9H53.043V5.971q0-2.347-1.987-2.347T49.071,5.971v14.12q0,2.31,1.985,2.309t1.987-2.309V16.225H56.8V19.8a6.524,6.524,0,0,1-1.5,4.587,5.625,5.625,0,0,1-4.351,1.626A5.629,5.629,0,0,1,46.6,24.388" transform="translate(8.198 -0.012)" fill="#fff"/>
          <path id="패스_45759" data-name="패스 45759" d="M57.013.317h3.972V10.608h4.26V.317h3.973V25.594H65.245V14.219h-4.26V25.594H57.013Z" transform="translate(10.366 0.045)" fill="#fff"/>
          <path id="패스_45760" data-name="패스 45760" d="M73.076.317h5.386l4.117,25.275H78.6l-.723-5.019v.073H73.365l-.723,4.946H68.959Zm4.333,16.9L75.64,4.722h-.073L73.834,17.216Z" transform="translate(12.538 0.045)" fill="#fff"/>
          <path id="패스_45761" data-name="패스 45761" d="M83.959,3.928H79.808V.316H92.089V3.928h-4.16V25.594h-3.97Z" transform="translate(14.51 0.045)" fill="#fff"/>
          <path id="패스_45762" data-name="패스 45762" d="M32.969,1.673A5.849,5.849,0,0,0,28.491.014a5.849,5.849,0,0,0-4.48,1.658,6.618,6.618,0,0,0-1.552,4.7V19.657a6.617,6.617,0,0,0,1.552,4.7,5.837,5.837,0,0,0,4.48,1.662,5.836,5.836,0,0,0,4.478-1.662,6.618,6.618,0,0,0,1.553-4.7V6.37a6.619,6.619,0,0,0-1.553-4.7M30.547,22.4H28.491q-2.06,0-2.06-2.494V6.124q0-2.492,2.06-2.494t2.056,2.494V20.346q0,2.055,2.494,2.056Z" transform="translate(4.081 -0.012)" fill="#fff"/>
        </g>
      </g>
    </g>
  </g>
</svg>
