<svg xmlns="http://www.w3.org/2000/svg" xmlns:xlink="http://www.w3.org/1999/xlink" width="20" height="17.778" viewBox="0 0 20 17.778">
  <defs>
    <clipPath id="clip-path">
      <rect id="사각형_28863" data-name="사각형 28863" width="20" height="17.778" fill="none"/>
    </clipPath>
  </defs>
  <g id="그룹_25728" data-name="그룹 25728" opacity="0.6">
    <g id="그룹_24263" data-name="그룹 24263" clip-path="url(#clip-path)">
      <path id="패스_48158" data-name="패스 48158" d="M18.75,8.778h-.276a5.006,5.006,0,0,0-4.974-4.5H11.464a1,1,0,0,0-.964-.75V2.913a1.5,1.5,0,1,0-1,0v.614a1,1,0,0,0-.964.75H6.5a5.006,5.006,0,0,0-4.974,4.5H1.25A1.25,1.25,0,0,0,0,10.028v2.5a1.25,1.25,0,0,0,1.25,1.25H1.6a5.007,5.007,0,0,0,4.9,4h7a5.007,5.007,0,0,0,4.9-4h.351A1.25,1.25,0,0,0,20,12.528v-2.5a1.25,1.25,0,0,0-1.25-1.25m-2.25,4a3,3,0,0,1-3,3h-7a3,3,0,0,1-3-3v-3.5a3,3,0,0,1,3-3h7a3,3,0,0,1,3,3Z" fill="#fff"/>
      <path id="패스_48159" data-name="패스 48159" d="M12.944,7.476,9.4,9.837,5.86,7.476a.308.308,0,0,0-.17-.051.3.3,0,0,0-.3.3v4.947a.3.3,0,0,0,.052.169.3.3,0,0,0,.421.084L9.4,10.568l3.542,2.361a.3.3,0,0,0,.472-.253V7.729a.3.3,0,0,0-.472-.253" transform="translate(0.599 0.825)" fill="#fff"/>
    </g>
  </g>
</svg>
