<svg xmlns="http://www.w3.org/2000/svg" width="20" height="20" viewBox="0 0 20 20">
  <path id="패스_46465" data-name="패스 46465" d="M0,10A10,10,0,1,1,10,20,10,10,0,0,1,0,10ZM10,4.063a.621.621,0,0,0-.559.348L8.027,7.277l-3.164.461A.627.627,0,0,0,4.516,8.8L6.8,11.039l-.539,3.152a.617.617,0,0,0,.25.609.624.624,0,0,0,.656.047L10,13.363l2.832,1.488a.63.63,0,0,0,.66-.047.62.62,0,0,0,.25-.609L13.2,11.043l2.289-2.234a.62.62,0,0,0,.156-.641.628.628,0,0,0-.5-.426l-3.168-.461L10.563,4.414A.623.623,0,0,0,10,4.066Z" fill="#fff" opacity="0.6"/>
</svg>
