<svg xmlns="http://www.w3.org/2000/svg" xmlns:xlink="http://www.w3.org/1999/xlink" width="20" height="20" viewBox="0 0 20 20">
  <defs>
    <clipPath id="clip-path">
      <rect id="사각형_23087" data-name="사각형 23087" width="20" height="20" fill="#fff"/>
    </clipPath>
  </defs>
  <g id="그룹_22298" data-name="그룹 22298" opacity="0.6">
    <g id="그룹_16448" data-name="그룹 16448" clip-path="url(#clip-path)">
      <path id="패스_40437" data-name="패스 40437" d="M8,0A7.992,7.992,0,0,0,2.682,13.965,5.784,5.784,0,0,1,0,15.754a11.387,11.387,0,0,0,5.418-.188A8,8,0,1,0,8,0" fill="#fff"/>
      <path id="패스_40438" data-name="패스 40438" d="M17.49,18.09A5.377,5.377,0,0,0,20,19.77a10.713,10.713,0,0,1-5.08-.18A7.446,7.446,0,0,1,6.51,17,9.355,9.355,0,0,0,8,17.12,9.129,9.129,0,0,0,17.12,8a8.1,8.1,0,0,0-.13-1.49,7.472,7.472,0,0,1,.5,11.58" fill="#fff"/>
    </g>
  </g>
</svg>
