<svg xmlns="http://www.w3.org/2000/svg" xmlns:xlink="http://www.w3.org/1999/xlink" width="20" height="19.97" viewBox="0 0 20 19.97">
  <defs>
    <clipPath id="clip-path">
      <rect id="사각형_25280" data-name="사각형 25280" width="20" height="19.97" transform="translate(0 0)" fill="#fff"/>
    </clipPath>
  </defs>
  <g id="그룹_22300" data-name="그룹 22300" transform="translate(0 0)" opacity="0.6">
    <g id="그룹_20964" data-name="그룹 20964" clip-path="url(#clip-path)">
      <path id="패스_45227" data-name="패스 45227" d="M19.528,3.81,17.425.481A1.038,1.038,0,0,0,16.547,0H3.45a1.039,1.039,0,0,0-.879.481L.465,3.81A2.861,2.861,0,0,0,2.371,8.193a3.649,3.649,0,0,0,.443.03A3.222,3.222,0,0,0,5.208,7.158a3.224,3.224,0,0,0,4.552.236,3.078,3.078,0,0,0,.235-.236,3.224,3.224,0,0,0,4.552.236c.082-.075.161-.153.236-.236a3.227,3.227,0,0,0,2.392,1.065,3.682,3.682,0,0,0,.445-.03A2.857,2.857,0,0,0,19.532,3.81ZM17.771,9.355h0a4.629,4.629,0,0,1-.6.042,4.434,4.434,0,0,1-1.3-.194V13.1H4.125V9.2a4.356,4.356,0,0,1-1.307.2,4.6,4.6,0,0,1-.6-.04,4.345,4.345,0,0,1-.441-.085V17.62a2.35,2.35,0,0,0,2.349,2.35H15.874a2.35,2.35,0,0,0,2.35-2.35V9.272a3.476,3.476,0,0,1-.453.085Z" fill="#fff"/>
    </g>
  </g>
</svg>
