<svg xmlns="http://www.w3.org/2000/svg" xmlns:xlink="http://www.w3.org/1999/xlink" width="14.406" height="20" viewBox="0 0 14.406 20">
  <defs>
    <clipPath id="clip-path">
      <rect id="사각형_25908" data-name="사각형 25908" width="14.406" height="20" fill="none"/>
    </clipPath>
  </defs>
  <g id="그룹_22301" data-name="그룹 22301" transform="translate(-2.797 0)">
    <g id="그룹_21526" data-name="그룹 21526" transform="translate(2.797 0)">
      <g id="그룹_21525" data-name="그룹 21525" clip-path="url(#clip-path)">
        <path id="패스_45915" data-name="패스 45915" d="M12.312,3.738A9.641,9.641,0,0,0,0,1.219c1.676,3.77,2.933,8.2,11.2,8.462A29.124,29.124,0,0,0,14.4,9.593a10.827,10.827,0,0,0-2.093-5.855" fill="#fff"/>
        <path id="패스_45916" data-name="패스 45916" d="M10.786,10.35c-4.972.246-7.307,2.059-8.765,4.3A28.815,28.815,0,0,0,0,18.8c6.03,3.22,13.819-.176,14.4-8.375a28.38,28.38,0,0,0-3.619-.072" fill="#fff"/>
      </g>
    </g>
  </g>
</svg>
