<svg xmlns="http://www.w3.org/2000/svg" width="22" height="22" viewBox="0 0 22 22">
    <path id="패스_46160" data-name="패스 46160" d="M3.143,32A3.146,3.146,0,0,0,0,35.143V50.857A3.146,3.146,0,0,0,3.143,54H18.857A3.146,3.146,0,0,0,22,50.857V35.143A3.146,3.146,0,0,0,18.857,32Zm1.571,3.143H17.286a1.57,1.57,0,0,1,1.571,1.571v9.429a1.57,1.57,0,0,1-1.571,1.571H4.714a1.57,1.57,0,0,1-1.571-1.571V36.714A1.57,1.57,0,0,1,4.714,35.143Zm7.464,3.143a.79.79,0,0,0-.648.339L8.957,42.371l-.471-.629a.786.786,0,0,0-1.257,0L4.871,44.886a.793.793,0,0,0-.074.825.779.779,0,0,0,.7.432h11a.791.791,0,0,0,.7-.422.777.777,0,0,0-.049-.81l-4.321-6.286a.79.79,0,0,0-.648-.339ZM6.286,39.857a1.571,1.571,0,1,0-1.571-1.571A1.571,1.571,0,0,0,6.286,39.857Z" transform="translate(0 -32)" fill="#fff" opacity="0.6"/>
</svg>
