<svg xmlns="http://www.w3.org/2000/svg" xmlns:xlink="http://www.w3.org/1999/xlink" width="258" height="200" viewBox="0 0 258 200">
    <defs>
        <linearGradient id="linear-gradient" x1="0.5" y1="1" x2="0.5" gradientUnits="objectBoundingBox">
            <stop offset="0" stop-color="#9b2c24"/>
            <stop offset="1" stop-color="#3d1513"/>
        </linearGradient>
    </defs>
    <g id="합치기_4" data-name="합치기 4" transform="translate(258 199.999) rotate(180)" stroke-miterlimit="10" fill="url(#linear-gradient)">
        <path d="M166,200H3.192A3.1,3.1,0,0,1,0,197V3A3.1,3.1,0,0,1,3.192,0H166V90c0,52.38,39.621,95,92,95v15Z" stroke="none"/>
        <path d="M 256.8000183105469 198.7993774414062 L 256.8000183105469 186.1924438476562 C 205.1149291992188 185.5493011474609 164.8002319335938 143.52880859375 164.8002319335938 89.99951934814453 L 164.8002319335938 1.199522137641907 L 3.19212794303894 1.199522137641907 C 2.093520879745483 1.199522137641907 1.19977080821991 2.007272005081177 1.19977080821991 3.000129222869873 L 1.19977080821991 196.9996337890625 C 1.19977080821991 197.9920196533203 2.093520879745483 198.7993774414062 3.19212794303894 198.7993774414062 L 256.8000183105469 198.7993774414062 M 258.0000305175781 199.9993743896484 L 3.19212794303894 199.9993743896484 C 1.428949356079102 199.9993743896484 -0.0002292131684953347 198.6564788818359 -0.0002292131684953347 196.9996337890625 L -0.0002292131684953347 3.000129222869873 C -0.0002292131684953347 1.34234356880188 1.428949356079102 -0.0004778878355864435 3.19212794303894 -0.0004778878355864435 L 166.0002288818359 -0.0004778878355864435 L 166.0002288818359 89.99951934814453 C 166.0002288818359 142.3795166015625 205.620849609375 184.9998779296875 258.0000305175781 184.9998779296875 L 258.0000305175781 199.9993743896484 Z" stroke="none" fill="rgba(210,47,39,0.8)"/>
    </g>
</svg>
