<svg id="그룹_21791" data-name="그룹 21791" xmlns="http://www.w3.org/2000/svg" xmlns:xlink="http://www.w3.org/1999/xlink" width="62" height="62" viewBox="0 0 62 62">
  <defs>
    <clipPath id="clip-path">
      <rect id="사각형_26244" data-name="사각형 26244" width="62" height="62" fill="#fff"/>
    </clipPath>
  </defs>
  <g id="그룹_21790" data-name="그룹 21790" clip-path="url(#clip-path)">
    <path id="패스_46040" data-name="패스 46040" d="M27,17.033H21a3,3,0,0,0-3,3v6a3,3,0,0,0,3,3h6a3,3,0,0,0,3-3v-6a3,3,0,0,0-3-3m1,9a1,1,0,0,1-1,1H21a1,1,0,0,1-1-1v-6a1,1,0,0,1,1-1h6a1,1,0,0,1,1,1Z" fill="#fff"/>
    <path id="패스_46041" data-name="패스 46041" d="M55,17.033H49a3,3,0,0,0-3,3v6a3,3,0,0,0,3,3h6a3,3,0,0,0,3-3v-6a3,3,0,0,0-3-3m1,9a1,1,0,0,1-1,1H49a1,1,0,0,1-1-1v-6a1,1,0,0,1,1-1h6a1,1,0,0,1,1,1Z" fill="#fff"/>
    <path id="패스_46042" data-name="패스 46042" d="M41,17.033H35a3,3,0,0,0-3,3v6a3,3,0,0,0,3,3h6a3,3,0,0,0,3-3v-6a3,3,0,0,0-3-3m1,9a1,1,0,0,1-1,1H35a1,1,0,0,1-1-1v-6a1,1,0,0,1,1-1h6a1,1,0,0,1,1,1Z" fill="#fff"/>
    <path id="패스_46043" data-name="패스 46043" d="M57,13.033H19a5,5,0,0,0-5,5v15H38V57a3,3,0,0,1-3,3H5a3,3,0,0,1-3-3V5A3.009,3.009,0,0,1,5,2H35a3.009,3.009,0,0,1,3,3v8h2V5a5,5,0,0,0-5-5H5A5,5,0,0,0,0,5V57a5,5,0,0,0,5,5H35a5,5,0,0,0,5-5V33.033H57a5,5,0,0,0,5-5v-10a5,5,0,0,0-5-5m3,15a3,3,0,0,1-3,3H16v-13a3,3,0,0,1,3-3H57a3,3,0,0,1,3,3Z" fill="#fff"/>
    <path id="패스_46044" data-name="패스 46044" d="M12.516,56.194h16a1,1,0,1,0,0-2h-16a1,1,0,0,0,0,2" fill="#fff"/>
  </g>
</svg>
