<svg xmlns="http://www.w3.org/2000/svg" xmlns:xlink="http://www.w3.org/1999/xlink" width="40" height="40" viewBox="0 0 40 40">
    <defs>
        <clipPath id="clip-path">
            <rect id="사각형_25342" data-name="사각형 25342" width="16" height="16" fill="#fff"/>
        </clipPath>
    </defs>
    <g id="타원_190" data-name="타원 190" fill="none" stroke="#3a3c43" stroke-width="1">
        <circle cx="20" cy="20" r="20" stroke="none"/>
        <circle cx="20" cy="20" r="19.5" fill="none"/>
    </g>
    <g id="그룹_21107" data-name="그룹 21107" transform="translate(12.125 12.125)" opacity="0.8">
        <g id="그룹_21106" data-name="그룹 21106" transform="translate(-0.125 -0.125)" clip-path="url(#clip-path)">
            <path id="패스_45411" data-name="패스 45411" d="M9.481,2.963H4.741V.4A.394.394,0,0,0,4.347,0,.4.4,0,0,0,4.1.087L.149,3.247A.4.4,0,0,0,.086,3.8a.409.409,0,0,0,.063.063L4.1,7.025a.394.394,0,0,0,.554-.061.4.4,0,0,0,.087-.248V4.149H9.481a5.334,5.334,0,0,1,0,10.667H.567A.593.593,0,0,0,.567,16H9.481a6.519,6.519,0,0,0,0-13.038" transform="translate(-0.001 0)" fill="#fff"/>
        </g>
    </g>
</svg>
