<svg xmlns="http://www.w3.org/2000/svg" width="44" height="44" viewBox="0 0 44 44">
    <g id="타원_1265" data-name="타원 1265" fill="none" stroke="#3a3c43" stroke-width="1">
        <circle cx="22" cy="22" r="22" stroke="none"/>
        <circle cx="22" cy="22" r="21.5" fill="none"/>
    </g>
    <path id="패스_45631" data-name="패스 45631" d="M10.573,0H6.823L6.55,2.176a8.113,8.113,0,0,0-1.855.781L2.953,1.6.3,4.254,1.668,6.012A8.152,8.152,0,0,0,.911,7.848L-1.3,8.125l.051,3.75,2.16.273a8.005,8.005,0,0,0,.758,1.84L.3,15.746,2.953,18.4l1.742-1.355a8.113,8.113,0,0,0,1.855.781L6.823,20h3.749l.269-2.148a8.044,8.044,0,0,0,1.9-.777l1.7,1.324,2.652-2.652-1.308-1.684a8.224,8.224,0,0,0,.8-1.926l2.109-.262V8.125l-2.109-.262a7.969,7.969,0,0,0-.8-1.926l1.308-1.684L14.443,1.6l-1.7,1.324a8.111,8.111,0,0,0-1.9-.777ZM8.749,6.875A3.125,3.125,0,1,1,5.624,10,3.125,3.125,0,0,1,8.749,6.875Z" transform="translate(13.3 12)" fill="#d5dee6" opacity="0.8"/>
</svg>
