<svg xmlns="http://www.w3.org/2000/svg" width="44" height="44" viewBox="0 0 44 44">
    <g id="사각형_28563" data-name="사각형 28563" fill="none" stroke="#3a3c43" stroke-width="1">
        <rect width="44" height="44" rx="22" stroke="none"/>
        <rect x="0.5" y="0.5" width="43" height="43" rx="21.5" fill="none"/>
    </g>
    <path id="패스_47780" data-name="패스 47780" d="M32.795,6.406,30.119,1.34,29.416,0l-.707,1.34L26.033,6.406l-5.641.977L18.9,7.641l1.055,1.086,3.992,4.105L23.13,18.5,22.916,20l1.359-.668L29.416,16.8l5.141,2.527L35.912,20,35.7,18.5l-.816-5.668,3.992-4.105,1.055-1.086-1.492-.258ZM37.38,8.469l-3.395,3.492-.43.441.086.609.7,4.824-4.371-2.148-.551-.27-.551.27L24.49,17.832l.7-4.824.086-.609-.43-.441L21.447,8.469l4.8-.832.605-.105.285-.543L29.416,2.68l2.273,4.309.285.543.605.105Z" transform="translate(-7.414 12)" fill="#fff" opacity="0.8"/>
</svg>
 