<svg xmlns="http://www.w3.org/2000/svg" xmlns:xlink="http://www.w3.org/1999/xlink" width="16" height="26" viewBox="0 0 16 26">
    <defs>
        <clipPath id="clip-path">
            <rect id="사각형_28828" data-name="사각형 28828" width="16" height="26" fill="#fff"/>
        </clipPath>
    </defs>
    <g id="그룹_24225" data-name="그룹 24225" opacity="0.4">
        <g id="그룹_24224" data-name="그룹 24224" clip-path="url(#clip-path)">
            <path id="패스_48143" data-name="패스 48143" d="M10.756,13.925a3.406,3.406,0,0,1,2.279.636L14.8,12.826a5.13,5.13,0,0,0-3.632-1.171,7.955,7.955,0,0,0-1.371.116l-1.022,1.67L6.767,16.686v0h0l-.01.018A4.641,4.641,0,0,0,9.9,17.847c1.03.1,1.574.38,1.574.818,0,.592-.765.959-1.794.959A3.566,3.566,0,0,1,6.874,18.51L4.947,20.273a4.974,4.974,0,0,0,4.279,1.736c2.692,0,5.162-1.058,5.162-3.627,0-1.888-1.808-2.664-3.632-2.862-.912-.084-1.558-.17-1.558-.734,0-.62.808-.861,1.558-.861" fill="#fff"/>
            <path id="패스_48144" data-name="패스 48144" d="M6.364,15.982h0l1.791-2.894.413-.675,1.578-2.58C10.8,8.745,11.468,7.66,12.12,6.568,13.431,4.389,14.731,2.2,16,0c-1.4,2.13-2.765,4.278-4.121,6.432q-.165.261-.329.522H8.5L6.779,9.916,4.794,13.57,4.177,9.916,3.544,6.954H.324L2.78,16.871H5.426c-.517.853-1.036,1.7-1.547,2.561C2.568,21.611,1.268,23.8,0,26c1.4-2.13,2.765-4.277,4.121-6.431.681-1.075,1.35-2.157,2.026-3.236Z" fill="#fff"/>
        </g>
    </g>
</svg>
