<svg id="그룹_24261" data-name="그룹 24261" xmlns="http://www.w3.org/2000/svg" xmlns:xlink="http://www.w3.org/1999/xlink" width="18" height="18" viewBox="0 0 18 18">
    <defs>
        <clipPath id="clip-path">
            <rect id="사각형_28853" data-name="사각형 28853" width="18" height="18" fill="none"/>
        </clipPath>
    </defs>
    <g id="그룹_24256" data-name="그룹 24256" clip-path="url(#clip-path)">
        <path id="패스_48155" data-name="패스 48155" d="M9,0a9,9,0,1,0,9,9A9,9,0,0,0,9,0m8.255,9H15.792a6.773,6.773,0,0,0-.232-1.758l1.412-.379A8.2,8.2,0,0,1,17.255,9M14.834,3.165a8.313,8.313,0,0,1,1.311,1.709l-1.266.731A6.821,6.821,0,0,0,13.8,4.2Zm-3.7-2.139a8.2,8.2,0,0,1,1.989.828L12.394,3.12a6.746,6.746,0,0,0-1.637-.681ZM9,.745V2.208a6.772,6.772,0,0,0-1.758.231L6.864,1.027A8.243,8.243,0,0,1,9,.745M1.854,4.874l1.266.731a6.746,6.746,0,0,0-.681,1.637L1.027,6.863a8.209,8.209,0,0,1,.827-1.989M.745,9H2.208a6.772,6.772,0,0,0,.231,1.758l-1.412.378A8.243,8.243,0,0,1,.745,9m2.42,5.834a8.34,8.34,0,0,1-1.311-1.709l1.266-.732A6.8,6.8,0,0,0,4.2,13.8Zm0-11.668A8.278,8.278,0,0,1,4.874,1.855L5.605,3.12A6.791,6.791,0,0,0,4.2,4.2Zm3.7,13.807a8.209,8.209,0,0,1-1.989-.827l.731-1.266a6.746,6.746,0,0,0,1.637.681Zm1.3-4.992-3-2.838,1.5-1.587,1.5,1.418,3.159-2.993,1.5,1.587ZM9,17.255V15.792a6.773,6.773,0,0,0,1.758-.232l.379,1.412A8.2,8.2,0,0,1,9,17.255m4.125-1.11-.73-1.266A6.883,6.883,0,0,0,13.8,13.8l1.034,1.034a8.313,8.313,0,0,1-1.709,1.311m3.02-3.02-1.266-.731a6.746,6.746,0,0,0,.681-1.637l1.412.379a8.209,8.209,0,0,1-.827,1.989" fill="#fff"/>
    </g>
</svg>
